<?xml version="1.0" standalone="no"?>
<!DOCTYPE svg PUBLIC "-//W3C//DTD SVG 1.1//EN" "http://www.w3.org/Graphics/SVG/1.1/DTD/svg11.dtd" >
<svg xmlns="http://www.w3.org/2000/svg" xmlns:xlink="http://www.w3.org/1999/xlink" version="1.1">
<metadata></metadata>
<defs>
<font id="ar_decoderegular" horiz-adv-x="653" >
<font-face units-per-em="2048" ascent="1638" descent="-410" />
<missing-glyph horiz-adv-x="522" />
<glyph horiz-adv-x="0" />
<glyph horiz-adv-x="682" />
<glyph unicode=" "  horiz-adv-x="522" />
<glyph unicode="&#x09;" horiz-adv-x="522" />
<glyph unicode="&#xa0;" horiz-adv-x="522" />
<glyph unicode="!" horiz-adv-x="505" d="M47 35q0 31 22.5 59.5t55.5 28.5q41 0 41 -45q0 -31 -22.5 -59.5t-53.5 -28.5q-43 0 -43 45zM141 207q0 8 46 126t51 128q57 213 88.5 324.5t54 143.5t61.5 32q25 0 44.5 -17.5t19.5 -42.5q0 -20 -64 -141q-170 -326 -172 -330q-25 -68 -47 -135q-41 -109 -61 -109 t-21 21z" />
<glyph unicode="&#x22;" horiz-adv-x="360" d="M39 653l59 154q10 27 23.5 58.5t40.5 31.5q16 0 30.5 -12.5t14.5 -30.5q0 -20 -70 -115q-33 -45 -76 -98zM166 653l59 154q10 27 23.5 58.5t40.5 31.5q16 0 30.5 -12.5t14.5 -30.5q0 -20 -72 -114.5t-74 -98.5z" />
<glyph unicode="#" horiz-adv-x="946" d="M23 372.5q2 -1.5 0 2.5q18 12 30 24h203q10 23 17.5 44.5t13.5 41.5q10 23 17 45.5t18 44.5q12 31 24 64t25 68h-197l-18 18h2q-2 2 -5 6t-6 6l29 25h213q8 25 15.5 42t13.5 36l8 20t8 21q10 14 14.5 29.5t10.5 31.5q4 12 8 25.5t8 23.5l25 17l32 -33l-81 -213h182 q8 18 10 33q8 23 15.5 44t17.5 42q4 10 9 23.5t11 29.5q4 14 10.5 28.5t10.5 24.5q2 2 5 4t5 4q10 10 21 13l14 -21q2 -4 4 -6t4 -6l-78 -213h191l16 -17q2 -10 8 -14l-26 -24h-211q-29 -80 -55.5 -154t-59.5 -154h203l18 -18h-2q2 -2 4 -5t4 -5l-28 -29h-219 q-8 -20 -16.5 -41.5t-16.5 -42.5q-10 -29 -19.5 -54.5t-19.5 -51.5q-10 -27 -21.5 -55.5t-21.5 -57.5q-8 -18 -14.5 -35.5t-12.5 -34.5l-20 -18q-8 0 -17 4q-4 2 -7 2t-7 2v27l135 356h-188q-8 -23 -16.5 -50.5t-18.5 -55.5q-8 -23 -15.5 -43.5t-15.5 -40.5 q-23 -53 -41 -107q-8 -23 -13 -40t-13 -36l-13 -12q-6 -2 -10 -10l-8 4t-8 2q-2 0 -1 -1t-12 11q0 4 -1 5t-1 5q-2 4 -2 13l136 356h-187q-14 14 -14 16h2q-16 16 -14 14.5zM315 399h181q16 39 29.5 78t29.5 76q14 37 27.5 75t29.5 79h-182q-33 -80 -59.5 -154t-55.5 -154z " />
<glyph unicode="$" horiz-adv-x="659" d="M-55 168l14 35l35 14l31 -12q27 -53 55 -107q31 -45 102 -67l170 436q-53 51 -76 88q-33 53 -32 113q0 104 84 169.5t194 65.5l37 94h47l-39 -100q55 -8 101 -35q61 -35 61 -80l-10 -26l-29 -13q-29 6 -66.5 52.5t-72.5 58.5l-123 -309q68 -63 82 -80q70 -78 70 -168 q0 -143 -115 -231q-106 -82 -254 -82l-39 -101h-47l41 107q-82 16 -141 55q-80 53 -80 123zM225 20l31 -2q100 0 172 63.5t72 164.5q0 57 -35 104q-16 25 -80 84zM319 711q0 -41 25 -73t51 -63l113 291h-23q-68 0 -117 -45t-49 -110z" />
<glyph unicode="%" horiz-adv-x="860" d="M109 0l673 831q-18 -4 -40.5 -8t-39.5 -4q-27 0 -108 25q-41 12 -66 12q-96 0 -182 -94t-86 -191q0 -39 19.5 -65.5t58.5 -26.5q74 0 125 69.5t51 147.5q0 20 -7 51t-9 37l8 17l16 8q29 -8 39 -31.5t10 -56.5q0 -100 -87 -197.5t-187 -97.5q-49 0 -80 30.5t-31 82.5 q0 129 123 241.5t252 112.5q33 0 92.5 -16.5t89.5 -16.5q80 0 136 66l22 -23q-70 -57 -223 -246q-123 -154 -279 -364q-141 -193 -204 -293h-86zM369 106q0 111 128 231t240 120q37 0 54.5 -11.5t17.5 -31.5l-8 -19l-21 -8q-14 0 -42.5 8t-45.5 8q-88 0 -165.5 -92 t-77.5 -184q0 -37 19 -60.5t54 -23.5q76 0 129.5 72.5t53.5 152.5q0 10 -6.5 33t-6.5 33q0 23 23 22q23 0 33 -19.5t10 -45.5q0 -100 -86.5 -200.5t-186.5 -100.5q-117 0 -116 116z" />
<glyph unicode="&#x26;" horiz-adv-x="1196" d="M86 225q0 150 133 283q96 94 266 186q23 150 86 244q84 125 217 125q43 0 73 -20.5t30 -61.5q0 -102 -178 -205q-111 -55 -148 -74l-2 -59l2 -57q65 30 137 30q84 0 131.5 -49t47.5 -135q0 -80 -39 -157.5t-103 -143.5q31 -33 71 -55.5t81 -22.5q51 0 100 40t82 91 l21 -16q-33 -74 -103.5 -129t-146.5 -55q-49 0 -89 22.5t-79 63.5l-4 4q-59 -37 -99 -56q-121 -57 -208 -57q-119 0 -199 72.5t-80 191.5zM193 270q0 -102 71.5 -171.5t171.5 -69.5q113 0 213 67q-66 78 -107.5 178.5t-54.5 210.5q-78 -84 -77 -186q0 -55 26 -115l-24 -12 q-33 53 -33 121q0 141 104 235q-2 8 -2 30v36v65q-125 -72 -196 -157q-92 -111 -92 -232zM569 545q20 -121 49 -205q37 -102 99 -184q43 45 71.5 108.5t28.5 118.5q0 78 -41 130t-117 52q-43 0 -90 -20zM569 741q94 47 150 93q94 73 94 139q0 23 -18.5 37t-40.5 14 q-80 0 -133 -104q-43 -84 -52 -179z" />
<glyph unicode="'" horiz-adv-x="233" d="M33 653l59 154q10 27 23.5 58.5t40.5 31.5q16 0 30.5 -12.5t14.5 -30.5q0 -20 -70 -115q-33 -45 -76 -98z" />
<glyph unicode="(" horiz-adv-x="681" d="M-47 -184q0 434 226.5 901t565.5 747h52q-295 -295 -523 -788q-215 -467 -282 -909h-37z" />
<glyph unicode=")" horiz-adv-x="741" d="M-70 -233q301 297 527 788q211 457 280 909h37l2 -49q0 -438 -224 -897t-570 -751h-52z" />
<glyph unicode="*" horiz-adv-x="636" d="M133 1059q0 29 90 63l8 4q4 2 7.5 3t7.5 4q2 0 6 2q4 0 16 4l-24.5 7t-18.5 7q-92 33 -92 66q0 43 41 43q10 0 31.5 -15.5t50.5 -38.5q10 -6 14 -10t27 -24q-12 66 -21 131q0 39 41 38q41 0 41 -36q0 -27 -6 -57.5t-12 -63.5q-2 -10 -1 -5t-1 -5q27 23 39 30 q31 25 52.5 40.5t31.5 15.5q41 0 41 -43q0 -31 -90 -66l-17.5 -5t-29.5 -9q16 -4 25 -7.5t20 -7.5q92 -35 92 -65q0 -16 -12.5 -30.5t-26.5 -14.5q-12 0 -41 20.5t-68 52.5q-12 8 -18 15q4 -35 10 -64.5t12 -64.5v-2q0 -39 -41 -39q-14 0 -27.5 11t-13.5 28q0 25 6.5 56.5 t12.5 64.5q2 10 1 5t1 5q-10 -10 -20.5 -18.5t-18.5 -12.5q-68 -57 -84 -57q-41 0 -41 45zM246 1133q2 0 4 2q-2 -2 -2 -1t-2 -1zM313 1139l4 -4z" />
<glyph unicode="+" horiz-adv-x="1021" d="M66 449l28 28h381v369q0 31 33 31q29 0 29 -31v-369h385q29 0 28 -33q0 -29 -28 -28h-385v-408q0 -31 -33 -31q-29 0 -29 31v408h-385z" />
<glyph unicode="," horiz-adv-x="364" d="M29 -115q31 23 63 54q43 39 49 63h-8q-39 0 -39 43q0 29 18.5 53.5t49.5 24.5q47 0 47 -51q0 -49 -55.5 -112.5t-106.5 -90.5z" />
<glyph unicode="-" horiz-adv-x="522" d="M98 254v74h340v-74h-340z" />
<glyph unicode="." horiz-adv-x="342" d="M111 35q0 31 22 59.5t53 28.5q43 0 43 -45q0 -33 -21.5 -60.5t-53.5 -27.5q-43 0 -43 45z" />
<glyph unicode="/" horiz-adv-x="792" d="M-129 -229l1018 1693h76l-1016 -1693h-78z" />
<glyph unicode="0" horiz-adv-x="806" d="M47 184q0 225 248 469t473 244q59 0 102 -14q66 -23 66 -70l-10 -25l-23 -10q-18 4 -69.5 41t-110.5 37q-182 0 -375 -240q-184 -229 -184 -417q0 -72 30.5 -116t100.5 -44q156 0 323 213q162 205 162 366q0 57 -32 93q-39 41 -43 57l12 27l28 12q49 -12 74 -54t25 -98 q0 -193 -197 -426q-205 -242 -391 -241q-92 0 -150.5 52t-58.5 144z" />
<glyph unicode="1" horiz-adv-x="411" d="M-20 0q102 197 274 432q154 205 307 410q-86 -57 -184 -112.5t-191 -94.5l-14 47q102 33 234 109q184 106 225 124q20 0 20 -18q-4 -14 -73 -106q-45 -59 -89 -117q-104 -156 -202 -332q-84 -150 -181 -342h-126z" />
<glyph unicode="2" horiz-adv-x="634" d="M-45 45q0 109 172 215q160 92 322 186q174 123 174 269q0 68 -43 115t-113 47q-78 0 -142.5 -53.5t-64.5 -129.5q0 -41 37 -53q37 -8 74 -14l14 -29q-12 -55 -66 -55q-47 0 -77.5 34.5t-30.5 84.5q0 113 97.5 188.5t213.5 75.5q90 0 150.5 -50.5t60.5 -138.5 q0 -143 -162 -262q-57 -43 -315 -176q-180 -94 -203 -160q47 31 101 31q63 0 143 -54.5t111 -54.5q45 0 77 41q23 27 43 80l27 -10q-27 -72 -68 -121q-53 -63 -118 -63q-66 0 -152 67.5t-117 67.5q-53 0 -61 -65.5t-39 -65.5q-45 0 -45 53z" />
<glyph unicode="3" d="M-35 139q0 63 46 105.5t112 42.5q35 0 60.5 -16.5t25.5 -49.5l-16 -31l-35 -16q-45 12 -90 25q-27 0 -42.5 -19.5t-15.5 -48.5q0 -51 46 -79.5t104 -28.5q127 0 227 89t100 216q0 68 -36.5 96.5t-102.5 28.5q-20 0 -33 -2l19 30q117 25 194 80q100 70 101 172 q0 68 -43 107t-111 39q-61 0 -121.5 -41t-60.5 -103l10 -28q37 -12 63.5 -21.5t26.5 -36.5q0 -23 -18.5 -37t-40.5 -14q-39 0 -64.5 29.5t-25.5 70.5q0 100 88 163t192 63q84 0 143.5 -42t59.5 -124q0 -88 -80 -162q-66 -61 -162 -98q59 0 91 -41t32 -105q0 -145 -151 -260 q-139 -104 -291 -104q-80 0 -135 35q-66 41 -66 116z" />
<glyph unicode="4" horiz-adv-x="657" d="M35 301q152 135 252 252q111 127 110 225q0 25 -12 47q-31 55 -33 66l17 31l37 12q37 0 58 -35t21 -74q0 -72 -65.5 -169t-233.5 -261q76 39 162 39q29 0 43 -2q82 135 88 146q82 129 170 233l23 -16q-53 -90 -113 -197q-94 -168 -94 -184l35 -13q33 -14 63 -14 q27 0 46.5 31t35.5 37l12 -4l7 -15q0 -53 -56.5 -79.5t-128.5 -26.5q-31 0 -53 6q-39 -84 -80 -172t-65 -164h-119q51 111 89 183.5t93 166.5l-6 8q-55 16 -109 17q-57 0 -98 -51.5t-65 -51.5l-23 11z" />
<glyph unicode="5" horiz-adv-x="618" d="M-39 145q0 53 39 90t94 37q70 0 84 -59l-12 -35l-31 -14q-10 0 -34.5 6t-37.5 6l-43 -14l-16 -35q0 -45 51 -73.5t101 -28.5q111 0 204 101t93 214q0 59 -38 95t-98 36q-35 0 -68.5 -11t-70.5 -34l-22 14l284 445q41 -25 86 -40.5t88 -15.5q115 0 197 76l23 -16 q-51 -70 -118 -107t-149 -37q-74 0 -149 33l-189 -284q45 27 83 39t83 12q76 0 126 -46t50 -120q0 -143 -130 -265t-273 -122q-82 0 -139 35q-68 41 -68 118z" />
<glyph unicode="6" horiz-adv-x="708" d="M47 162q0 227 240.5 484t466.5 257q49 0 97 -17.5t48 -58.5l-10 -26l-29 -13q-33 4 -89 34t-99 30q-162 0 -342 -246q-172 -236 -172 -405q0 -59 36.5 -104.5t94.5 -45.5q113 0 198.5 102.5t85.5 217.5q0 57 -35.5 99t-91.5 42q-33 0 -68.5 -13.5t-70.5 -35.5l-6 26 q53 41 109.5 66t113.5 25q66 0 105 -43t39 -111q0 -152 -149.5 -295t-301.5 -143q-170 0 -170 174z" />
<glyph unicode="7" horiz-adv-x="489" d="M-41 -225q0 156 104 331q92 147 187 297h-113l19 33h118q18 39 142 174q131 143 159 174q-41 -14 -78.5 -22t-78.5 -8q-55 0 -104.5 16t-71.5 55q6 23 22 45q8 12 31 39h14q16 -49 83 -73.5t130 -24.5q74 0 125 45q37 35 72 51l22 -18q0 -31 -51 -55q-23 -10 -45 -21 q-31 -18 -161 -174t-156 -203h135l-19 -33h-141q-145 -248 -176 -319q-49 -119 -49 -213q0 -41 10 -88q18 -84 18 -86l-18 -37q-12 -6 -24.5 -10t-18.5 -4q-43 0 -64.5 41t-21.5 88z" />
<glyph unicode="8" horiz-adv-x="675" d="M6 182q0 98 74 174q90 92 289 148q-31 41 -47 74q-23 45 -23 86q0 113 93 186.5t210 73.5q51 0 80 -9q55 -16 55 -51l-8 -20l-22 -8q-14 0 -95 26q-37 12 -65 12q-72 0 -125 -44t-53 -115q0 -55 53 -119q27 -33 55 -64q82 27 127 58q72 47 72 110q0 41 -43 49.5t-43 32.5 l14 27l35 10q43 0 69.5 -26.5t26.5 -69.5q0 -82 -78 -143q-59 -47 -151 -76q41 -45 66.5 -97.5t25.5 -107.5q0 -131 -104.5 -224t-237.5 -93q-100 0 -170 49q-80 55 -80 151zM92 215q0 -80 52.5 -134t129.5 -54q98 0 172 65.5t74 161.5q0 61 -39 123q-31 47 -86 96 q-121 -29 -198 -82q-105 -72 -105 -176z" />
<glyph unicode="9" horiz-adv-x="692" d="M-102 63l12 27l27 14q27 -4 79 -36.5t105 -32.5q172 0 356 244q174 231 174 411q0 61 -32.5 107.5t-92.5 46.5q-111 0 -199.5 -109.5t-88.5 -224.5q0 -53 30.5 -90t83.5 -37q45 0 85 23.5t79 62.5l16 -18q-49 -61 -102 -97q-67 -45 -133 -45t-110 42t-44 110 q0 152 146.5 294t300.5 142q78 0 125 -47t47 -125q0 -227 -238.5 -482t-470.5 -255q-57 0 -94 12q-61 20 -61 63z" />
<glyph unicode=":" horiz-adv-x="342" d="M20 35q0 31 22.5 59.5t53.5 28.5q43 0 43 -45q0 -33 -21.5 -60.5t-54.5 -27.5q-43 0 -43 45zM121 295q0 33 21.5 60.5t56.5 27.5q41 0 41 -45q0 -31 -22.5 -59.5t-53.5 -28.5q-43 0 -43 45z" />
<glyph unicode=";" horiz-adv-x="342" d="M-55 -115q31 23 63 54q43 39 49 63h-8q-39 0 -39 43q0 29 18.5 53.5t49.5 24.5q47 0 47 -51q0 -49 -55.5 -112.5t-106.5 -90.5zM109 295q0 33 21 60.5t54 27.5q43 0 43 -43q0 -33 -22.5 -61.5t-52.5 -28.5q-43 0 -43 45z" />
<glyph unicode="&#x3c;" horiz-adv-x="980" d="M94 178v41q10 0 31 4q2 0 4 1t4 1q25 6 49.5 12.5t50.5 12.5q25 6 50.5 12t48.5 12q18 4 36.5 8.5t34.5 8.5q31 8 60 13t55 13q72 20 133 31q4 2 10.5 2t10.5 2q76 16 122 24.5t64 8.5l35 -35q-6 -2 -21.5 -6t-29.5 -8q-29 -8 -70 -19.5t-88 -23.5q-74 -23 -154 -35 q-45 -12 -96 -22q-10 -4 -21.5 -5.5t-21.5 -5.5q-14 -4 -32.5 -7t-39.5 -7l-36 -6l-25 -6q-2 -2 -4 -2q4 0 5 -1t5 -1q20 -2 39 -11q12 -4 43 -8q10 -4 18.5 -5t20.5 -5q33 -8 67.5 -15.5t63.5 -15.5q33 -8 63.5 -15t53.5 -14l24 -6q20 -4 31 -8h-2q84 -23 132 -36t73 -23 l-33 -35h-39z" />
<glyph unicode="=" horiz-adv-x="1021" d="M84 356q0 29 37 29h778q37 0 37 -33q0 -29 -37 -28h-778q-37 0 -37 32zM96 33q0 31 37 30h778q37 1 37 -32q0 -31 -37 -31h-778q-37 0 -37 33z" />
<glyph unicode="&#x3e;" horiz-adv-x="1021" d="M90 350l35 35q18 0 64.5 -8t119.5 -25q6 -2 11.5 -2t11.5 -2q61 -10 133 -31q27 -8 54.5 -13t60.5 -13q16 -4 34.5 -8t36.5 -9q45 -12 99 -24q25 -6 50 -12.5t50 -12.5q2 0 4 -1t4 -1q20 -4 31 -4v-41l-725 -180h-41l-29 35q29 12 76 25.5t127 33.5h-2q8 4 31 8l24 6 q25 6 53.5 13.5t63.5 15.5q31 8 63.5 15.5t67.5 15.5h-2q10 4 20.5 5t20.5 5q18 2 25.5 3t9.5 2t3 1t5 2q18 8 39 11q6 0 8 2q-2 0 -2 2l-25 6q-8 2 -18 3t-18 3q-20 4 -39 7t-33 7q-10 4 -20.5 5t-22.5 6q-27 4 -50.5 10t-45.5 12q-80 12 -154 35q-45 12 -87 23.5t-71 19.5 q-16 4 -30.5 8t-20.5 6z" />
<glyph unicode="?" horiz-adv-x="643" d="M59 35q0 31 22.5 59.5t53.5 28.5q43 0 43 -45q0 -33 -21.5 -60.5t-56.5 -27.5q-41 0 -41 45zM117 250q0 82 98 178l184 168q100 106 101 209q0 117 -113 117q-80 0 -140.5 -64.5t-60.5 -148.5q0 -31 17.5 -59.5t48.5 -28.5q57 0 84 61q18 43 18 111h29l2 -31 q0 -68 -41 -126t-108 -58q-47 0 -80 34.5t-33 81.5q0 111 90 189t203 78q82 0 136 -44.5t54 -125.5q0 -102 -110 -197q-104 -74 -209 -148q-113 -84 -113 -157q0 -41 35 -41q29 0 51.5 33.5t30.5 66.5l26 -6q-10 -59 -41 -106q-41 -60 -92 -60q-29 0 -48 21.5t-19 52.5z" />
<glyph unicode="@" horiz-adv-x="1071" d="M61 147q-8 248 180.5 430.5t428.5 174.5q182 -6 266 -121q78 -98 72 -250q-8 -133 -58 -240q-104 -211 -239 -184q-55 8 -78.5 56t-9.5 132q-39 -51 -91 -96q-61 -53 -135 -57q-43 -2 -72.5 19.5t-43.5 66.5q-18 150 121 303.5t298 177.5q16 4 37 4t40.5 -3t35.5 -10 t25 -20q4 -6 2 -14t-6.5 -15t-11.5 -10.5t-15 -1.5l-82 19q-41 2 -74 -6q-111 -25 -202 -141.5t-70 -225.5q4 -29 19.5 -45t50.5 -16q96 14 182 166q51 100 94 188l76 14q-35 -84 -62 -129q-70 -178 -63 -241q6 -66 43 -72q98 -10 194 150q43 109 50 231q0 135 -68 223 q-72 102 -227 98q-168 2 -359.5 -162.5t-189.5 -394.5q2 -129 63 -206q63 -88 185 -93q72 -2 110.5 13.5t97.5 72.5l31 -14q-55 -66 -113.5 -86t-123.5 -20q-145 -2 -227.5 95t-80.5 240z" />
<glyph unicode="A" horiz-adv-x="1769" d="M0 115l14 37l37 14q31 -10 109 -103q62 -73 192 -73h4q156 0 293 84q115 72 225 207q78 96 177 256q-53 29 -67.5 42t-39.5 64l35 62q33 10 73 13t66 3h47q137 213 207 301q133 170 268 262q164 113 340 113q66 0 116 -11.5t106 -42.5l32 -53l-14 -35l-33 -14 q-37 8 -133 66q-78 45 -151 45q-190 0 -377 -236q-80 -100 -250 -401l248 -6h73q121 199 183 288q143 209 213 248l12 -10q-154 -260 -307 -520q158 18 188 88q20 45 64 63l32 -14q12 -25 13 -33q0 -80 -125 -114q-86 -25 -191 -25l-157 -303q59 -31 97 -76t38 -104 q0 -100 -98 -158q-82 -47 -191 -47q-47 0 -72 8q-43 14 -43 51q0 45 95 221q55 98 65 117l-266 107q-160 -248 -338 -381q-217 -162 -477 -162q-113 0 -197 31q-113 41 -135 131zM1024 629q0 -14 9 -28.5t38 -31.5l68 107h-21q-49 0 -71.5 -12.5t-22.5 -34.5zM1165 524 l265 -104l149 258h-326zM1395 80q0 -18 17.5 -27.5t37.5 -9.5q66 0 120 46t54 112q0 49 -32.5 86t-84.5 59q-33 -70 -63 -139q-49 -111 -49 -127z" />
<glyph unicode="B" horiz-adv-x="1695" d="M0 10l37 53q29 10 59.5 14.5t61.5 4.5q27 0 91 -4t70 -4q172 0 299 86q106 72 213 233q-249 90 -249 357q0 270 249 452q227 166 508 166q94 0 184.5 -23.5t164.5 -74.5q106 26 200 26q98 0 157.5 -23.5t100.5 -96.5l-12 -31l-29 -12q-70 49 -133 84q-70 40 -143 40h-4 q-23 0 -49.5 -3t-57.5 -11q111 -96 111 -252q0 -109 -59.5 -200t-155.5 -144q47 -84 47 -170q0 -195 -152.5 -341t-351.5 -146q-70 0 -122 24.5t-77 83.5q-70 -59 -161.5 -86.5t-194.5 -27.5q-57 0 -242 20q-92 10 -145 10q-37 0 -86 -13t-92 -26l-27 11zM426 51 q55 -16 106.5 -22t116.5 -6q168 0 297 106l-4 43q0 39 17.5 68.5t54.5 40.5l26 -13q4 -16 11 -30q0 -35 -16.5 -63t-49.5 -54q16 -49 63.5 -71.5t104.5 -22.5q168 0 284.5 138t116.5 310q0 72 -26 131q-65 -24 -132 -24h-5q-57 0 -99 18q-55 25 -55 74q0 45 45 66.5t98 21.5 q59 0 109.5 -21.5t99.5 -64.5q74 41 119 114.5t45 159.5q0 78 -33.5 146.5t-95.5 120.5q-172 -55 -297 -197q-84 -96 -190 -295q-129 -244 -179 -313q47 0 87 13t106 44l12 -29q-109 -63 -229 -63q-100 -129 -223 -211q-135 -90 -285 -115zM651 715q0 -106 49.5 -184 t149.5 -105q147 268 188 334q111 174 224 278q138 127 331 203q-139 86 -303 86q-254 0 -446.5 -180t-192.5 -432zM1282 666q0 -31 34 -41.5t73 -10.5q68 0 120 23q-23 33 -70.5 52.5t-92.5 19.5q-25 0 -44.5 -10.5t-19.5 -32.5z" />
<glyph unicode="C" horiz-adv-x="1511" d="M477 1016q0 117 103 207q92 80 217 104l6 -24q-96 -43 -156 -117q-67 -83 -67 -177q0 -97 59 -157q51 -53 149 -80q188 225 420 381q285 193 523 193q96 0 159 -37q82 -47 82 -138q0 -111 -96 -188.5t-211 -77.5q-41 0 -79 11.5t-66 33.5q-102 -129 -295 -184 q-147 -43 -355 -43q-66 -96 -108 -203q-49 -123 -49 -225q0 -111 75.5 -172.5t188.5 -61.5q145 0 287 101q157 112 157 250q0 49 -30.5 81.5t-77.5 32.5q-57 0 -107 -39q-37 -29 -76 -86l-24 13q33 82 100 137q76 61 160 61q59 0 95 -37.5t36 -99.5q0 -174 -209 -336 q-198 -153 -381 -153h-2q-139 0 -231 75q-98 82 -99 220q0 121 56 243q43 96 133 217q-113 20 -193 88q-94 81 -94 187zM895 756l68 -2q158 0 297 53t235 166q-33 43 -33 88q0 29 14.5 50.5t41.5 21.5q25 0 37 -19.5t12 -48.5q0 -47 -29 -86q23 -20 53.5 -29.5t63.5 -9.5 q90 0 162.5 59.5t72.5 147.5q0 76 -61.5 116t-140.5 40q-203 0 -449 -185q-219 -164 -344 -362z" />
<glyph unicode="D" horiz-adv-x="1763" d="M137 12q0 37 47 51.5t119 14.5q25 0 65 -2t48 -2q154 0 280 51q143 57 228 172q-141 39 -232.5 151t-91.5 257q0 276 242 469q225 180 510 180q227 0 381 -121q168 -133 168 -356q0 -375 -326 -639q-305 -248 -688 -248q-82 0 -248 16.5t-248 16.5q-59 0 -133 -21 q-41 -12 -82 -25zM592 57q49 0 213 -20q82 -10 131 -10q346 0 588.5 236.5t242.5 582.5q0 211 -124.5 336t-337.5 125q-256 0 -435.5 -166t-179.5 -420q0 -133 67.5 -243.5t192.5 -143.5q29 43 60 92q23 37 94 162q-47 25 -72.5 63.5t-25.5 89.5q0 115 129 170q96 41 231 41 q53 49 94 74q57 35 113 35q8 0 20.5 -5t18.5 -7l14 -29q0 -61 -98 -86q-57 -14 -148 -14q-49 -61 -92 -158q-12 -27 -69 -168l26 -2q51 0 107 29q41 20 94 65l10 -24q-100 -104 -252 -105q-29 -63 -68.5 -124.5t-91.5 -119.5l27 -2q49 0 100.5 12.5t108.5 36.5l6 -28 q-59 -29 -124.5 -40t-145.5 -11q-176 -177 -424 -224zM1079 729q0 -59 49 -98q43 76 97.5 154.5t109.5 136.5q-109 -10 -170 -45q-86 -50 -86 -148z" />
<glyph unicode="E" horiz-adv-x="1456" d="M379 922q0 150 125 241q115 84 270 84q109 0 201 -39l-12 -26q-77 28 -157 28h-5q-133 0 -233.5 -88t-100.5 -221q0 -88 55.5 -148.5t145.5 -88.5q84 86 203.5 148.5t242.5 82.5l-6 51q0 168 190 291q170 109 349 109q102 0 176 -39q94 -49 94 -144q0 -98 -74 -155 q-66 -51 -166 -52q-41 0 -73 9q-61 -166 -306 -271q-217 -92 -446 -92q-66 0 -127 10q-104 -127 -104 -286q0 -131 78.5 -208t211.5 -77q139 0 283 92q162 104 162 236q0 47 -35 79.5t-84 32.5q-37 0 -81 -20.5t-99 -79.5l-17 20q45 66 107 103q70 43 141 43q57 0 97 -36 t40 -95q0 -176 -217 -314q-191 -122 -380 -122h-3q-139 0 -236 77.5t-97 214.5q0 96 39.5 189.5t107.5 173.5q-115 37 -180 100q-80 78 -80 187zM750 643q23 -4 56 -6t64 -2q209 0 400 82q223 96 303 260q-68 39 -68 106l15 37l34 15q29 0 46.5 -17.5t17.5 -68.5 q0 -33 -6 -56q20 -6 30.5 -8t30.5 -2q61 0 109.5 44t48.5 106q0 82 -69.5 126t-155.5 44q-154 0 -285 -97q-143 -104 -143 -254l6 -53q43 0 81 -15.5t38 -52.5l-19 -30q-25 -12 -43 -13q-37 0 -67.5 20.5t-47.5 53.5q-115 -10 -208 -71q-63 -41 -168 -148z" />
<glyph unicode="F" horiz-adv-x="1419" d="M41 195q0 76 53 129t129 53q20 0 34.5 -5t43.5 -18l31 -55l-17 -35l-41 -14q-14 2 -46.5 12t-49.5 10q-6 0 -34.5 -11t-32.5 -13l-27 -66q0 -98 111 -155q94 -49 200 -50q129 0 248 47.5t213 135.5q-49 31 -77.5 77t-28.5 101q0 72 45 125t116 82l11 -27q-61 -27 -97 -67 q-41 -49 -41 -111q0 -51 27 -92t72 -66q57 55 178 221q135 186 135 232l-8 10q-43 -14 -96 -14t-92 18.5t-54 63.5l21 39q43 16 57 16q45 0 93 -25.5t79 -64.5l27 4q86 143 151 229q102 137 201 209q125 92 252 92q43 0 69.5 -8.5t26.5 -42.5l-43 -39q-16 2 -68.5 13.5 t-76.5 11.5q-115 0 -232 -160q-63 -86 -149 -264q41 12 92 18.5t94 6.5q51 0 84 -9.5t33 -46.5q-10 -20 -12 -28l-27 -11q-96 23 -191 45q-41 0 -57 -2t-35 -10l-63 -127q20 -53 20 -119q0 -147 -86 -231t-225 -84h-25q-18 4 -26 4q-123 -66 -246 -129q-129 -57 -276 -57 q-137 0 -240 55q-127 68 -127 197zM711 893q0 213 262 344q217 109 452 109q84 0 377 -33q145 -16 228 -17q47 0 100 13q78 18 158 37q33 -10 32 -35q0 -39 -47 -58.5t-143 -19.5q-115 0 -277 22q-369 51 -462 52q-207 0 -394 -93q-231 -115 -231 -299q0 -10 5 -28.5 t7 -24.5l31 -22q10 4 37.5 21.5t44.5 21.5l31 -13l12 -32q-18 -74 -96 -74q-55 0 -91 38t-36 91zM963 158l34 -4q117 0 191 87t74 208q0 33 -11 73q-63 -109 -131 -198q-102 -139 -157 -166zM1018 700q0 -25 20.5 -31.5t51.5 -6.5q18 0 39.5 3t33.5 5q-18 23 -49.5 40 t-58.5 17q-37 0 -37 -27z" />
<glyph unicode="G" horiz-adv-x="1648" d="M477 199q0 102 67.5 173.5t172.5 71.5q63 0 117 -30q66 -39 65 -97l-14 -34l-33 -15q-29 8 -68 68.5t-98 60.5q-74 0 -124 -60.5t-50 -135.5q0 -131 121 -197q98 -53 244 -53q236 0 405 180q123 168 246 338q133 182 274 182q25 0 40.5 -8t15.5 -31l-9 -20l-18 -8 q-25 4 -48.5 8t-27.5 4q-90 0 -186 -176q-133 -242 -221 -328q-182 -178 -471 -178q-156 0 -265 61q-135 78 -135 224zM725 948q0 135 104.5 223.5t241.5 88.5q57 0 95 -7.5t81 -29.5l-12 -27q-70 29 -143 29q-117 0 -201 -82t-84 -201q0 -113 98 -174q86 -53 205 -53 q92 209 350 403q275 205 498 205q78 0 135 -33q72 -41 72 -114q0 -98 -87 -164t-188 -66q-76 0 -135 39l-4 -4q-96 -127 -235.5 -201.5t-305.5 -95.5q-6 -23 -12 -51.5t-6 -50.5q0 -45 26.5 -79t71.5 -34q84 0 257 140.5t263 140.5q6 0 19.5 -4.5l25.5 -8.5l17 -30l-29 -27 q-16 2 -29.5 5t-35.5 3q-88 0 -261.5 -140t-279.5 -140q-74 0 -117 47t-43 120q0 53 19 103q-147 0 -248 59q-123 72 -123 211zM1225 719q164 27 284 90q144 74 224 195q-35 35 -35 81q0 20 8 36t27 16q29 0 37 -25t8 -43q0 -29 -9 -53q53 -37 109 -37q84 0 147 47 q72 53 72 135q0 63 -50 94t-118 31q-199 0 -418 -192q-195 -170 -286 -375z" />
<glyph unicode="H" horiz-adv-x="1830" d="M0 125l14 39l35 14l35 -12q76 -102 136.5 -136t185.5 -34q150 0 304 67.5t238 182.5q-115 47 -179 148.5t-64 230.5q0 319 309 551q287 215 616 215q106 0 164 -13q90 -20 137 -80q0 -12 -12 -24t-25 -12q-45 8 -150.5 48t-176.5 40q-307 0 -543 -240t-236 -549 q0 -98 45.5 -178t135.5 -113q23 18 80 105q76 113 81 121l-63 36q-6 12 -12 25q-12 25 -13 27q0 47 46.5 62.5t111.5 15.5h33q174 287 233 362q176 225 330 225q14 0 27.5 -4t19.5 -6l17 -27l-31 -26q-27 4 -54.5 8t-31.5 4q-123 0 -299 -324q-10 -18 -111 -223 q88 0 221.5 -6t135.5 -6q123 219 182 309q131 203 252 307q159 140 317 140q18 0 55 -10.5t41 -10.5l37 -51l-12 -29l-31 -14q-57 23 -82 31q-51 18 -86 18q-154 0 -309 -219q-68 -94 -199 -354l-53 -105l-2 -6q63 0 123 41q74 51 84 53q10 0 22.5 -10t12.5 -22 q-35 -70 -142.5 -83.5t-117.5 -17.5l-4 -4q-39 -66 -74 -124t-86 -134q68 -53 68 -137q0 -96 -70 -151.5t-168 -55.5h-279q-23 10 -30 12l-13 29l50 39q121 12 210 88q74 61 148 186q-74 31 -193 68q-80 25 -118 37q-37 -66 -101 -135q-49 -49 -71 -72q20 -2 35.5 -3 t23.5 -1q41 0 75 6t83 18l12 -28q-80 -27 -160 -27q-49 0 -98 6q-127 -127 -306 -195.5t-366 -68.5q-119 0 -207 31q-119 41 -143 135zM1106 573q0 -16 11 -27t32 -22q8 8 31 49q14 27 30 54h-10q-37 0 -65.5 -10.5t-28.5 -43.5zM1241 485q150 -41 158 -43q92 -29 151 -59 q61 102 121 221q-61 0 -133 4q-178 10 -221 10q-25 -45 -37 -67q-20 -39 -39 -66zM1290 68q27 0 89.5 -8.5t80.5 -8.5q76 0 131.5 43t55.5 117q0 61 -54 102q-88 -102 -135 -141q-72 -61 -168 -104z" />
<glyph unicode="I" horiz-adv-x="1351" d="M0 186q0 66 45 115t111 49q14 0 33.5 -6t37.5 -12l29 -51l-12 -29l-25 -14l-78 22l-63 -29q-10 -23 -15 -34q-12 -29 -12 -35q0 -92 103 -144q82 -41 186 -41q152 0 307 66q168 72 250 186q-100 53 -154.5 153.5t-54.5 219.5q0 324 316 551q287 207 622 207 q117 0 211 -21q145 -31 168 -96l-10 -22l-25 -11q-45 0 -244 72q-96 35 -167 35q-307 0 -548 -236.5t-241 -541.5q0 -92 37 -169t113 -114q100 86 251 360q170 307 263 414q170 199 374 199q27 0 54.5 -12.5t42.5 -34.5l-11 -23l-22 -8q-41 10 -69.5 16.5t-53.5 6.5 q-123 0 -268 -197q-74 -100 -248 -410q-150 -266 -223 -340l71 -6q150 0 279 82l8 -29q-133 -88 -285 -88q-51 0 -104 13q-156 -125 -297 -185q-164 -69 -344 -69q-129 0 -223 55q-115 68 -115 186z" />
<glyph unicode="J" horiz-adv-x="1617" d="M0 -43q0 78 57.5 133t135.5 55q23 0 50 -10t42 -29l14 -40l-12 -35l-33 -15l-90 19l-74 -29q-2 -6 -14.5 -34.5t-12.5 -34.5q0 -106 127 -162q96 -43 218 -43q213 0 407 131q180 121 297 317q-117 51 -176 157.5t-59 242.5q0 356 329 596q299 217 668 217q125 0 201 -19 q113 -29 170 -98q0 -33 -33 -33q-33 8 -203 66q-121 41 -215 41q-324 0 -571.5 -238t-247.5 -559q0 -113 38 -200t126 -136q43 57 239 401q168 293 297 435q187 204 379 204h2q59 0 90 -47l-32 -28q-31 6 -67 13t-58 7q-111 0 -222 -125q-82 -94 -168 -264 q-57 -119 -112 -238q-121 -199 -242 -395l76 -8q88 0 173 29.5t165 85.5l16 -31q-164 -117 -358 -117q-55 0 -98 8q-158 -199 -365 -319q-230 -133 -463 -133q-141 0 -252 59q-139 74 -139 203z" />
<glyph unicode="K" horiz-adv-x="1929" d="M0 123l14 37l37 14q74 -86 145.5 -133t215.5 -47q98 0 305 80q233 90 233 168l-12 6q-104 43 -168.5 145.5t-64.5 235.5q0 319 311 549q287 211 616 211q104 0 168 -13q111 -23 133 -80l-12 -24l-25 -10q-25 6 -159 53q-94 33 -164 33q-305 0 -545 -240t-240 -547 q0 -104 45.5 -181t139.5 -114q109 176 217 352q178 289 295 424q176 205 305 205q47 0 68 -37l-29 -26q-25 4 -50.5 8t-29.5 4q-84 0 -219 -199q-53 -76 -248 -411q-150 -258 -231 -338l53 -4h24q59 0 127 24.5t125 61.5l17 -25q-55 -43 -134 -66.5t-157 -23.5q-41 0 -82 6 q-129 -121 -307 -192.5t-357 -71.5q-168 0 -254 46t-106 120zM1346 549l16 35l106 -6q68 0 117 18t76 72q-45 10 -78 40.5t-33 73.5q0 10 6.5 23.5t12.5 25.5l45 21l47 -16q49 -45 49 -119v-12q-4 -8 -4 -11q152 33 295 209q117 154 227 316q143 172 330 172q18 0 31.5 -2.5 t52.5 -14.5l31 -41l-15 -33q-16 -14 -45 -14q-23 0 -43 4q-70 14 -71 15q-131 0 -271 -166q-100 -162 -237 -324q-144 -151 -293 -151h-2q-45 -88 -129 -107q63 -47 63 -121q0 -47 -20 -102q-51 -139 -51 -174q0 -41 26.5 -62.5t69.5 -21.5q47 0 91 26.5t81 67.5l26 -12 q-51 -70 -127.5 -120t-152.5 -50q-47 0 -78 22.5t-31 69.5q0 39 60 182q28 68 28 110q0 93 -55 131t-151 46zM1602 768q0 -33 30 -53q18 -12 37 -17l4 21q0 27 -12 51.5t-37 24.5q-23 0 -22 -27z" />
<glyph unicode="L" horiz-adv-x="1591" d="M0 4q14 37 139 66q18 4 250 47q156 29 207 59q96 59 180 168q59 76 137 207l5 4q-98 0 -180.5 23.5t-153.5 74.5q-57 41 -89 97.5t-32 126.5q0 156 137 249q121 84 285 84q102 0 199.5 -29.5t191.5 -86.5q115 115 248 182q150 76 295 76q121 0 194 -49q88 -59 88 -175 q0 -117 -96 -196.5t-217 -79.5q-41 0 -77 8t-69 29q-74 -150 -253 -238q-150 -74 -345 -92q-111 -184 -258 -307q-170 -141 -360 -174q190 -35 248 -43q147 -23 252 -23q229 0 344 68q143 84 143 285q0 6 12 36l35 15l41 -21q6 -29 15 -57q0 -193 -246 -291 q-182 -74 -410 -74q-84 0 -205 15q-268 32 -342 32h-4q-59 0 -149 -25.5t-123 -29.5zM547 874q0 -143 129 -221q107 -65 256 -65h4q96 168 143 250q88 147 172 231q-78 47 -170 74.5t-180 27.5q-143 0 -248.5 -78.5t-105.5 -218.5zM1065 596q143 0 310 93t241 216 q-47 43 -47 96q0 20 14 41t37 21q25 0 38 -22.5t13 -49.5q0 -14 -3 -30.5t-11 -40.5q53 -35 127 -35q96 0 164.5 62.5t68.5 158.5t-67.5 149.5t-165.5 53.5q-119 0 -241 -59.5t-191 -155.5l-17.5 -17.5t-7.5 -15.5l4 -4q31 -25 45 -37q31 -25 45 -39l-22 -23q-16 20 -39 37 t-45 33l-6 4l-4 -4q-45 -57 -89.5 -142t-82.5 -163q-16 -31 -32 -62.5t-34 -60.5z" />
<glyph unicode="M" horiz-adv-x="2301" d="M0 131l14 37l35 14q18 -6 107 -108q72 -82 215 -82q135 0 268 71q111 59 221 173q-96 47 -152.5 146t-56.5 210q0 342 330 567q295 203 653 203q102 0 158 -10q98 -18 131 -74q0 -25 -27 -29q-111 33 -163 47q-100 29 -174 29q-305 0 -555 -225q-258 -233 -259 -537 q0 -94 35 -171t111 -120q25 31 229 365q168 272 295 410q181 196 340 196h2q12 0 28.5 -3.5t33.5 -8.5l24 -37l-24 -27q-23 6 -45.5 12.5t-28.5 6.5q-135 0 -197 -309q-39 -338 -45 -388l-16 -143l-19 -110l-2 -13l7 8l75 119q139 217 279 436q184 268 360 410 q225 182 465 182q55 0 88 -8t49 -12l52 -60l-31 -34q-29 6 -95.5 31.5t-121.5 25.5q-289 0 -574 -348q-221 -326 -442 -651q-240 -350 -410 -351q-45 0 -67 41l12 29q14 8 35 8q6 0 53 -10q18 -4 37 -4q10 0 27.5 7t33.5 13q66 53 95 299q43 369 65 459q66 270 219 381 q-113 -27 -260 -221q-88 -117 -254 -389q-156 -258 -225 -334l86 -12q100 0 190 61l17 -23q-47 -39 -96.5 -54t-110.5 -15q-20 0 -37.5 1t-79.5 9q-92 -117 -240 -188.5t-298 -71.5q-125 0 -217 33q-125 45 -152 141zM1810 113q0 152 139.5 437.5t315.5 487.5 q205 233 361 234q29 0 57 -12l22 -29l-8 -21l-20 -8q-14 2 -46 14.5t-48 12.5q-109 0 -277 -225q-145 -195 -269 -461.5t-124 -382.5q0 -98 92 -99q61 0 121 43q43 31 94 93l25 -17q-53 -80 -131 -135q-90 -63 -177 -63q-127 0 -127 131z" />
<glyph unicode="N" horiz-adv-x="1753" d="M0 125l14 35l37 14q20 -6 103 -104q70 -82 219 -82q115 0 272 73q174 82 215 175q-100 45 -154.5 143t-54.5 213q0 332 328 561q297 207 643 207q111 0 164 -10q100 -18 135 -76q0 -29 -29 -29q-53 0 -116 21q-158 51 -207 51q-322 0 -570 -221q-256 -229 -256 -549 q0 -86 36 -161t108 -118q35 47 229 365q168 274 293 409q182 197 344 197q12 0 30.5 -4t35.5 -8l22 -37q0 -27 -29 -27q-12 0 -28 4q-41 10 -43 11q-102 0 -168 -211q-47 -150 -76 -422q-14 -162 -29 -322q39 55 269 459q186 330 336 483q217 225 454 226q23 0 45.5 -5.5 t57.5 -15.5l39 -49l-17 -37q-20 -14 -53 -14q-23 0 -70 8t-63 8q-260 0 -508 -342q-193 -317 -385 -635q-219 -342 -412 -342q-45 0 -65 41l12 27q16 10 39 10q10 0 57 -10q18 -4 35 -4q10 0 27.5 7t31.5 13q57 51 91 314q47 373 73 477q70 268 219 350q-111 -12 -260 -211 q-78 -104 -258 -406q-156 -260 -221 -331q14 0 42 -5.5t34 -5.5q43 0 85 10.5t107 53.5l21 -25q-51 -37 -98.5 -52t-102.5 -15q-45 0 -112 10q-123 -123 -254 -188q-148 -74 -306 -74q-117 0 -208 35q-121 45 -150 137z" />
<glyph unicode="O" horiz-adv-x="1703" d="M410 911q0 150 139 240q121 78 278 78q23 0 52.5 -1t74.5 -16l-14 -26q-35 6 -49 7t-41 1q-143 0 -246 -78q-112 -85 -112 -225q0 -88 51 -149.5t137 -88.5q152 256 440 463q315 225 586 225q104 0 174 -45q82 -53 82 -155q0 -68 -32 -127.5t-89 -104.5 q0 -332 -304 -629.5t-638 -297.5q-150 0 -242 84t-92 233q0 86 27 168q18 53 70 156q-106 35 -175 104q-77 80 -77 184zM696 315q0 -129 78 -198.5t209 -69.5q291 0 538.5 262t247.5 553q-53 -33 -104.5 -48t-112.5 -15q-106 0 -188 51q-74 -129 -217 -195 q-129 -59 -291 -59h-51q-23 4 -31 4q-29 -41 -53.5 -136t-24.5 -149zM791 633l65 -2q158 0 277 53q133 59 204 186q-45 35 -45 95l15 39l30 16q27 -6 39.5 -26.5t12.5 -49.5q0 -27 -4.5 -40t-6.5 -19q33 -27 80 -39t92 -12q123 0 219 67q-12 76 -49 123q-45 55 -116 55 q-29 0 -61 -12t-58 -29l-23 6q20 53 71.5 86t108.5 33q80 0 134 -59q47 -53 59 -137q57 49 57 133q0 96 -68.5 146t-168.5 50q-240 0 -504 -225q-223 -190 -360 -438z" />
<glyph unicode="P" horiz-adv-x="1503" d="M0 10q14 39 57 53.5t105 14.5q23 0 64.5 -2t56.5 -2q143 0 256 41q127 47 217 143q-135 55 -211 168t-76 260q0 299 254 490q231 174 539 174q211 0 360 -99q172 -113 172 -313q0 -203 -168 -344q-160 -135 -364 -135q-59 0 -111.5 10t-106.5 37q-69 -144 -178 -242 q41 -8 95 -8q20 0 61 2t61 2l9 -29q-37 -6 -53.5 -8t-51.5 -2q-31 0 -69.5 4t-83.5 11q-78 -63 -168.5 -110.5t-182.5 -64.5q82 -20 193.5 -30.5t208.5 -10.5q209 0 385 121l16 -24q-90 -70 -198.5 -103.5t-229.5 -33.5q-92 0 -223 12q-277 26 -367 26h-6q-51 0 -128 -19 t-97 -24zM563 653q0 -141 51 -217q39 -57 166 -147q33 41 72 100q8 14 106 180q-37 39 -56 81t-19 91q0 129 135 201q111 59 252 59q41 37 96 70q68 39 111 39q23 0 35 -7t12 -28q0 -55 -92 -84q-66 -20 -140 -20q-82 -86 -133 -204t-100 -230q86 -37 180 -37 q186 0 317.5 125t131.5 309t-142 289q-127 94 -317 94q-272 0 -469 -194.5t-197 -469.5zM944 700q0 -29 7 -48t28 -48q57 94 119.5 191.5t138.5 173.5q-106 0 -199.5 -83t-93.5 -186zM1329 1006q41 0 74 8q55 14 55 41q0 12 -16 12q-27 0 -56.5 -18.5t-56.5 -42.5z" />
<glyph unicode="Q" horiz-adv-x="1517" d="M342 291q0 231 190 483q180 238 450.5 401.5t502.5 163.5q129 0 217 -61q100 -72 100 -197q0 -106 -60.5 -199.5t-156.5 -156.5q-47 -174 -196 -352q-141 -168 -310 -264q47 -76 74 -103q54 -53 113 -53q41 0 74.5 20.5t64.5 59.5l20 -19q-37 -57 -82 -92 q-55 -43 -114 -43q-74 0 -135 60q-49 47 -90 127q-164 -80 -340 -80q-139 0 -230.5 83t-91.5 222zM473 313q0 -127 75 -191.5t206 -64.5q55 0 116 15q25 6 113 32q-57 117 -65 129q-41 72 -91 115q-4 -2 -36.5 -10t-42.5 -8q-12 0 -30 6l-24 8l-20 35q0 23 15.5 31t39.5 8 q25 0 49.5 -9.5t55.5 -23.5q63 35 107 100.5t44 137.5v24q-35 16 -57.5 39t-30.5 57l10 27q12 4 27 10q27 0 47 -26q14 -18 27 -49q109 -55 241 -56q68 0 137.5 19.5t139.5 54.5q8 31 14 68.5t6 70.5q0 92 -39 154q-46 71 -133 71h-2q-27 0 -52.5 -11t-53.5 -32l-23 13 q29 49 74 78.5t100 29.5q106 0 158 -82q43 -68 43 -178q0 -25 -3 -53.5t-11 -71.5q116 97 116 255q0 122 -87 190.5t-210 68.5q-293 0 -621.5 -341t-328.5 -640zM864 369q57 -39 109 -105q31 -39 86 -125q162 98 277.5 232.5t174.5 306.5q-68 -35 -150.5 -55.5t-160.5 -20.5 q-88 0 -182 33q0 -82 -41 -154.5t-113 -111.5z" />
<glyph unicode="R" horiz-adv-x="1830" d="M0 123l12 35l31 12q66 -68 142.5 -112t209.5 -46h10q168 0 294 69q130 71 231 179q-135 55 -213 174t-78 266q0 293 262 482q236 170 541 170q201 0 346 -97q166 -111 166 -305q0 -166 -126 -296t-296 -154q0 -49 -11.5 -165t-11.5 -153q0 -49 17 -98q2 0 20 -10 q37 -18 41 -19q39 0 69 18.5t58 53.5l23 -21q-45 -53 -92 -86q-58 -40 -114 -40h-3q-59 0 -88 36.5t-29 96.5q0 78 43 237q27 96 33 144q-10 -4 -31.5 -4.5t-30.5 -0.5q-106 0 -196 39q-35 -70 -88 -137q-45 -57 -111 -123q55 -10 100 -10q76 0 148 25l12 -29 q-70 -31 -164 -31q-25 0 -53.5 3t-73.5 12q-176 -145 -262 -203q-143 -73 -307 -73q-20 0 -41 1q-133 0 -221 27q-131 39 -168 133zM735 639q0 -113 58.5 -211t162.5 -137q49 66 97 141q59 100 90 150q-82 70 -82 176q0 139 133 200q98 45 254 46q45 41 96 71q63 37 113 37 q49 0 49 -39q0 -57 -96 -84q-66 -18 -144 -18q-61 -63 -120.5 -210t-102.5 -204q39 -18 81 -26.5t89 -8.5l78 6v13q2 25 -16 55l-41 18q-35 -6 -68 -12q-33 0 -33 35l19 35q23 6 45 12q59 0 92 -42t41 -105q137 33 226 148.5t89 260.5q0 174 -127 277q-119 94 -299 94 q-285 0 -484.5 -195.5t-199.5 -482.5zM1118 727q0 -59 43 -113q37 66 89.5 143t158.5 212q-23 -2 -33 -4q-102 0 -180 -68t-78 -170zM1501 1004q37 0 93.5 14t56.5 41q0 16 -21 16q-31 0 -69 -24q-27 -16 -60 -47z" />
<glyph unicode="S" horiz-adv-x="1206" d="M137 332q0 125 86 211t211 86q92 0 178 -45q0 164 138 258q-45 76 -45 151q0 152 151 258q137 96 295 97q113 0 197 -56q98 -63 98 -172q0 -94 -73 -149.5t-169 -55.5q-55 0 -104 19l8 27l66 -7q74 0 121.5 40t47.5 112q0 92 -75.5 144.5t-171.5 52.5q-115 0 -214.5 -77 t-99.5 -190q0 -43 17.5 -79.5t52.5 -69.5q18 2 34.5 5t39.5 3q90 0 163.5 -46t102.5 -130l-29 -10q-33 70 -97.5 111.5t-141.5 41.5l-45 -4q152 -160 176 -192q88 -119 88 -240q0 -201 -178 -330q-161 -116 -365 -116h-4q-180 0 -309 83q-150 96 -150 269zM215 365 q0 -156 120 -254.5t279 -98.5q168 0 293 92q139 102 140 265q0 100 -103 241q-57 78 -176 203q-66 -39 -95.5 -103.5t-29.5 -146.5q35 -25 59.5 -56.5t24.5 -68.5l-12 -39l-33 -14q-39 0 -57 49q-10 29 -17 82q-66 80 -182 80q-92 0 -151.5 -67.5t-59.5 -163.5z" />
<glyph unicode="T" horiz-adv-x="1691" d="M68 195q0 76 53 127t131 51q10 0 32.5 -7.5t41.5 -13.5l30 -51l-16 -37l-37 -16l-106 24l-62 -24q-12 -27 -19 -43.5t-7 -20.5q0 -102 112 -157q90 -45 205 -45q334 0 584 317q186 295 374 592q219 317 478 317q12 0 28.5 -4t32.5 -8l23 -37l-13 -29l-28 -12 q-45 12 -68 17q-43 10 -70 10q-147 0 -319 -311q-252 -457 -356 -578q-268 -313 -650 -313q-141 0 -243 53q-131 68 -131 199zM688 858q0 223 285 367q236 118 481 118h4q68 0 293 -24q113 -12 178 -12q68 0 156 22q131 33 151 37l29 -10q4 -14 10 -29q0 -51 -82 -76 q-55 -16 -125 -16q-102 0 -247 22q-332 51 -414 52q-193 0 -397 -103q-244 -123 -244 -297q0 -45 29.5 -74.5t74.5 -29.5q63 0 131 55q51 43 97 113l24 -12q-39 -86 -118 -156q-90 -80 -177 -80q-57 0 -98 37t-41 96z" />
<glyph unicode="U" horiz-adv-x="1603" d="M342 852q0 217 270 371q233 133 467 133q104 0 172 -13q127 -23 127 -81l-12 -29l-25 -12q-43 6 -170 49q-102 35 -180 35q-184 0 -362 -109q-205 -125 -205 -299q0 -45 31.5 -79t79.5 -34q37 0 68.5 15.5t62.5 46.5l20 -25q-47 -49 -94 -76q-57 -34 -116 -34h-3 q-53 0 -92 43t-39 98zM391 233q0 195 191 357q178 129 356 260q192 159 192 338q0 12 13 31l28 12l37 -19q6 -25 15 -49q0 -106 -185 -264q-172 -145 -342 -289q-186 -182 -186 -346q0 -92 60.5 -152.5t154.5 -60.5q125 0 221 96q86 86 117 218q-41 23 -64.5 49t-33.5 71 l14 35l37 12q41 -12 62.5 -43.5t21.5 -74.5q0 -16 -2 -27q20 -12 46.5 -19.5t55.5 -11.5q138 211 275 424q-20 12 -41 17.5t-50 5.5q-33 0 -52 -4t-27 -4l-29 26l18 31q41 10 54 10q82 0 149 -51q190 242 283 332q204 200 360 200h2q14 0 28.5 -5t31.5 -9l22 -37l-14 -28 l-33 -11q-16 0 -56 11.5t-55 11.5q-141 0 -356 -295q-80 -113 -160 -225q37 -55 37 -125q0 -119 -89 -202t-212 -103q-39 -76 -53 -109q-31 -72 -31 -115q0 -49 55 -49q47 0 105 31q33 18 90 61l23 -18q-55 -55 -134 -99t-147 -44q-20 0 -35.5 5t-42.5 19l-14 35 q-12 29 -12 35q0 39 20 92q4 8 74 154q-51 6 -90 26q-25 -150 -148 -258t-272 -108q-117 0 -200 67.5t-83 181.5zM1309 362q106 37 168 99q71 74 71 178q0 35 -2 48t-16 36q-111 -180 -221 -361z" />
<glyph unicode="V" horiz-adv-x="1445" d="M137 90l13 29l26 10q92 -23 186 -43q86 0 154 43q84 53 170 203q-154 16 -247 115.5t-93 254.5q0 293 266 484q242 172 547 172q92 0 141 -10q86 -18 113 -72l-8 -25l-23 -10q-160 31 -317 62q-248 0 -440.5 -163t-192.5 -409q0 -133 73 -237.5t202 -122.5 q59 156 118 313q92 238 185 365q127 176 270 176q8 0 22.5 -4t20.5 -7l14 -26l-37 -33l-63 6q-145 0 -264 -323q-84 -233 -168 -465q164 27 262 153.5t98 300.5l31 4l4 -57q0 -172 -127 -307t-297 -135q-47 -80 -142 -159.5t-183 -106.5l67 -3q328 0 623 220 q268 199 426 514q57 115 83.5 252t53.5 268l39 22l43 -24q4 -16 9 -37t5 -31q0 -68 -31 -157q-18 -57 -63 -152q-188 -401 -516 -657q-362 -283 -774 -283q-139 0 -201.5 21.5t-77.5 70.5z" />
<glyph unicode="W" horiz-adv-x="2013" d="M68 80l12 26l31 13q20 -4 72.5 -19.5t80.5 -15.5q143 0 268 115q31 29 125 133q-133 20 -223 130.5t-90 246.5q0 281 262 471q240 174 531 174q109 0 172 -13q115 -23 137 -79l-39 -35q-29 2 -211 55q-78 23 -139 23q-256 0 -438.5 -168t-182.5 -422q0 -121 66.5 -217.5 t179.5 -124.5q109 348 192 508q173 331 387 331h1q12 0 31.5 -5t31.5 -7l23 -33q-4 -31 -35 -30q-53 8 -107 18q-113 0 -198 -162q-53 -98 -125 -332.5t-113 -295.5q178 0 287 141q100 131 100 313q0 37 -6 74l29 8q6 -27 9 -52.5t3 -49.5q0 -197 -128 -334t-323 -137 q-74 -96 -170 -164q-106 -75 -217 -98l54 -5q238 0 501 138q205 106 437 299q76 313 143 448q133 264 352 264q59 0 90 -51l-10 -22q-10 -8 -29 -9q-18 0 -60 11.5t-50 11.5q-84 0 -144 -64q-78 -82 -114 -251l-39 -185l-6 -22h3q60 0 130 151q66 143 65 224l39 47l31 -15 q4 -20 10 -41q0 -115 -119 -243q-162 -174 -178 -205q-68 -139 -133 -279q-86 -147 -240 -196q23 -4 43.5 -6.5t47.5 -2.5q358 0 672.5 293t314.5 650q0 141 -68.5 220t-191.5 79q-49 0 -105 -13l-2 33q37 18 84 28.5t90 10.5q131 0 209 -93t78 -229q0 -383 -393 -720 q-377 -324 -760 -324q-80 0 -119 8q-72 14 -96 64l12 22q14 8 31 8q12 0 36.5 -6t39.5 -6q80 0 155 62q63 51 107 131q16 29 28.5 63.5t24.5 77.5l2 6l-53 -43q-213 -172 -445 -272q-260 -113 -505 -113q-100 0 -142 8q-86 16 -114 72z" />
<glyph unicode="X" horiz-adv-x="1708" d="M0 141l12 39l31 17l31 -11q82 -115 114 -139q59 -45 179 -45q141 0 405 154q225 203 281 278l-6 4q-68 33 -107 66q-61 53 -61 108q4 8 6 13q16 33 18 39q29 8 48.5 10t45.5 2q14 0 103 -10q35 -4 74 -4q6 0 3 19t-3 26l-5 104q0 160 23 254q41 172 149 172q6 0 21.5 -4 t23.5 -6l17 -31q0 -27 -25 -27q-14 0 -39.5 9.5t-27.5 9.5q-41 0 -60.5 -64.5t-19.5 -191.5q0 -45 2 -70q10 -121 10 -125v-24q61 137 180 286q135 152 248 242q150 121 289 121q27 0 41 -3t53 -13l37 -46l-45 -40q-27 4 -76 15t-74 11q-150 -4 -385 -269t-262 -358 q0 -6 40 -8t63 -2q94 0 123 31q70 76 86 86l22 -10l10 -25l-28 -63q-43 -31 -91.5 -42.5t-103.5 -11.5h-57.5t-57.5 2l2 -6l15 -98q0 -20 12 -94q2 -14 8 -39q31 -29 129 -62q162 -53 162 -182q0 -76 -54 -112.5t-134 -36.5q-158 0 -176.5 217t-135.5 217q-59 -94 -110 -139 q-57 -63 -125 -123q-113 -94 -241 -144.5t-271 -50.5q-158 0 -252 57q-76 47 -84 121zM563 838q0 236 254 391q219 135 471 135q100 0 158.5 -20.5t58.5 -55.5l-12 -26l-31 -11q-39 0 -96 17q-131 37 -172 37q-195 0 -369 -107q-200 -122 -200 -303q0 -65 36.5 -110.5 t98.5 -45.5q63 0 105 53.5t42 116.5h29v-12q0 -84 -63.5 -157.5t-147.5 -73.5q-72 0 -117 49t-45 123zM965 584q0 -33 41 -70q29 -25 69 -49q16 31 45 70.5t56 76.5v13q-6 2 -59.5 8t-74.5 6q-29 0 -53 -13.5t-24 -41.5zM1106 449l84 -37q0 43 -2 79.5t-8 63.5 q-20 -31 -35 -53q-29 -43 -39 -53zM1298 342q18 -98 31 -143q28 -107 53 -127q18 -14 56 -15q45 0 77.5 24.5t32.5 70.5q0 70 -94 124q-51 31 -156 66z" />
<glyph unicode="Y" horiz-adv-x="1710" d="M-205 -322q0 12 11.5 47t13.5 46l65 65q45 12 90 25q14 0 33 -6.5t37 -12.5l27 -49l-15 -33l-30 -12l-86 21l-72 -31q-4 -10 -16.5 -40t-12.5 -34q0 -119 127 -178q100 -47 232 -47q254 0 467 121q182 102 348 303q125 152 274 401l166 283q4 6 12.5 28.5t20.5 22.5 l-12 -2l-80 -4l-76 6q0 -221 -119 -381q-133 -178 -346 -178q-123 0 -205 65q-88 72 -88 193q0 201 184 350q172 119 347 238q186 147 186 340q0 10 13.5 20t23.5 10l26 -10q12 -10 18.5 -30.5t6.5 -38.5q0 -119 -178 -258q-166 -127 -332 -252q-180 -166 -180 -344 q0 -90 63.5 -162t155.5 -72q170 0 285 160q104 145 104 321v31q-29 10 -51.5 34.5t-36.5 59.5q0 12 12.5 26.5t26.5 14.5l49 -26l35 -78l65 -6q31 0 63 2t62 8q109 178 197 299q143 201 272 311q169 146 308 146q12 0 28.5 -6.5t30.5 -10.5l22 -39l-14 -32q-18 -12 -45 -13 q-20 0 -59 8.5t-54 8.5q-154 0 -340 -258q-92 -129 -235 -400l70 6q16 0 43.5 -8t52.5 -14l35 -68l-13 -30l-26 -13l-37 29l-4 16l-80 49l-62 -4q-223 -401 -335 -561q-213 -303 -443 -459q-279 -188 -626 -188q-150 0 -261 59q-139 76 -139 215zM436 889q0 225 277 373 q231 124 473 124h4q90 0 178 -18q135 -29 135 -84q0 -35 -35 -35q-102 33 -190 58.5t-156 25.5q-209 0 -389 -96q-217 -117 -217 -309q0 -51 32 -87t81 -36t94 33q35 25 70 75l20 -20q-37 -63 -98.5 -106.5t-130.5 -43.5q-66 0 -107 41t-41 105z" />
<glyph unicode="Z" horiz-adv-x="1470" d="M41 16q51 80 286.5 93.5t336.5 76.5q66 41 131 123l110 140q-66 14 -108 43q-59 39 -60 96l33 57q27 8 71 12.5t79 4.5q29 0 58.5 -1.5t57.5 -1.5q104 172 189 283q111 145 231 248q-238 43 -280 49q-164 25 -285 25q-150 0 -260 -72q-131 -84 -131 -227q0 -66 48 -112 t111 -46q90 0 158 67.5t80 159.5l29 -2q0 -115 -98.5 -205t-215.5 -90q-72 0 -122 48.5t-50 121.5q0 186 185 318q167 118 359 118h3q127 0 320 -61q94 -31 188 -61q70 53 129 79q74 33 148 33q12 0 30.5 -6t36.5 -10l27 -43q0 -59 -70 -86q-53 -20 -147 -21q-47 0 -80 3.5 t-72 11.5q-109 -82 -201 -242q-18 -31 -145 -283h12q174 0 223 48q76 74 103 83l27 -10l10 -26q-29 -63 -121 -102.5t-188 -39.5q-47 0 -82 13q-16 -37 -43 -79t-58 -83l-8 -8l14 -4l80 -19q133 -27 197 -82q55 -49 55 -112q0 -127 -133 -197q-109 -57 -248 -57 q-106 0 -239 16q-319 39 -400 39q-68 0 -140.5 -16.5t-141.5 -32.5q-29 0 -29 28zM524 88q252 -33 506 -65q115 0 201 45q106 55 106 161q0 111 -178 160q-113 27 -149 35q-94 -119 -221.5 -210t-264.5 -126zM823 563q0 -31 35 -55q18 -12 66 -33l92 152h-64 q-53 0 -91 -11.5t-38 -52.5zM1538 1210q56 -16 111 -16q45 0 80 10q53 16 53 49q0 20 -22.5 25.5t-33.5 5.5q-47 0 -95 -20.5t-93 -53.5z" />
<glyph unicode="[" horiz-adv-x="993" d="M-59 -227l807 1691h264l-17 -32h-151l-774 -1625h151l-16 -34h-264z" />
<glyph unicode="\" horiz-adv-x="579" d="M20 1409l37 55l35 -28q23 -74 63 -208t99 -331q47 -154 87 -290t73 -253q49 -166 82.5 -303t54.5 -252l-43 -28l-27 24z" />
<glyph unicode="]" horiz-adv-x="1024" d="M-23 -227l17 34h151l773 1625h-150l16 32h263l-805 -1691h-265z" />
<glyph unicode="^" horiz-adv-x="903" d="M92 1028q35 53 86 127t105 145q16 20 34.5 43t34.5 46q14 18 28.5 38.5t29.5 36.5h53q41 -53 76.5 -94t58.5 -70q4 -6 10 -13t17 -17l2 -2q2 -2 2 -5t4 -8v2q80 -102 122 -161.5t46 -85.5l-35 -33q-23 14 -71 66.5t-107 125.5q-29 35 -53.5 69t-51.5 69q-12 16 -21 27.5 t-24 27.5q-31 -41 -61 -86q-16 -25 -33.5 -48.5t-34.5 -45.5q-41 -55 -85 -106.5t-85 -98.5l-45 18zM633 1257v3v-3z" />
<glyph unicode="_" horiz-adv-x="1024" d="M-2 -152h1028v-81h-1028v81z" />
<glyph unicode="`" horiz-adv-x="442" d="M127 1411q0 14 11.5 32.5t33.5 18.5q25 0 49 -28q20 -31 27 -35l69 -105l-28 -30l-103 71q-25 16 -36 29q-10 14 -16.5 25.5t-6.5 21.5z" />
<glyph unicode="a" horiz-adv-x="694" d="M12 96q0 162 186.5 316.5t350.5 154.5q45 0 92 -13t47 -46l-12 -25l-27 -10q-4 0 -90 29q-43 14 -74 14q-119 0 -243.5 -129t-124.5 -250q0 -29 15 -49t44 -20q88 0 207 143q80 96 152 223h79q-51 -82 -98 -164q-98 -165 -98 -190q0 -23 18 -23t64 33q33 25 57 49l14 -24 q-43 -43 -98 -80q-72 -47 -115 -47q-49 0 -49 41q0 20 8.5 41.5t22.5 52.5q-51 -51 -102 -86q-70 -47 -125 -47q-47 0 -74 28.5t-27 77.5z" />
<glyph unicode="b" horiz-adv-x="724" d="M-88 70l10 26l29 10q33 -8 63 -16q94 0 234 293q203 428 284 545q207 295 465 295q55 0 94 -14.5t56 -57.5l-12 -31l-29 -12q-20 6 -92 39q-51 24 -95 24h-4q-137 0 -292 -243q-137 -246 -273 -490q-166 -293 -295 -366q78 -37 166 -37q133 0 255 122t122 255q0 12 -4 23 t-14 36l-52 23q-55 -12 -104 -37l-16 20q53 39 88 58q53 28 97 28h3q47 0 78 -34.5t31 -84.5q0 -180 -199 -323q-184 -133 -375 -133q-74 0 -127 12q-92 20 -92 70z" />
<glyph unicode="c" horiz-adv-x="487" d="M-6 117q0 135 156.5 285.5t291.5 150.5q35 0 60.5 -12.5t25.5 -42.5q0 -43 -43 -43q-12 0 -59 30q-23 14 -47 15q-92 0 -188.5 -126t-96.5 -220q0 -35 24.5 -59.5t59.5 -24.5q47 0 107 34q45 27 90 72l16 -22q-51 -63 -130 -113.5t-148 -50.5q-55 0 -87 35.5t-32 91.5z " />
<glyph unicode="d" horiz-adv-x="681" d="M-14 102q0 141 176 299t321 158q29 0 49.5 -8t20.5 -33l-10 -24l-27 -11q-49 10 -98 23q-98 0 -212 -130t-114 -229q0 -6 7 -25.5t14 -33.5q23 -10 31 -14t18 -11q137 0 330 297q170 274 342 551q209 297 391 297q43 0 69.5 -13t36.5 -52l-12 -29l-29 -12q-20 4 -63 29.5 t-72 25.5q-84 0 -272 -274q-147 -215 -310 -512q-141 -258 -149 -291l16 -19q29 12 62 32t65 44l13 -22q-43 -39 -103 -78q-76 -49 -115 -49q-47 0 -47 47q0 18 8.5 39.5t22.5 52.5q-59 -59 -115 -92q-72 -43 -137 -43q-47 0 -77.5 30.5t-30.5 79.5z" />
<glyph unicode="e" horiz-adv-x="489" d="M-6 115q0 135 150.5 289.5t283.5 154.5q33 0 53.5 -13.5t20.5 -43.5q0 -78 -158 -166q-117 -66 -235 -98q-14 -43 -15 -74q0 -39 21.5 -66.5t58.5 -27.5q49 0 113 36q33 18 98 70l6 -31q-59 -59 -127 -102q-86 -55 -151 -55q-53 0 -86 36.5t-33 90.5zM125 279 q84 27 166 73q115 66 115 123q0 33 -37 33q-61 0 -142 -86q-63 -70 -102 -143z" />
<glyph unicode="f" horiz-adv-x="700" d="M-365 -594l11 25l26 10l86 -35q129 72 283 340q84 145 205 414l-27 135q-16 86 -16 137q0 59 38 81t101 22q27 0 47.5 -1.5t34.5 -1.5l2 7l63 120q74 139 144 240q100 141 205 223q127 98 256 99q61 0 84.5 -14.5t23.5 -43.5q-2 -4 -2 -6q-6 -10 -10 -18l-31 -11 q-23 2 -66.5 22.5t-68.5 20.5q-152 0 -311 -256q-20 -33 -199 -389q10 -4 25.5 -4h29.5q31 0 56.5 18.5t27.5 49.5l37 33l35 -39l-35 -68q-29 -12 -60.5 -16t-64.5 -4h-65q-8 -18 -99 -191q-106 -205 -106 -336q0 -258 -121 -432q-139 -201 -387 -201q-53 0 -94 14.5 t-58 55.5zM-182 -598l41 -2q199 0 309 201q90 164 90 381q-61 -141 -188 -312q-135 -180 -252 -268zM252 365q0 -35 4 -64t16 -88q70 160 138 289l-33 2q-61 0 -93 -38t-32 -101z" />
<glyph unicode="g" horiz-adv-x="794" d="M-541 -449q0 94 70 162t166 68q63 0 106 -23q59 -31 60 -86q0 -8 -6.5 -19t-8.5 -15l-30 -15q-59 53 -90 75.5t-70 22.5q-66 0 -113 -51t-47 -116q0 -90 78 -148q70 -51 166 -51q195 0 330 119q96 84 198 276q158 299 168 313q-61 -39 -86 -51q-51 -26 -96 -26 q-47 0 -79 33.5t-32 82.5q0 158 195 314q184 147 350 147q78 0 115 -17.5t53 -49.5l-10 -29l-25 -10q-18 0 -53 18q-84 43 -145 43q-123 0 -250 -129t-127 -250q0 -6 7 -25.5t13 -33.5l56 -25q84 0 172 113q205 262 247 272l33 -28l-33 -31q-6 2 -12 2q-53 0 -121 -129 q-8 -14 -84 -197q-94 -221 -170 -346q-111 -182 -243 -276q-162 -115 -367 -115q-115 0 -195 55q-90 63 -90 176z" />
<glyph unicode="h" horiz-adv-x="739" d="M-102 47l12 29q14 4 29 10q12 0 31.5 -8t31.5 -10q125 49 270 354q199 416 277 524q197 270 461 271q51 0 87 -14.5t52 -57.5l-14 -31l-29 -12q-20 4 -88 37q-49 24 -94 24h-4q-117 0 -238 -155q-78 -100 -193.5 -325.5t-150.5 -272.5q63 66 135 106q88 51 164 51 q45 0 76.5 -27.5t31.5 -70.5q0 -59 -92 -139q-217 -190 -233 -254l31 -33q57 14 114 29q10 0 19.5 -4.5t13.5 -6.5l10 -24l-12 -27q-12 -4 -19.5 -7t-13.5 -3q-25 0 -72 2t-69 2l-72 -4l-28 35q0 59 159.5 194.5t159.5 210.5q0 63 -68 64q-94 0 -196 -96q-43 -39 -172 -199 q-104 -127 -162 -160l47 -6q31 0 62.5 11.5t60.5 31.5l14 -16q-47 -37 -97 -60.5t-103 -23.5q-47 0 -82 12t-47 49z" />
<glyph unicode="i" horiz-adv-x="327" d="M-20 37q0 37 65 149q88 147 178 295q-2 4 -6 7.5t-6 5.5q-23 0 -67 -29t-66 -49l-12 24q63 49 98 72q72 45 110 45q45 0 45 -43q0 -37 -119.5 -225.5t-119.5 -210.5q0 -14 16 -15q25 0 70 33q20 14 61 49l13 -24q-51 -47 -99 -80q-69 -49 -112 -49q-49 0 -49 45zM395 834 q0 29 17.5 51t46.5 22q39 0 39 -41q0 -27 -19.5 -50t-44.5 -23q-39 0 -39 41z" />
<glyph unicode="j" horiz-adv-x="313" d="M-729 -590l10 29l27 10q57 -16 114 -35q86 0 285 246q158 195 338 485q164 264 184 334l-14 13q-31 -8 -68 -31q-18 -12 -61 -43l-14 22q47 43 96 74q70 43 113 43q6 0 17 -5t15 -5l13 -31q-25 -104 -205 -383q-193 -299 -393 -520q-240 -262 -371 -262q-33 0 -62 16z M403 834q0 29 17.5 51t46.5 22q37 0 37 -41q0 -27 -19.5 -50t-44.5 -23q-37 0 -37 41z" />
<glyph unicode="k" horiz-adv-x="706" d="M-102 49q0 8 12 27q10 8 29 8q12 0 32.5 -7t28.5 -7q123 51 268 358q201 426 273 526q193 268 456 269q49 0 87 -14.5t53 -53.5l-13 -29l-30 -12q-6 2 -88 35q-55 22 -92 22h-3q-111 0 -237 -157q-90 -113 -203 -328q-74 -141 -147 -283q55 63 131 115q92 61 159 62 q37 0 65 -24t28 -62q0 -84 -101 -158q-90 -66 -182 -78q8 -25 8 -55q0 -16 -4 -51t-4 -54q0 -25 33 -41q23 8 49 23.5t82 60.5l10 -20q-35 -43 -92 -82q-68 -47 -113 -47q-12 0 -41 14l-16 37q4 23 32.5 85t28.5 99l-2 27q-29 0 -52.5 10t-23.5 35l33 25q39 0 60 -37 q63 0 127 43q73 48 73 108q0 65 -67 66q-90 0 -201 -121q-295 -326 -305 -330l43 -6q74 0 131 47l12 -16q-47 -39 -101 -62.5t-114 -23.5q-63 0 -87.5 13t-24.5 44z" />
<glyph unicode="l" horiz-adv-x="417" d="M-102 49l12 27l24 10l64 -16q129 53 274 360q199 420 273 522q193 268 463 269q53 0 86.5 -14.5t48.5 -59.5l-13 -27l-26 -10q-16 2 -109 41q-39 16 -75 16q-172 0 -320 -243q-123 -248 -246 -494q-154 -295 -313 -373q39 -16 78 -16q63 0 123 39l12 -17 q-93 -75 -226 -75h-3q-53 0 -76 8q-39 14 -51 53z" />
<glyph unicode="m" horiz-adv-x="997" d="M-59 0q57 76 157 236q109 172 133 235l-16 14q-33 -8 -65 -30q-18 -12 -58 -45l-14 22q61 59 116.5 91t86.5 32l32 -10l13 -29q0 -27 -9.5 -47t-31.5 -55q63 51 133 90q96 53 149 53q66 0 66 -59q0 -18 -6 -39t-11 -31q78 59 127 88q80 45 146 45q45 0 75.5 -23.5 t30.5 -68.5q0 -70 -161.5 -205t-161.5 -192q0 -35 28 -35q18 0 72 18q29 10 43 11l35 -11l10 -24q0 -25 -75.5 -30t-116.5 -5h-58q-31 0 -30 33q0 68 156.5 197.5t156.5 205.5q0 29 -20.5 47.5t-51.5 18.5q-117 0 -274 -195q-121 -150 -193 -303h-102q49 66 151 231 q115 184 129 238l-10 18l-22 7q-141 0 -328 -275q-70 -100 -127 -219h-104z" />
<glyph unicode="n" horiz-adv-x="684" d="M-59 0q121 176 202 313q74 125 84 162l-12 14q-18 0 -46 -17t-81 -62l-14 22q43 41 96 76q72 47 111 47q43 0 43 -39q0 -31 -17 -63q-4 -8 -35 -58q78 74 140 113q88 55 168 55q43 0 72.5 -25.5t29.5 -68.5q0 -74 -161 -208t-161 -193q0 -29 27 -29q20 0 61 12t62 12 q10 0 31 -8l10 -24l-12 -29q-14 -10 -31 -10q-57 0 -144.5 3t-95.5 7l-8 25q0 57 159 197.5t159 211.5q0 27 -19.5 44.5t-48.5 17.5q-150 0 -334 -277q-20 -31 -133 -221h-102z" />
<glyph unicode="o" horiz-adv-x="544" d="M-6 133q0 150 162.5 292t316.5 142q31 0 55.5 -11t24.5 -36q0 -35 -43 -35q-20 0 -61 12.5t-64 12.5q-109 0 -202 -124t-93 -239q0 -49 18.5 -76.5t65.5 -27.5q90 0 168 92t78 184q0 14 -10.5 47t-10.5 50q0 14 11.5 25.5t25.5 11.5q29 0 40 -30t11 -63 q0 -119 -120.5 -247.5t-237.5 -128.5q-68 0 -101.5 39.5t-33.5 109.5z" />
<glyph unicode="p" horiz-adv-x="641" d="M-573 -612q0 6 5 14t9 16l33 13l67 -19q109 35 299 389q303 565 346 631q217 332 404 332q14 0 26.5 -5t24.5 -9l18 -35l-12 -31q-25 -12 -33 -12q-20 0 -55 9t-47 9q-94 0 -201 -153q-39 -55 -75 -134q66 70 118 105q78 51 150 51q51 0 79.5 -30.5t28.5 -84.5 q0 -145 -144 -300.5t-290 -155.5q-6 0 -30.5 9t-28.5 11l-25 47l12 31l31 12l27 -20q0 -23 11 -38t36 -15q98 0 200.5 144t102.5 247q0 6 -9 28.5t-9 24.5l-47 20q-143 0 -289 -239q-127 -244 -252 -486q-162 -291 -322 -370q37 -12 74 -12q45 0 93 13t91 38l15 -21 q-55 -41 -132 -63.5t-151 -22.5q-61 0 -88 6q-61 14 -61 56z" />
<glyph unicode="q" horiz-adv-x="622" d="M-117 -647l457 756q-61 -47 -113 -76q-72 -39 -129 -39q-51 0 -79.5 30.5t-28.5 84.5q0 156 167 303t322 147q45 0 85 -15.5t40 -51.5l-10 -25l-25 -10q-25 4 -60.5 33.5t-78.5 29.5q-117 0 -227.5 -120.5t-110.5 -237.5q0 -86 84 -86q102 0 209 108q86 86 141 203h66 l-627 -1034h-82z" />
<glyph unicode="r" horiz-adv-x="479" d="M-61 0q63 78 213 334q70 119 77 139l-12 10q-20 0 -67 -30q-27 -16 -64 -45l-12 22q45 41 102 78q74 47 113 47q6 0 26 -10l11 -25q0 -20 -4.5 -32.5t-32.5 -63.5q45 49 90 80q63 43 110 43q25 0 45.5 -11.5t20.5 -35.5q0 -41 -33 -41q-10 0 -32.5 10t-40.5 10 q-102 0 -242 -194q-96 -135 -164 -285h-104z" />
<glyph unicode="s" horiz-adv-x="464" d="M-41 123q0 55 35 90t90 35q35 0 60.5 -19.5t25.5 -54.5q0 -27 -15.5 -45t-41.5 -18l-27 12l-12 27q0 8 5 21t5 17q-8 14 -21 15q-29 0 -49 -24.5t-20 -55.5q0 -49 42 -78t93 -29q61 0 103 38t42 98q0 45 -49 118.5t-49 118.5q0 66 50 112t120 46q27 0 71 -5t50 -5 q51 0 59 45q-23 4 -37 14.5t-14 30.5l8 22l25 10q23 0 37 -20.5t14 -42.5q0 -53 -43 -88t-100 -35q-23 0 -68 8t-65 8q-55 0 -56 -49q0 -14 88 -141q43 -61 43 -117q0 -86 -68.5 -144t-156.5 -58q-70 0 -122 36.5t-52 106.5z" />
<glyph unicode="t" horiz-adv-x="491" d="M-76 51q0 31 25 31q8 0 22.5 -4t20.5 -4q47 0 150.5 121.5t103.5 164.5q-29 27 -41 43q-43 51 -43 80q0 33 23.5 46.5t62.5 13.5q25 0 47 -2t43 -4q76 152 162 254q124 149 239 149h2q51 0 52 -27l-9 -18q-12 -6 -26 -6q-33 6 -49 6q-111 0 -189 -145q-55 -113 -110 -224 l55 -6q76 0 88 51.5t33 51.5q37 0 37 -39q0 -49 -47.5 -69.5t-112.5 -20.5h-35q-20 4 -29 4q-27 -68 -37 -95q-20 -53 -43 -92q33 -49 33 -106q0 -106 -92 -166q-80 -51 -192 -51q-49 0 -86 10q-57 16 -58 53zM25 55q47 -18 98 -18q82 0 137 43q63 49 64 127q0 39 -21 76 q-51 -88 -115 -144q-77 -68 -163 -84zM225 461q0 -16 10.5 -37t24.5 -33q10 18 26 45t36 74l-33 2q-29 0 -46.5 -12.5t-17.5 -38.5z" />
<glyph unicode="u" horiz-adv-x="604" d="M47 213q78 133 158 268l-15 15q-20 0 -40.5 -12.5t-77.5 -55.5l-11 25q39 35 91 67q66 41 102 41q18 0 32.5 -10t14.5 -29q0 -39 -114.5 -217t-114.5 -217l10 -22l24 -11q86 0 232 174q135 162 162 252l-13 17q-14 0 -57 -29q-35 -23 -55 -39l-15 23q45 43 89 69 q63 39 104 39q45 0 45 -39q0 -35 -119 -225.5t-119 -212.5q0 -20 19 -21q16 0 47 21q16 12 82 66l14 -25q-47 -47 -100 -84q-72 -49 -117 -49q-43 0 -43 39q0 29 23 73q4 10 22 43q-63 -63 -112 -98q-78 -55 -138 -55q-71 0 -71 70q0 45 61 149z" />
<glyph unicode="v" horiz-adv-x="585" d="M-27 23l11 24q14 10 26 10q23 0 62 -5t47 -5q141 0 247.5 126t106.5 273l-4 78q0 41 41 41q31 0 43 -21.5t12 -58.5q0 -176 -176 -337.5t-356 -161.5q-25 0 -42.5 7t-17.5 30zM66 485q0 29 57 49.5t143 20.5q35 0 35 -16q-47 -61 -70 -101q-69 -119 -69 -220q0 -23 5 -59 t5 -44q0 -43 -35 -43q-31 0 -45 29.5t-14 64.5q0 98 55 199q47 84 131 163q-43 -6 -68.5 -14.5t-52.5 -28.5q-8 -6 -14 -12q-23 -16 -35 -16q-29 0 -28 28z" />
<glyph unicode="w" horiz-adv-x="839" d="M-20 27q0 33 38 32q16 0 51 -6t56 -6q66 0 125 29.5t106 81.5v26q0 98 45 222q55 153 133 153h1q23 0 34 -17.5t11 -43.5q0 -72 -64 -179q-49 -84 -117 -157q14 -41 38 -62.5t61 -21.5q104 0 174 104q63 94 63 205q0 27 -2 45q-8 70 -8 76q0 23 11.5 41t33.5 18 q29 0 39 -24.5t10 -59.5q0 -133 -106 -301q-119 -186 -242 -186q-47 0 -75.5 36t-35.5 89q-74 -63 -149.5 -99t-161.5 -36q-29 0 -49 8t-20 33zM76 485q0 39 68.5 56.5t123.5 17.5q41 0 41 -22q-55 -63 -94 -144q-45 -90 -45 -170q0 -18 6 -51t6 -49q0 -47 -45 -47 q-31 0 -41 27.5t-10 66.5q0 96 55 197q49 92 129 161q-41 -6 -71.5 -17t-61.5 -36q-23 -18 -33 -18q-29 0 -28 28zM391 197q59 74 96 145q31 59 31 92q0 31 -20 31q-45 0 -80 -100q-27 -80 -27 -142v-26z" />
<glyph unicode="x" horiz-adv-x="548" d="M-123 33q0 39 45 39q35 -4 47 -4q78 0 146 63q53 49 94 135h-96l14 37h96q8 23 14.5 50.5t6.5 54.5q0 75 -66 75h-2q-14 0 -32.5 -6t-34.5 -10l-13 6l-6 12q8 35 41 54.5t72 19.5q47 0 68.5 -30.5t21.5 -75.5q0 -27 -6 -52q43 59 106 107q76 57 139 57q16 0 33 -9t17 -28 q0 -18 -52 -36q-78 -29 -155 -56q-27 -20 -44.5 -41.5t-60.5 -91.5h92l-16 -37h-92q-16 -37 -27.5 -73.5t-11.5 -69.5q0 -41 24.5 -67.5t67.5 -26.5q29 0 53.5 15t24.5 42q0 33 -37 33q-16 -2 -24 -2q-31 0 -31 30q0 27 20.5 41.5t46.5 14.5q35 0 56.5 -23.5t21.5 -60.5 q0 -55 -41 -92t-96 -37q-61 0 -93 40t-32 105q-51 -68 -104 -104q-68 -45 -140 -45q-20 0 -37.5 13t-17.5 34z" />
<glyph unicode="y" horiz-adv-x="624" d="M-467 -596l12 29l29 12q33 -6 83 -32.5t101 -26.5q162 0 303 243q82 156 111 211q43 84 74 140q45 84 82 135l4 6q-53 -45 -86 -66q-101 -67 -166 -67h-2q-78 0 -78 69q0 45 96 197q109 170 125 217l-12 12q-35 -8 -72 -30q-27 -16 -65 -47l-13 18q51 47 101 82 q71 49 114 49t43 -39t-63 -145q-162 -272 -170 -299q12 -27 35 -27q104 0 225 135q96 125 193 250q106 137 168 137q23 -6 30 -8l13 -27l-7 -24q-20 -16 -96 -39q-53 -16 -104 -88q-61 -84 -217 -414q-145 -305 -256 -434q-174 -203 -396 -203q-53 0 -89 14.5t-50 59.5z" />
<glyph unicode="z" horiz-adv-x="466" d="M-88 14q0 14 119 121q74 66 147 131h-96l16 37h117l154 164q-25 -6 -59 -12t-56 -6q-66 0 -96.5 19t-30.5 52t35 39q59 -35 89 -48t73 -13q47 0 82 22q43 29 59 31l14 -8l8 -15q0 -20 -96 -110q-61 -57 -123 -115h94l-18 -37h-113l-176 -180q72 31 140 31q51 0 97 -21.5 t46 -66.5q0 -16 -11.5 -29.5t-27.5 -13.5q-12 0 -71.5 40t-112.5 40q-61 0 -101 -35q-49 -43 -69 -47l-25 8z" />
<glyph unicode="{" horiz-adv-x="804" d="M100 573v74l82 -2q92 0 135 62q31 51 31 159q0 25 -1 49.5t-3 47.5l-10 143q0 180 86 267t278 87l39 -41l-35 -28q-188 0 -251 -101q-53 -78 -54 -239q0 -51 6 -140q7 -92 7 -133q0 -49 -19.5 -92t-60.5 -72q25 -16 41 -35.5t28 -43.5q18 -53 19 -136v-30.5t-2 -36.5 q0 -6 -1 -15.5t-1 -17.5v-20q0 -199 41 -297q59 -143 243 -144l39 -39l-35 -30q-223 0 -311 182q-25 55 -37 147t-12 215v127q0 86 -68 115q-43 18 -174 18z" />
<glyph unicode="|" horiz-adv-x="266" d="M92 -193v1602l47 39l37 -39v-1597l-47 -45z" />
<glyph unicode="}" horiz-adv-x="786" d="M47 -190l35 28q188 0 250 150q47 98 47 309q0 14 -1 25.5t-1 21.5v78q0 66 19.5 112t70.5 78q-49 41 -71.5 105.5t-22.5 154.5q0 20 2 55.5t6 84.5q0 4 1 11t1 11v8q0 2 1 4.5t1 6.5q2 18 2 33.5v27.5q0 147 -70.5 212t-232.5 65l-37 41l35 28q111 0 188.5 -29.5 t120.5 -80.5q57 -82 58 -265v-106q-2 -37 -2.5 -62.5t-0.5 -44.5q0 -135 46 -180q51 -45 202 -45v-74l-98 2q-84 0 -123 -53q-25 -47 -24 -143v-66q2 -18 2 -34.5v-26.5q0 -111 -13.5 -191.5t-44.5 -136.5q-92 -156 -309 -155z" />
<glyph unicode="~" horiz-adv-x="1021" d="M86 1157q0 129 64 207q70 92 196 92q137 0 193 -143q27 -66 59.5 -98.5t79.5 -32.5q100 0 147 78q43 68 43 172q0 31 35 30q31 0 31 -30q0 -127 -66 -218q-35 -45 -86 -70.5t-112 -25.5q-133 0 -185 142q-53 131 -147 131q-61 0 -100 -27t-56 -72q-16 -80 -29.5 -124 t-35.5 -44q-31 0 -31 33z" />
<glyph unicode="&#xa1;" horiz-adv-x="430" d="M-16 -160q0 31 32 84q25 41 29 47q74 121 133.5 246t100.5 256q6 25 17 54.5t32 29.5q20 0 20 -20q0 -6 -4 -18.5t-12 -33.5q-51 -119 -96.5 -264t-79.5 -287q-8 -31 -18.5 -63.5t-26.5 -54.5q-23 -33 -64 -33q-23 0 -43 16t-20 41zM324 666q0 29 23.5 58.5t51.5 29.5 q43 0 43 -45q0 -33 -21 -60.5t-54 -27.5q-43 0 -43 45z" />
<glyph unicode="&#xa2;" horiz-adv-x="579" d="M10 434q0 127 109 252q100 115 229 160l72 182h47l-66 -168q25 4 43.5 7t32.5 3q37 0 64.5 -12t27.5 -45l-12 -29l-35 -12q-23 0 -55.5 22.5t-60.5 22.5l-23 -2l-166 -430q55 6 103.5 33.5t95.5 75.5l16 -23q-47 -59 -110.5 -103t-135.5 -59l-69 -180h-47l69 176 q-57 0 -93 36t-36 93zM113 489q0 -37 13 -62.5t46 -35.5l158 406q-84 -43 -148 -127q-70 -92 -69 -181z" />
<glyph unicode="&#xa3;" horiz-adv-x="929" d="M-76 168l19 35q141 68 282 135q129 84 178 260h-157l16 33h150q57 201 118 287q96 137 265 137q76 0 134 -41t58 -117q0 -53 -38 -97t-89 -44q-33 10 -43 12l-18 33l10 24l25 11l53 -9q27 0 44 23.5t17 52.5q0 53 -45 86t-102 33q-152 0 -228 -199q-27 -72 -53 -192h232 l-17 -33h-227q-39 -133 -156 -233q-104 -90 -250 -138l39 2q63 0 262 -59q96 -29 156 -29q45 0 81 22.5t36 65.5q0 18 -12 35q-33 47 -35 58l12 26l27 10q33 -8 46 -31.5t13 -58.5q0 -72 -48 -115.5t-124 -43.5q-57 0 -139 20q-180 45 -234 45q-37 0 -135 -31 q-53 -16 -80 -16q-43 0 -43 41z" />
<glyph unicode="&#xa4;" horiz-adv-x="1058" d="M190 197l3 30l88 92q-43 55 -63.5 128t-20.5 151q0 63 27.5 128t68.5 118q-8 6 -19.5 17t-25.5 26l-49 43v39l30 14l107 -94q92 74 215 74t215 -80l102 94l31 2l23 -35l-111 -110q41 -51 64.5 -115t23.5 -131q0 -139 -70 -256q10 -16 20.5 -27.5t20.5 -21.5l24.5 -24.5 t23.5 -25.5l-3 -45h-43l-86 97q-45 -45 -108.5 -76t-126.5 -31q-66 0 -124 24.5t-103 67.5q-2 -2 -3.5 -5t-3.5 -5q-10 -10 -16 -15t-8 -7q-20 -20 -37.5 -36t-34.5 -26zM262 594q0 -139 76 -240q76 -111 213 -110q135 0 209 114q74 105 74 242q0 61 -21.5 112.5t-62.5 98.5 q-78 86 -199 86q-63 0 -114.5 -19.5t-90.5 -66.5q-84 -88 -84 -217z" />
<glyph unicode="&#xa5;" horiz-adv-x="878" d="M-6 471l16 35h258q-31 152 -47 225q-28 127 -57 223l-19 11l-79 -43l-15 16q39 37 76 61q51 35 86 35q55 0 98 -213q16 -115 35 -227q61 104 135 201q190 246 334 245q29 0 47.5 -11t18.5 -40l-13 -33l-26 -12q-12 2 -44 13.5t-44 11.5q-86 0 -226 -189 q-119 -160 -161 -274h278l-18 -35h-279q-35 -57 -82 -175t-59 -181h-127q41 104 108 225q20 35 78 131h-272z" />
<glyph unicode="&#xa6;" horiz-adv-x="548" d="M242 -207v635l41 16l32 -16v-635l-41 -14zM242 733v637l41 14l32 -14v-637l-41 -14z" />
<glyph unicode="&#xa7;" horiz-adv-x="1165" d="M31 4q0 88 50 143.5t134 55.5q47 0 81 -30t34 -83q0 -39 -18.5 -65.5t-49.5 -30.5q-4 4 -12 7t-6 1v2l-13 6v-2q-2 0 -2 2l-2 2l-6 17q-4 4 -7 13t-5 13q0 -2 4 15l4 8l4 12q2 6 4 13.5t2 19.5q-16 29 -45 29q-47 0 -83 -44.5t-36 -103.5q0 -90 70 -141q33 -23 69 -36 t81 -13q104 0 169.5 65.5t65.5 173.5q0 78 -55 180q-45 66 -68.5 120.5t-32.5 97.5q8 70 50.5 129t95.5 98q23 10 53.5 18.5t54.5 8.5q12 0 24.5 -1.5t45.5 -9.5q-16 16 -25.5 33.5t-15.5 34.5q-39 59 -57.5 110.5t-18.5 85.5q0 104 70 175q74 74 184 73q20 0 46 -3t59 -7 t51 -6t25 -2q84 0 104 106q-74 10 -80 54q0 4 2 8q0 2 4 10q0 2 1 3t1 3t2 5t2 5q2 2 15 7q4 2 9 4t9 4q29 -4 47.5 -33t18.5 -61q0 -43 -17.5 -79t-47.5 -60.5t-68.5 -39t-79.5 -14.5q-31 0 -101 12q-10 2 -19 3t-20 3q-47 6 -67 7q-94 0 -94 -95q0 -25 137 -247 q16 -23 28.5 -48.5t22.5 -50.5q2 -4 2 -6t2 -6q6 -16 6 -25v-9t2 -9q0 -8 4 -16q-4 -74 -30.5 -141.5t-73.5 -112.5v2q-39 -27 -79 -50.5t-85 -35.5q33 -53 47.5 -100.5t14.5 -82.5q0 -70 -27 -128t-72 -105v2q-51 -47 -113.5 -71.5t-121.5 -24.5q-51 0 -97.5 15t-82 44 t-57 72t-21.5 98zM451 485q16 -74 90 -166q29 8 58.5 24.5t49.5 37.5q33 35 51.5 80t18.5 98v18.5t-2 16.5l-2 14q-25 2 -46.5 4t-43.5 9q-4 0 -9.5 1t-9.5 1q-12 2 -22.5 2t-20.5 2q-8 0 -10 2q-2 0 -4 1t-4 1zM1036 1382l2 2q2 0 2 -2h-4z" />
<glyph unicode="&#xa8;" horiz-adv-x="565" d="M135 1296q0 33 22.5 65t53.5 32q23 0 28 -16.5t5 -30.5q0 -29 -21.5 -60t-50.5 -31q-37 0 -37 41zM322 1296q0 31 22.5 64t50.5 33q33 0 33 -43q0 -33 -20.5 -64t-51.5 -31q-35 0 -34 41z" />
<glyph unicode="&#xa9;" horiz-adv-x="1472" d="M262 926q0 190 137 327q74 70 156 105t180 35q186 0 322 -140q70 -74 104.5 -151.5t34.5 -175.5q0 -180 -139 -330q-74 -66 -155 -100.5t-173 -34.5q-182 0 -330 135q-137 150 -137 330zM303 926q0 -180 123 -308q61 -59 136 -89.5t167 -30.5t166 30.5t135 89.5 q123 127 123 308q0 94 -31.5 169.5t-91.5 137.5q-125 121 -305 121q-88 0 -164 -33t-137 -92q-59 -61 -90 -138t-31 -165zM379 1059q0 53 49 96v-2q39 37 102 49l2 -16q-16 -10 -36.5 -25.5t-32.5 -27.5q-12 -16 -20.5 -38t-8.5 -42q0 -41 25 -66q20 -20 59 -31 q41 49 89 91.5t98 76.5q127 84 231 84q47 0 74 -14q37 -23 37 -66q0 -51 -43 -85.5t-97 -34.5q-33 0 -61 16q-49 -55 -131 -80q-29 -8 -72 -12t-84 -6q-12 -23 -23.5 -44.5t-21.5 -43.5q-23 -55 -22 -97q0 -47 32.5 -73.5t79.5 -26.5q57 0 125 45q68 51 68 109 q0 18 -13.5 31.5t-29.5 13.5q-27 0 -47 -15v2q-6 -6 -13.5 -14t-19.5 -31l-17 13q14 35 45 65q16 12 34 19.5t40 7.5q29 0 45.5 -18.5t16.5 -47.5q0 -78 -95 -153q-90 -68 -172 -68q-63 0 -102 33q-45 39 -45 102q0 27 7 55.5t18 55.5q8 20 23 43.5t32 46.5q-43 8 -80 39v-2 q-45 33 -45 86zM575 948h21q66 0 129 24.5t104 65.5q-6 10 -11 20.5t-5 20.5q0 14 8 25.5t23 11.5q12 0 18 -11t6 -24q0 -16 -10 -37q20 -14 45 -14q39 0 70 25.5t31 62.5q0 31 -27 48.5t-62 17.5q-41 0 -91 -21.5t-103 -62.5q-43 -35 -81 -74t-65 -78z" />
<glyph unicode="&#xaa;" horiz-adv-x="997" d="M190 954q0 150 170 291q174 147 330 148q39 0 82 -13q41 -12 41 -34l-10 -21h-2q-4 -2 -23 -12l-20 10q-10 4 -24.5 9t-31.5 11q-41 12 -75 13q-109 0 -230 -125q-121 -123 -121 -240q0 -29 15.5 -50t46.5 -21q45 0 94 35.5t107 101.5q37 45 71.5 98t67.5 111h61 q-20 -31 -36.5 -59.5t-32.5 -57.5q-4 -6 -8.5 -13.5t-8.5 -15.5q-41 -72 -67.5 -121t-26.5 -61q0 -27 23 -27q18 0 65 31q10 8 20.5 17.5t26.5 25.5q0 -2 6 -8h-2l7 -6q-16 -16 -40 -34.5t-53 -35.5q-33 -20 -59.5 -31.5t-42.5 -11.5q-41 0 -41 33q0 16 7 33.5t20 46.5v4 l-2 6q-25 -20 -49.5 -39.5t-51.5 -36.5q-35 -23 -63.5 -34t-50.5 -11q-88 0 -89 94z" />
<glyph unicode="&#xab;" horiz-adv-x="509" d="M55 0q8 31 16.5 67.5t8.5 88.5q0 41 -3 63.5t-16 77.5q74 35 140 78q49 33 131 96h28q-80 -113 -208 -178v-33q0 -61 -18.5 -133t-49.5 -127h-29zM215 0q27 80 27 154q0 43 -3 65.5t-16 77.5q68 33 139 80q18 12 132 94h28q-33 -47 -93 -98t-116 -80v-33 q0 -61 -18.5 -133t-48.5 -127h-31z" />
<glyph unicode="&#xac;" horiz-adv-x="991" d="M68 682q0 31 32 31h799l27 -27v-330q0 -33 -37 -32q-23 14 -29 54t-6 99v79t4 91h-758q-33 0 -32 35z" />
<glyph unicode="&#xad;" horiz-adv-x="522" d="M59 252v86h349v-86h-349z" />
<glyph unicode="&#xae;" horiz-adv-x="1511" d="M262 926q0 190 137 327q74 70 156 105t180 35q186 0 322 -140q70 -74 104.5 -151.5t34.5 -175.5q0 -180 -139 -330q-74 -66 -155 -100.5t-173 -34.5q-182 0 -330 135q-137 150 -137 330zM303 926q0 -180 123 -308q61 -59 136 -89.5t167 -30.5t166 30.5t135 89.5 q123 127 123 308q0 94 -31.5 169.5t-91.5 137.5q-125 121 -305 121q-88 0 -164 -33t-137 -92q-59 -61 -90 -138t-31 -165zM354 764l4 18l17 11q27 -27 56.5 -47.5t76.5 -20.5q109 0 182 84q-100 49 -100 170q0 113 100 188q43 29 95.5 46.5t109.5 17.5q76 0 133 -35 q35 -27 49.5 -57.5t14.5 -65.5q0 -63 -50 -119q-27 -27 -51 -42t-53 -19q0 -8 -1 -22.5t-3 -28.5q0 -2 -1 -5t-1 -8v-14q-2 -12 -2 -18.5v-10.5q0 -12 8 -32l12 -6q10 2 22.5 9t22.5 27l21 -26q-12 -18 -21.5 -26.5t-21.5 -16.5q-25 -14 -47 -15q-53 0 -54 62q0 33 19 88 l6 18q4 10 4 14.5t2 8.5h-14q-18 0 -35.5 2t-32.5 6q-4 -10 -12 -19.5t-21 -25.5q-2 -2 -5 -8t-17 -17l-6 -6h20q12 0 25.5 2t36.5 13l14 -31q-23 -10 -41 -11t-35 -1h-19t-26 2l-24 -19q-25 -18 -44.5 -33.5t-33.5 -19.5q-25 -14 -57.5 -22.5t-67.5 -8.5q-63 0 -88 8h2 q-33 6 -46.5 21.5t-21.5 40.5zM643 954q0 -41 16.5 -70.5t51.5 -41.5q4 4 10 12l11 11t5 3q2 2 2 5.5t2 7.5q0 2 2 5t2 5q8 16 25 33l4 8q-12 14 -20.5 31.5t-8.5 37.5q0 59 56 82q16 6 42.5 9.5t49.5 5.5q8 4 14 8v-2q2 4 4 5t7 5q10 10 10 12q23 14 47 15q29 0 29 -23 q0 -33 -41 -45q-10 -2 -29 -3t-29 -1q-20 -23 -35 -74q-6 -8 -8 -16l8 2q4 0 7 2q23 0 39 -16.5t20 -38.5q45 16 71.5 54t26.5 89q0 27 -12 52.5t-29 41.5v-2q-25 14 -51.5 24.5t-52.5 10.5q-106 0 -176 -70t-70 -174zM786 987q0 -10 7 -22q10 18 23 38.5t38 53.5l8 12 q-35 -4 -55.5 -26.5t-20.5 -55.5zM838 928q8 -4 18 -6t16 -4h9q2 0 4 1t4 1t2 2q10 0 14 2q0 2 -4 6q-6 0 -10 4q-2 0 -3 -1t-3 -1h-15q-18 0 -22 10q-4 -4 -5 -7t-5 -7zM950 1102q10 4 11 6z" />
<glyph unicode="&#xaf;" horiz-adv-x="737" d="M74 1593q0 27 24 27q135 8 273.5 16.5t273.5 16.5q27 0 27 -29q0 -23 -25 -25q-104 -25 -234 -29.5t-313 -4.5q-27 0 -26 28z" />
<glyph unicode="&#xb0;" horiz-adv-x="479" d="M104 1217q0 70 53.5 123t123.5 53q96 0 96 -90q0 -74 -52.5 -128.5t-121.5 -54.5q-98 0 -99 97zM166 1219q0 -51 47 -52q39 0 71.5 44t32.5 85q0 54 -43 54q-45 0 -76.5 -41t-31.5 -90z" />
<glyph unicode="&#xb1;" horiz-adv-x="989" d="M98 -6v63h813v-63h-813zM98 465v63h379v291h66v-291h368v-63h-368v-297h-66v297h-379z" />
<glyph unicode="&#xb2;" horiz-adv-x="778" d="M160 844q0 70 108 135q25 14 49.5 28.5t51.5 30.5q23 14 50 29.5t52 30.5q106 76 107 162q0 41 -26 69.5t-69 28.5q-47 0 -86 -32t-39 -77q0 -18 21 -28h-2q10 -4 21.5 -5.5t29.5 -5.5l8 -20q-10 -41 -45 -41q-33 0 -52.5 23.5t-19.5 54.5q0 37 17.5 67.5t45.5 54 t63.5 36t72.5 12.5q57 0 96 -33t39 -88q0 -88 -102 -168q-39 -29 -197 -113q-45 -23 -75.5 -43t-42.5 -39q20 10 51 11q20 0 44.5 -9.5t47.5 -23.5t42 -24.5t25 -10.5q29 0 37 14q12 12 20.5 27.5t16.5 36.5l25 -12q-14 -43 -43 -78q-35 -41 -80 -41q-43 0 -98 43 q-53 43 -72 43q-25 0 -31 -39q-6 -45 -28 -45q-33 0 -33 39z" />
<glyph unicode="&#xb3;" horiz-adv-x="761" d="M137 868q0 41 32 71t77 30q25 0 43 -12.5t18 -38.5l-10 -23l-29 -8q-6 2 -13 4t-13 4q-10 0 -19.5 2t-13.5 4q-16 -2 -24.5 -12t-8.5 -27q0 -35 28.5 -52t65.5 -17q41 0 80 15t70 42q66 61 65 141q0 45 -23.5 62.5t-64.5 17.5h-30l16 29q80 14 133 53q63 45 64 111 q0 43 -26 67.5t-73 24.5q-39 0 -75.5 -25.5t-40.5 -64.5q2 -4 3 -8.5t3 -6.5q4 -2 5 -2t5 -2q20 -6 34.5 -14t14.5 -25q0 -16 -13.5 -27.5t-29.5 -11.5q-29 0 -47 21.5t-18 50.5q0 33 16 61.5t44 49t62.5 32t69.5 11.5q57 0 98 -30t41 -85t-69 -125q-29 -25 -76 -47 q31 -8 48 -34.5t17 -65.5q0 -96 -102 -177q-94 -70 -197 -69q-51 0 -90 22q-47 29 -47 84z" />
<glyph unicode="&#xb4;" horiz-adv-x="503" d="M137 1237q61 55 125 113q58 47 78 47q27 0 27 -39q0 -20 -17 -37q-8 -8 -65 -37l-133 -63z" />
<glyph unicode="&#xb5;" horiz-adv-x="604" d="M-588 -612q0 6 5 14l10 16l32 13l68 -19q109 35 299 389q106 199 180 334q14 33 41 78q18 31 35 61q72 125 90 152l33 55l-15 15q-20 0 -40.5 -12.5t-77.5 -55.5l-11 25q39 35 91 67q66 41 102 41q18 0 32.5 -10t14.5 -29q0 -39 -117 -217q-20 -31 -37 -55h3 q-37 -70 -74 -137q-6 -16 -4 -25l10 -22l24 -11q86 0 232 174q135 162 162 252l-13 17q-14 0 -57 -29q-35 -23 -55 -39l-15 23q45 43 89 69q63 39 104 39q45 0 45 -39q0 -35 -119 -225.5t-119 -212.5q0 -20 19 -21q16 0 47 21q16 12 82 66l14 -25q-47 -47 -100 -84 q-72 -49 -117 -49q-43 0 -43 39q0 29 23 73q4 10 22 43q-63 -63 -112 -98q-78 -55 -138 -55q-25 0 -41 6q-61 -117 -122 -236q-162 -291 -322 -370q37 -12 74 -12q45 0 93 13t91 38l14 -21q-55 -41 -132 -63.5t-150 -22.5q-61 0 -88 6q-61 14 -62 56z" />
<glyph unicode="&#xb6;" horiz-adv-x="1040" d="M70 -2l465 874q-61 -51 -115 -88q-72 -43 -133 -43q-51 0 -80 35t-29 96q0 180 172 351.5t471 158.5q63 -10 103.5 -27.5t40.5 -60.5l-11 -28l-24 -11q-25 4 -100.5 33t-194.5 6.5t-219.5 -109.5t-134.5 -249q0 -102 88 -102q104 0 215 124q86 100 143 238h68l-641 -1198 h-84zM258 -2l651 1198h74l-641 -1198h-84z" />
<glyph unicode="&#xb7;" horiz-adv-x="323" d="M158 432q0 33 21 60.5t54 27.5q43 0 43 -45q0 -29 -23.5 -58.5t-51.5 -29.5q-43 0 -43 45z" />
<glyph unicode="&#xb8;" horiz-adv-x="663" d="M174 -324q88 27 117 41q66 39 82 97l-15 36l-45 15l-32 -8l-15 16l105 127l47 -2l-49 -64l22 5q16 0 30.5 -5.5t33.5 -13.5q10 -29 20 -57q0 -66 -68.5 -120t-224.5 -101z" />
<glyph unicode="&#xb9;" horiz-adv-x="679" d="M125 786q68 129 184 287q6 10 13.5 18.5t13.5 18.5q43 59 76.5 106.5t79.5 102.5q-53 -35 -111.5 -65.5t-116.5 -53.5l-10 41q74 18 156 70q123 70 145 82q20 0 20 -19q-2 -4 -47 -69q-14 -20 -28.5 -39t-28.5 -35q-35 -49 -68.5 -107.5t-64.5 -113.5 q-27 -43 -55.5 -99.5t-63.5 -124.5h-94z" />
<glyph unicode="&#xba;" horiz-adv-x="796" d="M170 920q0 152 123 315q129 162 248 162q29 0 53 -11q35 -18 35 -53l-4 -10l-17 -14q-2 0 -6 4q-16 16 -39.5 32.5t-46.5 16.5q-88 0 -184 -156q-94 -152 -94 -276q0 -47 13 -74t48 -27t77 36t85 102q41 66 62.5 128t21.5 115q0 37 -25 62q-12 20 -16 39l6 18l16 6 q29 -8 42.5 -36.5t13.5 -65.5q0 -66 -27 -137.5t-74 -145.5q-53 -78 -104 -121t-98 -43q-45 0 -77 35t-32 99z" />
<glyph unicode="&#xbb;" horiz-adv-x="600" d="M-66 0q39 72 125 160q78 80 154 135q-16 39 -16 78q0 55 20 98h23l-2 -29q0 -41 16 -76.5t49 -74.5q-111 -68 -184 -129q-88 -74 -156 -162h-29zM102 0q43 76 123 160q72 74 154 135q-16 37 -17 78q0 55 21 98h25l-5 -29q0 -41 16.5 -76.5t49.5 -74.5q-104 -63 -182 -129 q-92 -76 -158 -162h-27z" />
<glyph unicode="&#xbc;" horiz-adv-x="1269" d="M23 633q39 72 90 153.5t116 165.5q55 76 103.5 141.5t103.5 139.5q-127 -82 -258 -135l-12 43q41 14 85 33.5t91 48.5q70 37 110 59.5t54 28.5q20 0 20 -19q-4 -8 -26 -39q-6 -6 -12.5 -16t-14.5 -20q-2 -4 -4 -6.5t-4 -6.5q-10 -16 -23.5 -33.5t-33.5 -40.5h2 q-39 -59 -77 -119.5t-73 -125.5q-33 -53 -66.5 -116.5t-68.5 -135.5h-102zM100 35l1086 1362l59 -4l-1081 -1362zM756 223q102 92 182 189q82 88 82 159q0 4 -3 14.5t-7 18.5q-2 4 -5.5 8t-5.5 9l-16 32l16 27l31 8q29 0 46.5 -27.5t17.5 -54.5t-10.5 -54.5t-34 -63 t-63.5 -79.5t-99 -104q47 20 102 21h29q51 90 63 102q31 49 60.5 92t60.5 80l29 -14q-10 -18 -22.5 -39t-24.5 -43q-10 -16 -18.5 -33.5t-18.5 -34.5q-68 -115 -70 -129q6 -2 12.5 -4t12.5 -4q25 -10 41 -10q10 0 19 9t18 19q4 6 10 12.5t10 8.5l12 -4l11 -12 q0 -41 -42 -62.5t-96 -21.5h-20t-18 4q-29 -59 -56.5 -121t-48.5 -121h-100q4 10 10 21.5t10 19.5q29 61 55.5 111.5t63.5 107.5l-4 2v-2q-41 12 -78 12q-43 0 -68 -36q-29 -39 -51 -39l-18 8z" />
<glyph unicode="&#xbd;" horiz-adv-x="1529" d="M94 633q39 72 90.5 153.5t116.5 165.5q55 76 103.5 141.5t103.5 139.5q-127 -82 -258 -135l-12 43q41 14 85 33.5t91 48.5q70 37 110.5 59.5t53.5 28.5q20 0 20 -19q0 -2 -25 -39q-6 -6 -12 -16t-14 -20q-2 -4 -4 -6.5t-4 -6.5q-18 -27 -60 -74h2q-39 -59 -76.5 -119.5 t-72.5 -125.5q-33 -53 -66 -116.5t-67 -135.5h-105zM102 35l1086 1362l59 -4l-1081 -1362zM848 119q0 76 125 155q57 33 114.5 66t116.5 68q61 43 91 91t30 95t-28.5 79t-77.5 32q-55 0 -99.5 -36t-44.5 -89q0 -27 25 -35h-2q6 -2 13 -3t13 -3t14.5 -2t16.5 -2l8 -23 q-10 -43 -49 -43t-60.5 25.5t-21.5 58.5q0 88 72 141t156 54q66 0 109.5 -38t43.5 -100q0 -53 -30.5 -101t-88.5 -89q-20 -16 -76.5 -48t-146.5 -79q-123 -57 -139 -100q12 10 28.5 14t32.5 4q45 0 107 -39q57 -39 78 -39q29 0 51 29q14 18 33 59l26 -12q-20 -53 -39 -78 q-53 -57 -100 -57q-51 0 -113 49q-61 49 -84 49q-29 0 -34 -45q-6 -51 -33 -51q-37 0 -37 43z" />
<glyph unicode="&#xbe;" horiz-adv-x="1421" d="M102 35l1086 1362l57 -4l-1081 -1362zM137 868q0 41 32 71t79 30q25 0 43 -12.5t18 -38.5l-10 -23l-29 -8q-6 2 -13 4t-13 4q-10 0 -19.5 2t-15.5 4q-16 -2 -24.5 -12t-8.5 -27q0 -35 30 -52t66 -17q41 0 80 15t70 42q66 61 65 141q0 45 -23.5 62.5t-64.5 17.5h-30l16 29 q80 16 131 53q66 47 66 111q0 43 -27 67.5t-72 24.5q-39 0 -75.5 -25.5t-40.5 -64.5q2 -4 3 -8.5t3 -6.5q4 -2 5 -2t5 -2q20 -6 34.5 -14t14.5 -25q0 -16 -13 -27.5t-30 -11.5q-29 0 -47 21.5t-18 50.5q0 33 16 61.5t44 49t61.5 32t68.5 11.5q59 0 100 -30t41 -85t-69 -125 q-14 -10 -32.5 -22.5t-45.5 -24.5q31 -8 49 -34.5t18 -65.5q0 -49 -26.5 -92.5t-75.5 -84.5q-94 -70 -197 -69q-53 0 -92 22q-47 29 -47 84zM756 223q53 47 97 94.5t85 94.5q82 88 82 159q0 4 -3 14.5t-7 18.5q-2 4 -5.5 8t-5.5 9l-16 32l16 27l31 8q29 0 46.5 -27.5 t17.5 -54.5t-10.5 -54.5t-34 -63t-63.5 -79.5t-99 -104q47 20 102 21h29q51 90 63 102q31 49 60.5 92t62.5 80l27 -14q-10 -18 -21.5 -39t-23.5 -43q-10 -16 -19.5 -33.5t-19.5 -34.5q-68 -115 -70 -129q6 -2 12.5 -4t12.5 -4q25 -10 41 -10q10 0 20.5 9t18.5 19 q4 6 10 12.5t10 8.5l10 -4l11 -12q0 -41 -42 -62.5t-96 -21.5h-20t-18 4q-29 -59 -56.5 -121t-48.5 -121h-98q4 10 9 21.5t9 19.5q29 61 55.5 110.5t63.5 106.5l-4 4v-2q-41 12 -78 12q-41 0 -65 -36q-29 -39 -54 -39l-18 8z" />
<glyph unicode="&#xbf;" horiz-adv-x="679" d="M41 -47q0 100 111 194q104 74 208 150q113 84 113 158q0 41 -33 41q-31 0 -52 -33t-32 -70l-24 8q12 59 41 105q39 61 90 61q31 0 49 -20.5t18 -52.5q0 -82 -95 -172.5t-187 -174.5q-100 -106 -101 -208q0 -53 31 -86t84 -33q78 0 138.5 66.5t60.5 148.5q0 33 -16.5 60.5 t-49.5 27.5q-55 0 -78.5 -54.5t-23.5 -117.5h-27l-2 29q0 72 40 129t108 57q49 0 81.5 -33t32.5 -84q0 -113 -90 -189.5t-205 -76.5q-80 0 -135 45t-55 125zM471 666q0 29 23.5 58.5t52.5 29.5q43 0 43 -45q0 -29 -23.5 -58.5t-54.5 -29.5q-41 0 -41 45z" />
<glyph unicode="&#xc0;" horiz-adv-x="1839" d="M-82 115l14 37l37 14q31 -10 109 -103q63 -74 196 -73q156 0 293 84q115 72 226 207q78 96 176 256q-53 29 -67.5 42t-39.5 64l35 62q33 10 73 13t66 3h47q137 213 207 301q133 170 269 262q164 113 339 113q66 0 116 -11.5t106 -42.5l32 -53l-14 -35l-33 -14 q-37 8 -133 66q-78 45 -151 45q-190 0 -377 -236q-80 -100 -250 -401l248 -6h74q121 199 182 288q143 209 213 248l12 -10q-154 -260 -307 -520q158 18 188 88q20 45 64 63l33 -14q12 -25 12 -33q0 -80 -125 -114q-86 -25 -191 -25l-157 -303q59 -31 97 -76t38 -104 q0 -100 -98 -158q-82 -47 -191 -47q-47 0 -72 8q-43 14 -43 51q0 45 95 221q55 98 65 117l-266 107q-160 -248 -338 -381q-217 -162 -477 -162q-113 0 -197 31q-113 41 -135 131zM942 629q0 -14 9.5 -28.5t37.5 -31.5l68 107h-21q-49 0 -71.5 -12.5t-22.5 -34.5zM1083 524 l265 -104l149 258h-326zM1313 80q0 -18 17.5 -27.5t37.5 -9.5q66 0 120 46t54 112q0 49 -32.5 86t-84.5 59q-33 -70 -63 -139q-49 -111 -49 -127zM1470 1542q0 10 9.5 25.5t27.5 15.5t41 -24q23 -33 31 -43l61 -91l-18 -18l-94 66q-23 16 -35 28q-23 25 -23 41z" />
<glyph unicode="&#xc1;" horiz-adv-x="1880" d="M-82 115l14 37l37 14q31 -10 109 -103q63 -74 196 -73q156 0 293 84q115 72 226 207q78 96 176 256q-53 29 -67.5 42t-39.5 64l35 62q33 10 73 13t66 3h47q137 213 207 301q133 170 269 262q164 113 339 113q66 0 116 -11.5t106 -42.5l32 -53l-14 -35l-33 -14 q-37 8 -133 66q-78 45 -151 45q-190 0 -377 -236q-80 -100 -250 -401l248 -6h74q121 199 182 288q143 209 213 248l12 -10q-154 -260 -307 -520q158 18 188 88q20 45 64 63l33 -14q12 -25 12 -33q0 -80 -125 -114q-86 -25 -191 -25l-157 -303q59 -31 97 -76t38 -104 q0 -100 -98 -158q-82 -47 -191 -47q-47 0 -72 8q-43 14 -43 51q0 45 95 221q55 98 65 117l-266 107q-160 -248 -338 -381q-217 -162 -477 -162q-113 0 -197 31q-113 41 -135 131zM942 629q0 -14 9.5 -28.5t37.5 -31.5l68 107h-21q-49 0 -71.5 -12.5t-22.5 -34.5zM1083 524 l265 -104l149 258h-326zM1313 80q0 -18 17.5 -27.5t37.5 -9.5q66 0 120 46t54 112q0 49 -32.5 86t-84.5 59q-33 -70 -63 -139q-49 -111 -49 -127zM1462 1417q51 47 94 84q89 76 109 76q29 0 29 -39q0 -20 -17 -37q-8 -8 -65 -37l-133 -63z" />
<glyph unicode="&#xc2;" horiz-adv-x="1861" d="M-82 115l14 37l37 14q31 -10 109 -103q63 -74 196 -73q156 0 293 84q115 72 226 207q78 96 176 256q-53 29 -67.5 42t-39.5 64l35 62q33 10 73 13t66 3h47q137 213 207 301q133 170 269 262q164 113 339 113q66 0 116 -11.5t106 -42.5l32 -53l-14 -35l-33 -14 q-37 8 -133 66q-78 45 -151 45q-190 0 -377 -236q-80 -100 -250 -401l248 -6h74q121 199 182 288q143 209 213 248l12 -10q-154 -260 -307 -520q158 18 188 88q20 45 64 63l33 -14q12 -25 12 -33q0 -80 -125 -114q-86 -25 -191 -25l-157 -303q59 -31 97 -76t38 -104 q0 -100 -98 -158q-82 -47 -191 -47q-47 0 -72 8q-43 14 -43 51q0 45 95 221q55 98 65 117l-266 107q-160 -248 -338 -381q-217 -162 -477 -162q-113 0 -197 31q-113 41 -135 131zM942 629q0 -14 9.5 -28.5t37.5 -31.5l68 107h-21q-49 0 -71.5 -12.5t-22.5 -34.5zM1083 524 l265 -104l149 258h-326zM1313 80q0 -18 17.5 -27.5t37.5 -9.5q66 0 120 46t54 112q0 49 -32.5 86t-84.5 59q-33 -70 -63 -139q-49 -111 -49 -127zM1382 1477l9 24q43 12 92 34t137 69q70 -74 141 -119l-4 -21q-90 25 -174 76q-49 -18 -102.5 -37.5t-98.5 -25.5z" />
<glyph unicode="&#xc3;" horiz-adv-x="1794" d="M-82 115l14 37l37 14q31 -10 109 -103q63 -74 196 -73q156 0 293 84q115 72 226 207q78 96 176 256q-53 29 -67.5 42t-39.5 64l35 62q33 10 73 13t66 3h47q137 213 207 301q133 170 269 262q164 113 339 113q66 0 116 -11.5t106 -42.5l32 -53l-14 -35l-33 -14 q-37 8 -133 66q-78 45 -151 45q-190 0 -377 -236q-80 -100 -250 -401l248 -6h74q121 199 182 288q143 209 213 248l12 -10q-154 -260 -307 -520q158 18 188 88q20 45 64 63l33 -14q12 -25 12 -33q0 -80 -125 -114q-86 -25 -191 -25l-157 -303q59 -31 97 -76t38 -104 q0 -100 -98 -158q-82 -47 -191 -47q-47 0 -72 8q-43 14 -43 51q0 45 95 221q55 98 65 117l-266 107q-160 -248 -338 -381q-217 -162 -477 -162q-113 0 -197 31q-113 41 -135 131zM942 629q0 -14 9.5 -28.5t37.5 -31.5l68 107h-21q-49 0 -71.5 -12.5t-22.5 -34.5zM1083 524 l265 -104l149 258h-326zM1313 80q0 -18 17.5 -27.5t37.5 -9.5q66 0 120 46t54 112q0 49 -32.5 86t-84.5 59q-33 -70 -63 -139q-49 -111 -49 -127zM1315 1466q27 39 47 58q31 29 68 28q25 0 61 -16q82 -37 100 -37t33.5 15.5t30.5 37.5l16 -8q-18 -43 -41 -65 q-31 -31 -71 -31q-25 0 -62 16q-82 37 -96 37q-20 0 -39 -14q-10 -8 -29 -31z" />
<glyph unicode="&#xc4;" horiz-adv-x="1822" d="M-82 115l14 37l37 14q31 -10 109 -103q63 -74 196 -73q156 0 293 84q115 72 226 207q78 96 176 256q-53 29 -67.5 42t-39.5 64l35 62q33 10 73 13t66 3h47q137 213 207 301q133 170 269 262q164 113 339 113q66 0 116 -11.5t106 -42.5l32 -53l-14 -35l-33 -14 q-37 8 -133 66q-78 45 -151 45q-190 0 -377 -236q-80 -100 -250 -401l248 -6h74q121 199 182 288q143 209 213 248l12 -10q-154 -260 -307 -520q158 18 188 88q20 45 64 63l33 -14q12 -25 12 -33q0 -80 -125 -114q-86 -25 -191 -25l-157 -303q59 -31 97 -76t38 -104 q0 -100 -98 -158q-82 -47 -191 -47q-47 0 -72 8q-43 14 -43 51q0 45 95 221q55 98 65 117l-266 107q-160 -248 -338 -381q-217 -162 -477 -162q-113 0 -197 31q-113 41 -135 131zM942 629q0 -14 9.5 -28.5t37.5 -31.5l68 107h-21q-49 0 -71.5 -12.5t-22.5 -34.5zM1083 524 l265 -104l149 258h-326zM1313 80q0 -18 17.5 -27.5t37.5 -9.5q66 0 120 46t54 112q0 49 -32.5 86t-84.5 59q-33 -70 -63 -139q-49 -111 -49 -127zM1438 1552q0 33 22.5 65t52.5 32q23 0 28 -16.5t5 -30.5q0 -29 -21 -60t-50 -31q-37 0 -37 41zM1624 1552q0 31 22.5 64 t51.5 33q33 0 33 -43q0 -33 -20.5 -64t-51.5 -31q-35 0 -35 41z" />
<glyph unicode="&#xc5;" horiz-adv-x="1902" d="M-82 115l14 37l37 14q31 -10 109 -103q63 -74 196 -73q156 0 293 84q115 72 226 207q78 96 176 256q-53 29 -67.5 42t-39.5 64l35 62q33 10 73 13t66 3h47q137 213 207 301q133 170 269 262q164 113 339 113q66 0 116 -11.5t106 -42.5l32 -53l-14 -35l-33 -14 q-37 8 -133 66q-78 45 -151 45q-190 0 -377 -236q-80 -100 -250 -401l248 -6h74q121 199 182 288q143 209 213 248l12 -10q-154 -260 -307 -520q158 18 188 88q20 45 64 63l33 -14q12 -25 12 -33q0 -80 -125 -114q-86 -25 -191 -25l-157 -303q59 -31 97 -76t38 -104 q0 -100 -98 -158q-82 -47 -191 -47q-47 0 -72 8q-43 14 -43 51q0 45 95 221q55 98 65 117l-266 107q-160 -248 -338 -381q-217 -162 -477 -162q-113 0 -197 31q-113 41 -135 131zM942 629q0 -14 9.5 -28.5t37.5 -31.5l68 107h-21q-49 0 -71.5 -12.5t-22.5 -34.5zM1083 524 l265 -104l149 258h-326zM1313 80q0 -18 17.5 -27.5t37.5 -9.5q66 0 120 46t54 112q0 49 -32.5 86t-84.5 59q-33 -70 -63 -139q-49 -111 -49 -127zM1567 1520q0 53 41 94t94 41q74 0 74 -70q0 -55 -40 -97t-94 -42q-76 0 -75 74zM1614 1522q0 -39 37 -39q29 0 54.5 33.5 t25.5 64.5q0 41 -33 41q-35 0 -59.5 -31.5t-24.5 -68.5z" />
<glyph unicode="&#xc6;" horiz-adv-x="2709" d="M-82 115l14 37l37 14q31 -10 109 -103q63 -74 196 -73q156 0 293 84q115 72 226 207q78 96 176 256q-53 29 -67.5 42t-39.5 64l35 62q33 10 73 13t66 3h47q137 213 207 301q133 170 269 262q164 113 339 113q66 0 116 -11.5t106 -42.5l32 -53l-14 -35l-33 -14 q-37 8 -133 66q-78 45 -151 45q-190 0 -377 -236q-80 -100 -250 -401l283 -39q160 231 221 321q143 209 213 248l12 -10q-135 -229 -276 -459q39 27 77 47q121 63 244 84l-6 51q0 168 190 291q170 109 349 109q102 0 176 -39q94 -49 94 -143q0 -98 -74 -156 q-66 -51 -166 -51q-41 0 -73 8q-61 -166 -306 -270q-217 -92 -446 -93q-66 0 -127 11q-104 -127 -104 -287q0 -131 78.5 -208t211.5 -77q139 0 283 92q162 104 162 236q0 47 -35 80t-84 33q-37 0 -81 -20.5t-99 -80.5l-17 21q45 66 107 102q70 43 141 43q57 0 97 -36t40 -95 q0 -176 -217 -313q-193 -123 -383 -123q-139 0 -236 77.5t-97 215.5q2 45 10 92l-291 112q-160 -241 -338 -374q-217 -162 -477 -162q-113 0 -197 31q-113 41 -135 131zM942 629q0 -14 9.5 -28.5t37.5 -31.5l68 107h-21q-49 0 -71.5 -12.5t-22.5 -34.5zM1083 524l279 -104 l96 221l-287 37zM1604 655q23 -4 56 -6t64 -2q209 0 400 82q223 96 303 260q-68 39 -68 107l15 37l34 14q29 0 46.5 -17.5t17.5 -68.5q0 -33 -6 -55q20 -6 30.5 -8.5t30.5 -2.5q61 0 109.5 44t48.5 106q0 82 -69.5 126t-155.5 44q-154 0 -285 -96q-143 -104 -143 -254l6 -54 q43 0 81 -15t38 -52l-19 -31q-25 -12 -43 -12q-37 0 -67.5 20.5t-47.5 52.5q-115 -10 -208 -71q-63 -41 -168 -148z" />
<glyph unicode="&#xc7;" horiz-adv-x="1677" d="M86 1016q0 117 102 207q92 80 218 104l6 -24q-96 -43 -156 -117q-68 -84 -68 -180q0 -94 60 -154q51 -53 149 -80q184 223 420 381q287 193 522 193q96 0 160 -37q82 -47 82 -138q0 -111 -96 -188.5t-211 -77.5q-41 0 -79 11.5t-67 33.5q-102 -129 -294 -184 q-147 -43 -355 -43q-66 -96 -108 -203q-49 -123 -49 -225q0 -111 75.5 -172.5t188.5 -61.5q145 0 286 101q158 113 158 252q0 47 -30.5 79.5t-77.5 32.5q-57 0 -107 -39q-37 -29 -76 -86l-24 13q33 82 100 137q76 61 160 61q57 0 94 -38.5t37 -98.5q0 -184 -219 -342 q-205 -147 -400 -147l-34 -43l16 2q12 0 22.5 -4t22.5 -11q8 -20 16 -43q0 -47 -51 -87t-164 -72l-6 22q66 20 86 33q47 27 62 70l-13 26l-30 10l-27 -6l-10 13l78 94q-123 18 -197 93t-74 198q0 117 53.5 241.5t135.5 218.5q-113 20 -193 88q-94 80 -94 187zM504 756l67 -2 q158 0 297.5 53t235.5 166q-33 43 -33 88q0 29 14.5 50.5t40.5 21.5q25 0 37.5 -19.5t12.5 -48.5q0 -47 -29 -86q23 -20 53.5 -29.5t63.5 -9.5q90 0 162.5 59.5t72.5 147.5q0 76 -61.5 116t-141.5 40q-203 0 -448 -185q-219 -164 -344 -362z" />
<glyph unicode="&#xc8;" horiz-adv-x="1556" d="M0 928q0 150 125 241q113 84 268 84q106 0 203 -39l-14 -26q-43 14 -82 21.5t-78 7.5q-135 0 -235.5 -88.5t-100.5 -221.5q0 -88 55.5 -148.5t145.5 -88.5q86 88 204.5 149.5t241.5 79.5l-6 53q0 166 191 289q172 111 348 111q102 0 176 -39q94 -49 94 -144 q0 -98 -74 -155q-66 -51 -166 -51q-41 0 -73 8q-59 -166 -305 -271q-217 -92 -447 -92q-66 0 -127 10q-104 -127 -104 -286q0 -131 79.5 -209t210.5 -78q137 0 283 94q162 104 162 236q0 47 -35 79.5t-84 32.5q-39 0 -80 -20.5t-100 -79.5l-17 21q45 61 111 102t139 41 q55 0 95 -36t40 -93q0 -174 -217 -313q-193 -123 -383 -123q-137 0 -231 75q-102 82 -102 218q0 98 39.5 190t109.5 170q-115 39 -180 102q-80 78 -80 187zM369 649q67 -10 120 -10q205 0 400 84q223 96 305 260q-31 16 -50.5 44t-19.5 63l15 36l35 15q35 0 49 -25.5 t14 -64.5v-27q-4 -18 -4 -25q31 -10 61 -10q61 0 109.5 44t48.5 106q0 84 -69.5 127t-157.5 43q-154 0 -285 -97q-143 -104 -143 -254l6 -53q43 0 81 -15.5t38 -51.5l-19 -31q-25 -12 -43 -12q-80 0 -115 73q-113 -10 -208 -73q-66 -43 -168 -146zM653 1509q0 39 37 39 q18 0 41 -24q10 -10 29 -41l63 -90l-18 -19l-96 66q-29 23 -35 28q-20 20 -21 41z" />
<glyph unicode="&#xc9;" horiz-adv-x="1572" d="M0 928q0 150 125 241q113 84 268 84q106 0 203 -39l-14 -26q-43 14 -82 21.5t-78 7.5q-135 0 -235.5 -88.5t-100.5 -221.5q0 -88 55.5 -148.5t145.5 -88.5q86 88 204.5 149.5t241.5 79.5l-6 53q0 166 191 289q172 111 348 111q102 0 176 -39q94 -49 94 -144 q0 -98 -74 -155q-66 -51 -166 -51q-41 0 -73 8q-59 -166 -305 -271q-217 -92 -447 -92q-66 0 -127 10q-104 -127 -104 -286q0 -131 79.5 -209t210.5 -78q137 0 283 94q162 104 162 236q0 47 -35 79.5t-84 32.5q-39 0 -80 -20.5t-100 -79.5l-17 21q45 61 111 102t139 41 q55 0 95 -36t40 -93q0 -174 -217 -313q-193 -123 -383 -123q-137 0 -231 75q-102 82 -102 218q0 98 39.5 190t109.5 170q-115 39 -180 102q-80 78 -80 187zM369 649q67 -10 120 -10q205 0 400 84q223 96 305 260q-31 16 -50.5 44t-19.5 63l15 36l35 15q35 0 49 -25.5 t14 -64.5v-27q-4 -18 -4 -25q31 -10 61 -10q61 0 109.5 44t48.5 106q0 84 -69.5 127t-157.5 43q-154 0 -285 -97q-143 -104 -143 -254l6 -53q43 0 81 -15.5t38 -51.5l-19 -31q-25 -12 -43 -12q-80 0 -115 73q-113 -10 -208 -73q-66 -43 -168 -146zM686 1417q51 47 94 84 q89 76 109 76q29 0 29 -39q0 -20 -17 -37q-8 -8 -65 -37l-134 -63z" />
<glyph unicode="&#xca;" horiz-adv-x="1566" d="M0 928q0 150 125 241q113 84 268 84q106 0 203 -39l-14 -26q-43 14 -82 21.5t-78 7.5q-135 0 -235.5 -88.5t-100.5 -221.5q0 -88 55.5 -148.5t145.5 -88.5q86 88 204.5 149.5t241.5 79.5l-6 53q0 166 191 289q172 111 348 111q102 0 176 -39q94 -49 94 -144 q0 -98 -74 -155q-66 -51 -166 -51q-41 0 -73 8q-59 -166 -305 -271q-217 -92 -447 -92q-66 0 -127 10q-104 -127 -104 -286q0 -131 79.5 -209t210.5 -78q137 0 283 94q162 104 162 236q0 47 -35 79.5t-84 32.5q-39 0 -80 -20.5t-100 -79.5l-17 21q45 61 111 102t139 41 q55 0 95 -36t40 -93q0 -174 -217 -313q-193 -123 -383 -123q-137 0 -231 75q-102 82 -102 218q0 98 39.5 190t109.5 170q-115 39 -180 102q-80 78 -80 187zM369 649q67 -10 120 -10q205 0 400 84q223 96 305 260q-31 16 -50.5 44t-19.5 63l15 36l35 15q35 0 49 -25.5 t14 -64.5v-27q-4 -18 -4 -25q31 -10 61 -10q61 0 109.5 44t48.5 106q0 84 -69.5 127t-157.5 43q-154 0 -285 -97q-143 -104 -143 -254l6 -53q43 0 81 -15.5t38 -51.5l-19 -31q-25 -12 -43 -12q-80 0 -115 73q-113 -10 -208 -73q-66 -43 -168 -146zM588 1423l8 25 q66 23 117 45q28 12 112 57q29 -31 67 -62.5t77 -55.5l-6 -19q-47 10 -86 27.5t-89 46.5q-70 -27 -98 -37q-57 -20 -102 -27z" />
<glyph unicode="&#xcb;" horiz-adv-x="1566" d="M0 928q0 150 125 241q113 84 268 84q106 0 203 -39l-14 -26q-43 14 -82 21.5t-78 7.5q-135 0 -235.5 -88.5t-100.5 -221.5q0 -88 55.5 -148.5t145.5 -88.5q86 88 204.5 149.5t241.5 79.5l-6 53q0 166 191 289q172 111 348 111q102 0 176 -39q94 -49 94 -144 q0 -98 -74 -155q-66 -51 -166 -51q-41 0 -73 8q-59 -166 -305 -271q-217 -92 -447 -92q-66 0 -127 10q-104 -127 -104 -286q0 -131 79.5 -209t210.5 -78q137 0 283 94q162 104 162 236q0 47 -35 79.5t-84 32.5q-39 0 -80 -20.5t-100 -79.5l-17 21q45 61 111 102t139 41 q55 0 95 -36t40 -93q0 -174 -217 -313q-193 -123 -383 -123q-137 0 -231 75q-102 82 -102 218q0 98 39.5 190t109.5 170q-115 39 -180 102q-80 78 -80 187zM369 649q67 -10 120 -10q205 0 400 84q223 96 305 260q-31 16 -50.5 44t-19.5 63l15 36l35 15q35 0 49 -25.5 t14 -64.5v-27q-4 -18 -4 -25q31 -10 61 -10q61 0 109.5 44t48.5 106q0 84 -69.5 127t-157.5 43q-154 0 -285 -97q-143 -104 -143 -254l6 -53q43 0 81 -15.5t38 -51.5l-19 -31q-25 -12 -43 -12q-80 0 -115 73q-113 -10 -208 -73q-66 -43 -168 -146zM645 1473q0 31 22.5 62.5 t51.5 31.5q33 0 33 -45q0 -31 -20.5 -60.5t-49.5 -29.5q-37 0 -37 41zM831 1473q0 33 21.5 63.5t52.5 30.5q33 0 33 -43q0 -33 -20.5 -62.5t-51.5 -29.5q-35 0 -35 41z" />
<glyph unicode="&#xcc;" horiz-adv-x="1456" d="M-90 186q0 66 45 115t111 49q14 0 33.5 -6t37.5 -12l29 -51l-12 -29l-25 -14l-78 22l-63 -29q-10 -23 -15 -34q-12 -29 -12 -35q0 -92 102 -144q82 -41 187 -41q152 0 307 66q168 72 250 186q-100 53 -154.5 153.5t-54.5 219.5q0 324 315 551q287 207 623 207 q117 0 211 -21q145 -31 168 -96l-10 -22l-25 -11q-45 0 -244 72q-96 35 -168 35q-307 0 -547.5 -236.5t-240.5 -541.5q0 -92 37 -169t112 -114q100 86 252 360q170 307 262 414q170 199 375 199q27 0 54.5 -12.5t42.5 -34.5l-11 -23l-22 -8q-41 10 -70 16.5t-53 6.5 q-123 0 -268 -197q-74 -100 -248 -410q-150 -266 -223 -340l71 -6q150 0 279 82l8 -29q-133 -88 -285 -88q-51 0 -104 13q-156 -125 -297 -185q-164 -69 -344 -69q-129 0 -223 55q-115 68 -115 186zM965 1513q0 10 9 25.5t27 15.5t41 -24q23 -33 31 -43l62 -90l-19 -19 l-94 66q-23 16 -35 29q-23 25 -22 40z" />
<glyph unicode="&#xcd;" horiz-adv-x="1452" d="M-88 186q0 66 45 115t111 49q14 0 33.5 -6t37.5 -12l29 -51l-12 -29l-25 -14l-78 22l-63 -29q-10 -23 -15 -34q-12 -29 -12 -35q0 -92 103 -144q82 -41 186 -41q152 0 307 66q168 72 250 186q-100 53 -154.5 153.5t-54.5 219.5q0 324 315 551q287 207 623 207 q117 0 211 -21q145 -31 168 -96l-10 -22l-25 -11q-45 0 -244 72q-96 35 -168 35q-307 0 -547.5 -236.5t-240.5 -541.5q0 -92 37 -169t112 -114q100 86 252 360q170 307 263 414q170 199 374 199q27 0 54.5 -12.5t42.5 -34.5l-11 -23l-22 -8q-41 10 -69.5 16.5t-53.5 6.5 q-123 0 -268 -197q-74 -100 -248 -410q-150 -266 -223 -340l71 -6q150 0 279 82l8 -29q-133 -88 -285 -88q-51 0 -104 13q-156 -125 -297 -185q-164 -69 -344 -69q-129 0 -223 55q-115 68 -115 186zM956 1417q51 47 95 84q88 76 108 76q29 0 29 -39q0 -20 -17 -37 q-8 -8 -65 -37l-133 -63z" />
<glyph unicode="&#xce;" horiz-adv-x="1452" d="M-88 186q0 66 45 115t111 49q14 0 33.5 -6t37.5 -12l29 -51l-12 -29l-25 -14l-78 22l-63 -29q-10 -23 -15 -34q-12 -29 -12 -35q0 -92 103 -144q82 -41 186 -41q152 0 307 66q168 72 250 186q-100 53 -154.5 153.5t-54.5 219.5q0 324 315 551q287 207 623 207 q117 0 211 -21q145 -31 168 -96l-10 -22l-25 -11q-45 0 -244 72q-96 35 -168 35q-307 0 -547.5 -236.5t-240.5 -541.5q0 -92 37 -169t112 -114q100 86 252 360q170 307 263 414q170 199 374 199q27 0 54.5 -12.5t42.5 -34.5l-11 -23l-22 -8q-41 10 -69.5 16.5t-53.5 6.5 q-123 0 -268 -197q-74 -100 -248 -410q-150 -266 -223 -340l71 -6q150 0 279 82l8 -29q-133 -88 -285 -88q-51 0 -104 13q-156 -125 -297 -185q-164 -69 -344 -69q-129 0 -223 55q-115 68 -115 186zM805 1393l8 24q43 12 92 34t137 69q70 -74 142 -119l-4 -21 q-90 25 -174 76q-49 -18 -102.5 -37.5t-98.5 -25.5z" />
<glyph unicode="&#xcf;" horiz-adv-x="1540" d="M-88 186q0 66 45 115t111 49q14 0 33.5 -6t37.5 -12l29 -51l-12 -29l-25 -14l-78 22l-63 -29q-10 -23 -15 -34q-12 -29 -12 -35q0 -92 103 -144q82 -41 186 -41q152 0 307 66q168 72 250 186q-100 53 -154.5 153.5t-54.5 219.5q0 324 315 551q287 207 623 207 q117 0 211 -21q145 -31 168 -96l-10 -22l-25 -11q-45 0 -244 72q-96 35 -168 35q-307 0 -547.5 -236.5t-240.5 -541.5q0 -92 37 -169t112 -114q100 86 252 360q170 307 263 414q170 199 374 199q27 0 54.5 -12.5t42.5 -34.5l-11 -23l-22 -8q-41 10 -69.5 16.5t-53.5 6.5 q-123 0 -268 -197q-74 -100 -248 -410q-150 -266 -223 -340l71 -6q150 0 279 82l8 -29q-133 -88 -285 -88q-51 0 -104 13q-156 -125 -297 -185q-164 -69 -344 -69q-129 0 -223 55q-115 68 -115 186zM977 1460q0 33 22.5 64.5t53.5 31.5q23 0 27.5 -16t4.5 -31 q0 -29 -21 -59.5t-50 -30.5q-37 0 -37 41zM1163 1460q0 31 22.5 63.5t51.5 32.5q33 0 33 -43q0 -33 -20.5 -63.5t-51.5 -30.5q-35 0 -35 41z" />
<glyph unicode="&#xd0;" horiz-adv-x="1763" d="M-4 12q0 37 47 51.5t119 14.5q25 0 64.5 -2t47.5 -2q154 0 281 51q137 57 195 129q-133 39 -218 166t-77 285q4 276 245 469q225 180 510 180q227 0 381 -121q168 -133 168 -356q0 -375 -325 -639q-305 -248 -689 -248q-82 0 -247.5 16.5t-247.5 16.5q-59 0 -133 -21 l-82 -25zM451 57q49 0 213 -20q82 -10 131 -10q346 0 588.5 236.5t242.5 582.5q0 211 -125 336t-338 125q-256 0 -435 -166t-183 -420q-6 -133 56.5 -265t186.5 -165q29 43 80 135q6 10 21 39h-236v43h258q27 55 72 149q-43 14 -70.5 51t-25.5 93q10 68 106 117 q96 35 232 34q53 49 94 74q57 35 113 35q8 0 20 -5t18 -7l15 -29q0 -61 -99 -86q-57 -14 -147 -14q-45 -57 -72 -105q-23 -51 -69 -143l39 4q41 4 96 29q41 18 94 63l10 -25q-92 -106 -254 -108q-25 -72 -49 -127h314v-43h-334q-16 -31 -31 -55q-49 -82 -100 -140l26 -2 q49 0 100.5 12.5t108.5 36.5l6 -28q-59 -29 -124.5 -40t-145.5 -11q-155 -134 -403 -181zM958 782q0 -55 56 -77q47 78 86 120.5t94 96.5q-109 -10 -170 -37q-70 -52 -66 -103z" />
<glyph unicode="&#xd1;" horiz-adv-x="2031" d="M-145 125l14 35l37 14q20 -6 102 -104q70 -82 219 -82q115 0 273 73q174 82 215 175q-100 45 -154.5 143t-54.5 213q0 332 328 561q297 207 643 207q111 0 163 -10q100 -18 136 -76q0 -29 -29 -29q-53 0 -117 21q-158 51 -207 51q-322 0 -569 -221q-256 -229 -256 -549 q0 -86 36 -161t107 -118q35 47 230 365q168 274 293 409q182 197 344 197q12 0 30.5 -4t34.5 -8l23 -37q0 -27 -29 -27q-12 0 -29 4q-41 10 -43 11q-102 0 -168 -211q-47 -150 -75 -422q-14 -162 -29 -322q39 55 268 459q186 330 336 483q217 225 455 226q23 0 45 -5.5 t57 -15.5l39 -49l-16 -37q-20 -14 -53 -14q-23 0 -70 8t-64 8q-260 0 -508 -342q-193 -317 -385 -635q-219 -342 -411 -342q-45 0 -66 41l13 27q16 10 38 10q10 0 58 -10q18 -4 35 -4q10 0 27.5 7t31.5 13q57 51 90 314q47 373 74 477q70 268 219 350q-111 -12 -260 -211 q-78 -104 -258 -406q-156 -260 -221 -331q14 0 41.5 -5.5t33.5 -5.5q43 0 85 10.5t108 53.5l20 -25q-51 -37 -98 -52t-102 -15q-45 0 -113 10q-123 -123 -254 -188q-147 -74 -305 -74q-117 0 -209 35q-121 45 -149 137zM1102 1458q27 39 47 58q31 29 68 28q25 0 61 -16 q82 -37 100 -37t33.5 15.5t30.5 37.5l16 -8q-18 -43 -41 -66q-31 -31 -71 -30q-25 0 -62 16q-82 37 -96 37q-20 0 -39 -14q-10 -8 -29 -31z" />
<glyph unicode="&#xd2;" horiz-adv-x="1570" d="M18 899q0 152 140 240q123 78 278 78q23 0 52.5 -1.5t74.5 -15.5l-14 -26q-23 4 -43.5 6t-48.5 2q-143 0 -246 -78q-113 -86 -113 -227q0 -84 52.5 -146.5t136.5 -89.5q154 260 440 465q313 225 586 225q109 0 176 -45q82 -53 82 -158q0 -68 -32 -127t-89 -104 q0 -332 -304 -630t-638 -298q-150 0 -242 86t-92 234q0 84 27 166q16 53 67 157q-104 33 -172 105q-78 80 -78 182zM303 305q0 -131 79 -199.5t210 -68.5q289 0 537.5 263t248.5 552q-49 -31 -105.5 -48.5t-111.5 -17.5q-106 0 -190 52q-74 -129 -217 -195 q-129 -59 -291 -59h-49q-23 4 -31 4q-29 -41 -54.5 -133.5t-25.5 -149.5zM399 621l66 -3q154 0 274 56q135 61 207 186q-45 35 -45 92l12 41l31 15q53 -14 53 -78q0 -31 -10 -58q31 -27 78 -39t94 -12q55 0 112.5 18.5t104.5 51.5q-10 76 -47 123q-43 55 -117 55 q-29 0 -60.5 -12.5t-57.5 -28.5l-23 4q20 51 70.5 85t107.5 34q82 0 135 -59q47 -53 60 -138q57 51 57 133q0 94 -70.5 146.5t-168.5 52.5q-242 0 -504 -225q-219 -188 -359 -440zM670 1509q0 39 37 39q18 0 41 -24q10 -10 28 -41l64 -90l-19 -19l-96 66q-29 23 -35 28 q-20 20 -20 41z" />
<glyph unicode="&#xd3;" horiz-adv-x="1554" d="M0 899q0 152 139 242q121 78 279 78q66 0 127 -19l-13 -24l-92 6q-143 0 -245 -78q-113 -86 -113 -225q0 -84 51 -147.5t137 -90.5q154 258 441 465q313 225 585 225q106 0 177 -45q82 -53 81 -156q0 -70 -31.5 -129t-90.5 -104q0 -330 -303.5 -629t-636.5 -299 q-150 0 -243 85t-93 235q0 86 26 166q18 55 70 157q-104 33 -174 105q-78 80 -78 182zM287 305q0 -129 77.5 -198.5t210.5 -69.5q289 0 537 262t248 553q-102 -64 -217 -64q-57 0 -101.5 11.5t-87.5 40.5q-76 -129 -210 -192.5t-293 -63.5q-43 0 -86 6q-29 -41 -53.5 -136.5 t-24.5 -148.5zM381 623l68 -5q154 0 274 56q135 61 205 186q-45 35 -45 92l14 41l31 17q51 -14 51 -78q0 -31 -10 -58q33 -27 80 -40t92 -13q55 0 113.5 18.5t105.5 51.5q-10 78 -47 123q-45 55 -119 55q-29 0 -58.5 -11t-60.5 -30l-22 4q20 53 71.5 86t108.5 33 q80 0 131 -56.5t63 -140.5q55 53 56 133q0 94 -71 146.5t-167 52.5q-240 0 -504 -225q-223 -190 -360 -438zM756 1411q61 55 125 113q57 47 77 47q27 0 27 -39q0 -29 -27 -47q-2 -2 -55 -27l-133 -63z" />
<glyph unicode="&#xd4;" horiz-adv-x="1570" d="M18 899q0 152 140 240q123 78 278 78q23 0 52.5 -1.5t74.5 -15.5l-14 -26q-23 4 -43.5 6t-48.5 2q-143 0 -246 -78q-113 -86 -113 -227q0 -84 52.5 -146.5t136.5 -89.5q154 260 440 465q313 225 586 225q109 0 176 -45q82 -53 82 -158q0 -68 -32 -127t-89 -104 q0 -332 -304 -630t-638 -298q-150 0 -242 86t-92 234q0 84 27 166q16 53 67 157q-104 33 -172 105q-78 80 -78 182zM303 305q0 -131 79 -199.5t210 -68.5q289 0 537.5 263t248.5 552q-49 -31 -105.5 -48.5t-111.5 -17.5q-106 0 -190 52q-74 -129 -217 -195 q-129 -59 -291 -59h-49q-23 4 -31 4q-29 -41 -54.5 -133.5t-25.5 -149.5zM399 621l66 -3q154 0 274 56q135 61 207 186q-45 35 -45 92l12 41l31 15q53 -14 53 -78q0 -31 -10 -58q31 -27 78 -39t94 -12q55 0 112.5 18.5t104.5 51.5q-10 76 -47 123q-43 55 -117 55 q-29 0 -60.5 -12.5t-57.5 -28.5l-23 4q20 51 70.5 85t107.5 34q82 0 135 -59q47 -53 60 -138q57 51 57 133q0 94 -70.5 146.5t-168.5 52.5q-242 0 -504 -225q-219 -188 -359 -440zM690 1417l8 25q57 18 90.5 32.5t139.5 71.5q39 -39 70.5 -67.5t70.5 -53.5l-4 -18 q-37 8 -74 22.5t-100 51.5q-66 -25 -98 -35q-61 -20 -103 -29z" />
<glyph unicode="&#xd5;" horiz-adv-x="1558" d="M6 911q0 150 139 240q121 78 279 78q23 0 52.5 -1t74.5 -16l-14 -26q-23 4 -43.5 6t-49.5 2q-143 0 -245 -78q-113 -86 -113 -227q0 -86 52 -147.5t136 -88.5q154 258 441 463q315 225 585 225q106 0 177 -45q82 -53 82 -155q0 -68 -32 -127.5t-89 -104.5 q0 -332 -304.5 -629.5t-637.5 -297.5q-150 0 -242 86t-92 233q0 84 26 166q16 53 68 156q-106 37 -172 104q-78 80 -78 184zM293 315q0 -129 78 -198.5t209 -69.5q289 0 537.5 263t248.5 552q-53 -33 -104.5 -48t-112.5 -15q-106 0 -191 51q-74 -129 -217 -195 q-129 -59 -290 -59h-50q-23 4 -30 4q-31 -41 -54.5 -132t-23.5 -153zM387 633l66 -2q156 0 274 53q135 61 207 186q-45 35 -45 95l12 39l33 16q51 -14 51 -78q0 -31 -10 -57q31 -27 78 -39t94 -12q119 0 219 67q-12 80 -49 125q-43 53 -117 53q-29 0 -60.5 -12t-58.5 -29 l-22 6q20 51 70.5 85t109.5 34q80 0 133 -59q47 -53 60 -137q57 49 57 133q0 96 -68.5 146t-171.5 50q-240 0 -504 -225q-221 -188 -358 -438zM545 1423q27 39 47 58q33 29 67 28q29 0 82.5 -26.5t79.5 -26.5q20 0 35.5 15.5t28.5 37.5l18 -8q-20 -43 -43 -65 q-31 -31 -72 -31q-27 0 -80 26.5t-75 26.5q-18 0 -35.5 -12t-34.5 -33z" />
<glyph unicode="&#xd6;" horiz-adv-x="1558" d="M6 915q0 152 139 242q121 78 279 78q66 0 127 -18l-14 -25l-93 6q-143 0 -249.5 -81t-106.5 -222q0 -84 51 -147.5t135 -90.5q156 260 441 465q313 225 585 226q109 0 177 -45q82 -53 82 -156q0 -70 -32 -129.5t-89 -104.5q0 -332 -304.5 -629.5t-637.5 -297.5 q-150 0 -242 86t-92 233q0 86 26 166q18 55 70 158q-104 33 -174 104q-78 80 -78 182zM293 322q0 -129 78 -199t209 -70q289 0 537.5 263.5t248.5 551.5q-102 -63 -217 -63q-57 0 -101 11t-90 40q-74 -127 -215 -194q-129 -61 -286 -62q-43 0 -86 6q-31 -41 -54.5 -132 t-23.5 -152zM387 639l66 -4q156 0 276 55q135 61 205 187q-45 35 -45 92l14 41l31 16q51 -14 51 -78q0 -31 -10 -57q33 -27 80 -40t92 -13q55 0 112.5 18t106.5 51q-12 76 -49 123q-45 55 -117 55q-29 0 -60.5 -12t-58.5 -29l-22 5q18 51 70.5 84.5t109.5 33.5q80 0 133 -59 q47 -53 60 -137q57 51 57 133q0 94 -70.5 146.5t-169.5 52.5q-238 0 -501 -226q-223 -190 -361 -438zM705 1458q0 31 21.5 63.5t51.5 32.5q14 0 23.5 -9t9.5 -36q0 -29 -21.5 -60.5t-50.5 -31.5q-35 0 -34 41zM891 1460q0 31 22.5 62.5t51.5 31.5q33 0 32 -43 q0 -29 -21 -61.5t-50 -32.5q-35 0 -35 43z" />
<glyph unicode="&#xd7;" horiz-adv-x="1024" d="M188 109l2 41l275 268q-31 29 -64.5 63.5t-62.5 63.5q-23 29 -48.5 54.5l-53.5 53.5l-29 29q-4 4 -8 14.5t0 16.5q33 33 55 10l254 -260q31 29 65.5 62.5t71.5 70.5t76 75t67 66q12 12 29 -4q20 -23 18.5 -31t-12.5 -18l-270 -266l31.5 -31.5t31.5 -34.5q10 -10 35 -35.5 t35 -33.5q14 -18 34.5 -40t42 -43.5l42 -42t37.5 -34.5q16 -29 -11 -39v2q-20 -20 -40 0l-283 287q-55 -51 -113.5 -108.5t-113.5 -112.5l-48 -48z" />
<glyph unicode="&#xd8;" horiz-adv-x="1499" d="M57 305q0 86 27 166q18 55 70 158q172 289 456 493q268 193 508 221l92 154h54l-90 -149h22q109 0 176 -45q82 -53 86 -148q-4 -68 -19.5 -101.5t-52.5 -66.5l-24 25q25 25 22 92q0 94 -71 145q-70 51 -166 54l-92 -152q39 16 80 16q80 0 133 -59q66 -57 63 -197 q2 -330 -302 -627.5t-638 -297.5q-16 0 -33 2l-112 -189h-56l117 195q-94 16 -157 78q-92 86 -93 233zM188 322q0 -129 78 -199q37 -35 88 -53l738 1230q-213 -22 -449 -223q-223 -190 -377 -471q-31 -41 -54.5 -132t-23.5 -152zM401 59q35 -6 74 -6q289 0 538 263.5 t249 551.5q-12 115 -50 162q-45 55 -116 55q-29 0 -62 -12q-18 -8 -35 -16z" />
<glyph unicode="&#xd9;" horiz-adv-x="1603" d="M0 858q0 217 272 371q236 133 467 133q102 0 170 -12q127 -23 127 -82l-10 -29l-27 -12q-141 41 -214.5 62.5t-133.5 21.5q-186 0 -362 -109q-205 -125 -205 -299q0 -45 31.5 -78.5t77.5 -33.5q37 0 68.5 14t64.5 45l20 -23q-49 -51 -94 -77q-59 -35 -119 -35 q-55 0 -94 43t-39 100zM51 240q0 195 191 356q178 129 356 260q193 160 193 340q8 23 10 29l28 12l39 -18q6 -25 15 -50q0 -106 -185 -264q-172 -145 -342 -289q-186 -182 -186 -346q0 -94 59.5 -153.5t155.5 -59.5q125 0 221 97q86 86 117 217q-41 20 -65.5 49t-32.5 72 l14 32l35 15q45 -12 64.5 -43t19.5 -78v-25q18 -12 45.5 -19t56.5 -12q86 145 129 216q72 116 146 208q-20 12 -51 16.5t-37 4.5q-18 0 -45 -3t-37 -3l-31 26l20 31q27 4 54 10q80 0 147 -51q207 254 283 330q207 203 362 203q16 0 30.5 -5.5t29.5 -9.5l22 -37l-12 -28 q-18 -6 -35 -10q-16 0 -56 11t-55 11q-121 0 -288 -209q-113 -156 -226 -311q16 -27 25.5 -57.5t9.5 -67.5q0 -117 -92 -205q-84 -80 -207 -100q-39 -76 -53 -109q-31 -72 -31 -114q0 -49 53 -50q47 0 105 31q33 18 92 62l21 -21q-53 -53 -133 -97t-146 -44q-39 0 -78 24 l-28 68q0 41 20 94q8 25 76 154q-51 6 -92 26q-25 -147 -147 -256.5t-271 -109.5q-117 0 -200 67.5t-83 182.5zM856 1565q0 10 9 25.5t30 15.5q16 0 39 -25q23 -31 31 -41l63 -92l-20 -18l-95 67q-16 10 -36.5 30.5t-20.5 37.5zM967 369q109 37 170 98q71 74 71 178 q0 49 -20 84q-111 -180 -221 -360z" />
<glyph unicode="&#xda;" horiz-adv-x="1603" d="M0 852q0 217 272 371q236 133 467 133q102 0 170 -13q127 -23 127 -81l-10 -29l-27 -12q-141 41 -214.5 62.5t-133.5 21.5q-184 0 -362 -109q-205 -125 -205 -297q0 -47 31.5 -81t77.5 -34q37 0 68.5 15.5t64.5 46.5l20 -25q-47 -49 -94 -76q-61 -35 -119 -34 q-55 0 -94 43t-39 98zM51 233q0 195 191 357q178 129 356 260q193 160 193 340q8 23 10 31l28 10l39 -19q6 -25 15 -49q0 -106 -185 -264q-172 -145 -342 -289q-186 -182 -186 -346q0 -94 60.5 -152.5t154.5 -58.5q125 0 221 94q86 86 117 218q-41 20 -65.5 48.5t-32.5 71.5 l14 35l35 12q45 -12 64.5 -42.5t19.5 -77.5v-25q20 -12 46.5 -19.5t55.5 -11.5q86 145 129 215q74 121 146 209q-20 12 -41 17.5t-50 5.5q-33 0 -52 -4t-27 -4l-31 26l20 31q41 10 54 10q84 0 149 -49q193 242 283 330q205 201 360 200q16 0 30.5 -5t31.5 -9l22 -37l-14 -28 q-18 -6 -35 -11q-16 0 -56 11.5t-55 11.5q-121 0 -288 -209q-113 -156 -226 -311q16 -27 25.5 -57.5t9.5 -67.5q0 -117 -92 -205q-84 -80 -207 -100q-39 -76 -53 -109q-31 -72 -31 -115q0 -49 53 -49q47 0 105 31q33 18 92 61l21 -18q-53 -55 -132 -99t-147 -44 q-20 0 -35.5 5t-42.5 19q-8 23 -14 35q-14 33 -14 35q0 41 20 94q12 31 76 152q-20 2 -44 9t-48 17q-25 -147 -147 -256.5t-271 -109.5q-117 0 -200 67.5t-83 181.5zM844 1430q61 53 125 108q62 49 78 49q27 0 26 -37q0 -23 -16 -39q-8 -8 -66 -34l-133 -66zM967 362 q111 37 170 99q71 74 71 180q0 47 -20 82q-111 -180 -221 -361z" />
<glyph unicode="&#xdb;" horiz-adv-x="1583" d="M0 852q0 217 270 371q233 133 467 133q104 0 172 -13q127 -23 127 -81l-12 -29l-25 -12q-43 6 -170 49q-102 35 -180 35q-184 0 -362 -109q-205 -125 -205 -299q0 -45 31.5 -79t79.5 -34q39 0 69.5 15.5t61.5 46.5l22 -25q-47 -47 -101.5 -78.5t-111.5 -31.5 q-55 0 -94 43t-39 98zM51 233q0 195 191 357q176 129 354 260q193 160 192 340q0 10 13 29l28 12l37 -19q6 -25 15 -49q0 -106 -185 -264q-172 -145 -342 -289q-186 -182 -186 -346q0 -92 60.5 -152.5t154.5 -60.5q125 0 221 96q88 88 117 218q-41 23 -64.5 49t-33.5 71 l14 35l37 12q41 -12 62.5 -43.5t21.5 -74.5q0 -16 -2 -27q18 -12 46.5 -19.5t57.5 -11.5q136 211 273 424q-20 12 -41 17.5t-50 5.5q-33 0 -52 -4t-27 -4l-29 26l18 31q41 10 54 10q82 0 149 -51q203 254 283 332q205 201 362 200q14 0 28.5 -5t31.5 -9l22 -37l-14 -28 l-33 -11q-16 0 -56 11.5t-55 11.5q-141 0 -356 -295q-80 -113 -160 -225q37 -55 37 -125q0 -117 -92 -205q-84 -80 -207 -100q-39 -70 -55 -109q-31 -70 -31 -115q0 -49 55 -49q59 0 129 43q6 4 68 49l21 -20q-55 -53 -135 -97t-146 -44q-20 0 -33.5 4t-42.5 20 q-8 23 -14 35q-14 33 -14 35q0 39 20 92q4 8 74 154q-51 6 -90 26q-25 -150 -148 -258t-272 -108q-115 0 -195 65q-86 72 -86 184zM684 1458l8 23q57 18 90.5 32.5t139.5 71.5q29 -31 66.5 -62.5t76.5 -56.5l-6 -20q-45 12 -85 29.5t-89 46.5q-70 -27 -99 -37 q-57 -20 -102 -27zM967 362q106 35 168 99q71 74 71 178q0 33 -3 47t-15 37q-111 -180 -221 -361z" />
<glyph unicode="&#xdc;" horiz-adv-x="1585" d="M0 858q0 217 272 371q236 133 467 133q104 0 172 -12q127 -23 127 -82l-12 -29l-25 -12q-43 6 -170 49q-102 35 -180 35q-184 0 -362 -109q-205 -125 -205 -299q0 -45 31.5 -78.5t79.5 -33.5q37 0 67.5 15t63.5 46l20 -25q-47 -49 -94 -75q-59 -35 -119 -35q-55 0 -94 43 t-39 98zM51 240q0 195 191 356q178 129 356 260q193 160 193 340q0 10 12 29l28 12l37 -18q6 -25 15 -50q0 -106 -185 -264q-172 -145 -342 -289q-186 -182 -186 -346q0 -92 60.5 -152.5t154.5 -60.5q125 0 221 97q86 86 117 217q-41 23 -64.5 49t-33.5 72l14 34l37 13 q43 -12 62.5 -44t19.5 -77v-25q20 -12 46.5 -19t55.5 -12q138 211 275 424q-20 12 -41 17.5t-50 5.5q-33 0 -52 -4t-27 -4l-29 26l18 31q41 10 54 10q82 0 149 -51q190 242 283 332q205 201 362 201q14 0 28.5 -5.5t31.5 -9.5l22 -37l-14 -28q-18 -6 -35 -10q-18 0 -56 11 t-53 11q-141 0 -356 -295q-80 -113 -160 -225q37 -55 37 -125q0 -119 -89 -202t-212 -103q-39 -76 -53 -109q-31 -72 -31 -114q0 -49 56 -50q47 0 104 31q33 18 90 62l23 -19q-55 -55 -134 -99t-147 -44q-20 0 -35.5 5t-42.5 19q-10 23 -18 45.5t-8 24.5q0 39 20 92 q4 8 74 154q-51 6 -90 26q-25 -150 -148 -258t-272 -108q-117 0 -200 67.5t-83 182.5zM797 1524q0 31 22.5 63.5t50.5 32.5q35 0 35 -47q0 -29 -21 -59.5t-50 -30.5q-37 0 -37 41zM969 369q109 37 168 98q71 74 71 180q0 33 -3 46.5t-15 35.5q-111 -180 -221 -360zM983 1526 q0 31 22.5 62.5t51.5 31.5q33 0 33 -43q0 -33 -20.5 -63.5t-51.5 -30.5q-35 0 -35 43z" />
<glyph unicode="&#xdd;" horiz-adv-x="1779" d="M-403 -328q0 12 11 47t13 45l66 66q45 12 90 25q14 0 33.5 -6.5t35.5 -12.5l27 -49l-12 -33l-33 -12l-86 20l-70 -30q-10 -23 -16 -37q-12 -29 -12 -37q0 -117 127 -178q98 -47 229 -47q254 0 467 121q182 102 348 303q127 152 275 401l167 281q8 23 12.5 38t18.5 15 l-6 -2l-86 -4l-76 4q0 -221 -119 -381q-131 -178 -346 -178q-125 0 -204 65q-86 72 -86 195q0 201 184 350l344 238q186 147 186 340q0 10 13.5 20t23.5 10l27 -10q25 -23 24 -70q0 -119 -178 -258q-166 -127 -332 -252q-180 -166 -180 -344q0 -92 64.5 -162.5t156.5 -70.5 q170 0 285 160q104 145 104 321l-2 31q-29 10 -51 34.5t-37 59.5q2 14 13.5 26.5t25.5 14.5l51 -27l33 -79l68 -5h76q33 6 47 9q111 180 196 301q143 199 273 311q168 145 307 145q12 0 28.5 -6t32.5 -10l21 -39l-15 -33q-18 -12 -45 -12q-20 0 -59 8t-53 8 q-154 0 -340 -258q-86 -121 -236 -399l70 6q14 0 48 -10t48 -14l35 -66l-10 -31l-29 -12l-37 27l-4 18l-80 49l-61 -4q-219 -395 -336 -563q-211 -301 -442 -457q-281 -188 -627 -188q-150 0 -260 59q-139 76 -139 215zM240 883q0 225 274 372q231 125 477 125q90 0 180 -18 q135 -29 136 -84q0 -35 -37 -35q-102 33 -190.5 58.5t-155.5 25.5q-211 0 -387 -96q-217 -119 -218 -311q0 -49 32 -85t79 -36q49 0 90 29.5t74 78.5l20 -20q-37 -63 -98 -106.5t-131 -43.5q-66 0 -105.5 40t-39.5 106zM1253 1513q61 55 125 113q58 47 76 47q29 0 29 -39 q0 -20 -17 -37q-8 -8 -65 -36l-133 -64z" />
<glyph unicode="&#xde;" horiz-adv-x="1658" d="M-109 -14q14 39 57.5 53t104.5 14q23 0 65 -2t56 -2q154 23 322 112t317 267q141 172 283.5 360.5t269.5 325.5q-55 25 -120.5 35t-147.5 10q-141 0 -282.5 -37t-278.5 -108q-178 -96 -278.5 -211t-100.5 -225q0 -66 52 -110t134 -44q111 0 241 83t240 226q53 70 91 150 t47 80q6 0 9 -6.5t3 -16.5q0 -41 -25.5 -111.5t-64.5 -128.5q-98 -156 -234.5 -236.5t-290.5 -80.5q-113 0 -181 53t-68 142q0 96 71.5 198.5t206.5 194.5q156 109 338 169t354 60q92 0 169 -13t143 -40q121 119 236.5 197.5t152.5 78.5q12 0 18 -4t6 -10q0 -16 -30 -29 q-18 -10 -29 -16q-59 -35 -132 -99.5t-155 -158.5q92 -45 138.5 -124t46.5 -187q0 -106 -51.5 -202.5t-149.5 -172.5q-74 -57 -161 -86t-187 -29q-70 0 -120 8.5t-93 30.5q-139 -154 -263 -218t-245 -89q82 -20 193.5 -30.5t207.5 -10.5q209 0 385 121l17 -25 q-90 -70 -199 -103.5t-229 -33.5q-92 0 -224 12q-287 27 -372 27q-51 0 -128 -19.5t-98 -23.5zM913 377q35 -10 68 -15.5t74 -5.5q74 0 143.5 30t138.5 91q109 96 171.5 198.5t62.5 188.5q0 66 -34 118t-101 93q-106 -135 -278.5 -377.5t-244.5 -320.5z" />
<glyph unicode="&#xdf;" horiz-adv-x="778" d="M-291 70q8 25 10 30l27 13q49 -18 70 -19q78 0 211 211q109 180 141 291h-105l15 25q123 47 262 256q207 311 238 346q158 174 358 174q57 0 101 -35t44 -90q0 -125 -163 -273q-41 -37 -310 -231q-168 -123 -168 -180q0 -39 107 -215q53 -86 53 -137q0 -100 -83 -165 t-185 -65q-76 0 -131 41q-59 43 -60 119q0 57 42 102t102 45q84 0 102 -92l-18 -47l-45 -20l-37 12l-13 31l11 47l-25 20q-78 -18 -78 -98q0 -55 47 -87t107 -32q70 0 125 41t55 109q0 47 -106 217q-49 80 -50 133q0 82 164 209q152 111 307 223q164 135 164 244 q0 49 -36.5 77.5t-84.5 28.5q-182 0 -358 -272q-147 -276 -297 -553q-184 -334 -356 -430q43 -14 98 -15q49 0 102 23l11 -16q-105 -64 -226 -64q-55 0 -86 10q-53 16 -53 58z" />
<glyph unicode="&#xe0;" d="M-6 96q0 164 185.5 318.5t350.5 154.5q47 0 92.5 -13t45.5 -48l-11 -25l-26 -8q-4 0 -90 29q-43 14 -74 14q-119 0 -244 -131t-125 -250q0 -29 15.5 -49t44.5 -20q86 0 204 143q80 94 154 223h80q-14 -20 -100 -164q-99 -165 -99 -190q0 -23 21 -23q20 0 63 33 q47 41 58 49l12 -24q-39 -41 -98 -80q-72 -47 -115 -47q-47 0 -47 41q0 25 6 43t22 51q-51 -51 -102 -86q-70 -47 -123 -47q-100 0 -100 106zM416 803q0 10 9 25.5t28 15.5q18 0 41 -25q14 -20 28 -41l64 -92l-19 -18l-94 67q-16 10 -36.5 30.5t-20.5 37.5z" />
<glyph unicode="&#xe1;" d="M-6 96q0 164 185.5 318.5t350.5 154.5q47 0 92.5 -13t45.5 -48l-11 -25l-26 -8q-4 0 -90 29q-43 14 -74 14q-119 0 -244 -131t-125 -250q0 -29 15.5 -49t44.5 -20q86 0 204 143q80 94 154 223h80q-14 -20 -100 -164q-99 -165 -99 -190q0 -23 21 -23q20 0 63 33 q47 41 58 49l12 -24q-39 -41 -98 -80q-72 -47 -115 -47q-47 0 -47 41q0 25 6 43t22 51q-51 -51 -102 -86q-70 -47 -123 -47q-100 0 -100 106zM494 684q61 55 124 113q58 47 76 47q29 0 29 -39q0 -20 -16 -37q-8 -8 -66 -37l-133 -63z" />
<glyph unicode="&#xe2;" d="M-6 96q0 164 185.5 318.5t350.5 154.5q47 0 92.5 -13t45.5 -48l-11 -25l-26 -8q-4 0 -90 29q-43 14 -74 14q-119 0 -244 -131t-125 -250q0 -29 15.5 -49t44.5 -20q86 0 204 143q80 94 154 223h80q-14 -20 -100 -164q-99 -165 -99 -190q0 -23 21 -23q20 0 63 33 q47 41 58 49l12 -24q-39 -41 -98 -80q-72 -47 -115 -47q-47 0 -47 41q0 25 6 43t22 51q-51 -51 -102 -86q-70 -47 -123 -47q-100 0 -100 106zM322 696l8 25q55 18 113.5 44.5t115.5 59.5q68 -74 141 -120l-6 -19q-86 20 -172 74q-49 -18 -102 -38t-98 -26z" />
<glyph unicode="&#xe3;" d="M-6 96q0 164 185.5 318.5t350.5 154.5q47 0 92.5 -13t45.5 -48l-11 -25l-26 -8q-4 0 -90 29q-43 14 -74 14q-119 0 -244 -131t-125 -250q0 -29 15.5 -49t44.5 -20q86 0 204 143q80 94 154 223h80q-14 -20 -100 -164q-99 -165 -99 -190q0 -23 21 -23q20 0 63 33 q47 41 58 49l12 -24q-39 -41 -98 -80q-72 -47 -115 -47q-47 0 -47 41q0 25 6 43t22 51q-51 -51 -102 -86q-70 -47 -123 -47q-100 0 -100 106zM389 721q27 39 47 57q33 29 68 29q29 0 82 -26.5t80 -26.5q20 0 35.5 15t29.5 38l17 -8q-20 -43 -43 -66q-31 -31 -72 -31 q-27 0 -80 27t-76 27q-18 0 -35.5 -12.5t-33.5 -32.5z" />
<glyph unicode="&#xe4;" d="M-6 96q0 164 185.5 318.5t350.5 154.5q47 0 92.5 -13t45.5 -48l-11 -25l-26 -8q-4 0 -90 29q-43 14 -74 14q-119 0 -244 -131t-125 -250q0 -29 15.5 -49t44.5 -20q86 0 204 143q80 94 154 223h80q-14 -20 -100 -164q-99 -165 -99 -190q0 -23 21 -23q20 0 63 33 q47 41 58 49l12 -24q-39 -41 -98 -80q-72 -47 -115 -47q-47 0 -47 41q0 25 6 43t22 51q-51 -51 -102 -86q-70 -47 -123 -47q-100 0 -100 106zM401 727q0 31 22.5 63.5t51.5 32.5q35 0 35 -45q0 -29 -21.5 -60.5t-50.5 -31.5q-37 0 -37 41zM588 729q0 31 22.5 62.5t51.5 31.5 q33 0 32 -43q0 -33 -20 -63.5t-51 -30.5q-35 0 -35 43z" />
<glyph unicode="&#xe5;" d="M-6 96q0 164 185.5 318.5t350.5 154.5q47 0 92.5 -13t45.5 -48l-11 -25l-26 -8q-4 0 -90 29q-43 14 -74 14q-119 0 -244 -131t-125 -250q0 -29 15.5 -49t44.5 -20q86 0 204 143q80 94 154 223h80q-14 -20 -100 -164q-99 -165 -99 -190q0 -23 21 -23q20 0 63 33 q47 41 58 49l12 -24q-39 -41 -98 -80q-72 -47 -115 -47q-47 0 -47 41q0 25 6 43t22 51q-51 -51 -102 -86q-70 -47 -123 -47q-100 0 -100 106zM457 723q0 51 41 94t94 43q74 0 74 -72q0 -51 -41 -94t-95 -43q-74 0 -73 72zM504 725q0 -37 37 -37q31 0 55.5 33t24.5 65 q0 39 -33 39q-35 0 -59.5 -31.5t-24.5 -68.5z" />
<glyph unicode="&#xe6;" horiz-adv-x="811" d="M-35 92q0 137 160 184q55 16 266 35q18 33 27.5 64t9.5 63q0 41 -20.5 65.5t-59.5 24.5q-55 0 -115 -53q-31 -27 -45 -26q-29 0 -28 28q0 39 65.5 62.5t116.5 23.5q63 0 104 -27.5t41 -82.5q0 -10 -4 -31q57 59 121 96q78 45 146 45q33 0 54 -14t21 -43q0 -94 -147 -166 q-125 -61 -232 -61q-31 -66 -30 -125q0 -86 78 -86q49 0 108.5 33.5t104.5 76.5l6 -33q-51 -55 -135.5 -105t-147.5 -50q-55 0 -80.5 32.5t-25.5 83.5q0 16 4 46q-74 -78 -80 -84q-82 -80 -168 -80q-51 0 -83 27.5t-32 76.5zM70 119q0 -29 16 -47.5t45 -18.5q59 0 139 84 q61 63 101 137h-15q-109 0 -180 -26q-106 -39 -106 -129zM467 313q72 0 158 45q100 54 100 117q0 35 -37 35q-55 0 -127 -72q-57 -59 -94 -125z" />
<glyph unicode="&#xe7;" horiz-adv-x="487" d="M-55 -244q78 23 112.5 48.5t34.5 54.5l-12 26l-31 11l-26 -7l-9 13l74 90q-45 6 -69.5 42t-24.5 83q0 135 156.5 285.5t291.5 150.5q35 0 60.5 -12.5t25.5 -42.5l-12 -31l-31 -12q-20 2 -49.5 23.5t-56.5 21.5q-92 0 -188.5 -126t-96.5 -220q0 -35 24.5 -59.5t59.5 -24.5 q47 0 107 34q45 27 90 72l16 -22q-55 -68 -119 -111q-78 -53 -151 -53l-33 -41l16 2q27 0 45.5 -15.5t18.5 -41.5q0 -59 -82 -107q-53 -29 -135 -53z" />
<glyph unicode="&#xe8;" horiz-adv-x="489" d="M-6 115q0 133 151.5 288.5t284.5 155.5q31 0 51.5 -13.5t20.5 -43.5q0 -78 -158 -166q-117 -66 -235 -98q-14 -43 -15 -74q0 -39 21.5 -66.5t58.5 -27.5q49 0 113 36q33 18 100 70l6 -31q-61 -59 -129 -102q-88 -55 -151 -55q-53 0 -86 36.5t-33 90.5zM125 279 q84 27 166 73q115 66 115 123q0 33 -37 33q-61 0 -142 -86q-59 -66 -102 -143zM371 803q0 10 9 25.5t28 15.5q18 0 41 -25q14 -20 28 -41l64 -92l-19 -18l-94 67q-16 10 -36.5 30.5t-20.5 37.5z" />
<glyph unicode="&#xe9;" horiz-adv-x="489" d="M-6 115q0 133 151.5 288.5t284.5 155.5q31 0 51.5 -13.5t20.5 -43.5q0 -78 -158 -166q-117 -66 -235 -98q-14 -43 -15 -74q0 -39 21.5 -66.5t58.5 -27.5q49 0 113 36q33 18 100 70l6 -31q-61 -59 -129 -102q-88 -55 -151 -55q-53 0 -86 36.5t-33 90.5zM125 279 q84 27 166 73q115 66 115 123q0 33 -37 33q-61 0 -142 -86q-59 -66 -102 -143zM391 684q61 55 125 113q58 47 78 47q27 0 27 -39q0 -29 -27 -47q-2 -2 -55 -27l-133 -63z" />
<glyph unicode="&#xea;" horiz-adv-x="489" d="M-6 115q0 133 151.5 288.5t284.5 155.5q31 0 51.5 -13.5t20.5 -43.5q0 -78 -158 -166q-117 -66 -235 -98q-14 -43 -15 -74q0 -39 21.5 -66.5t58.5 -27.5q49 0 113 36q33 18 100 70l6 -31q-61 -59 -129 -102q-88 -55 -151 -55q-53 0 -86 36.5t-33 90.5zM125 279 q84 27 166 73q115 66 115 123q0 33 -37 33q-61 0 -142 -86q-59 -66 -102 -143zM246 696l8 25q53 18 113.5 45.5t115.5 58.5q68 -74 144 -120l-6 -19q-47 10 -86 27.5t-89 46.5q-70 -27 -98 -37q-57 -20 -102 -27z" />
<glyph unicode="&#xeb;" horiz-adv-x="489" d="M-6 115q0 133 151.5 288.5t284.5 155.5q31 0 51.5 -13.5t20.5 -43.5q0 -78 -158 -166q-117 -66 -235 -98q-14 -43 -15 -74q0 -39 21.5 -66.5t58.5 -27.5q49 0 113 36q33 18 100 70l6 -31q-61 -59 -129 -102q-88 -55 -151 -55q-53 0 -86 36.5t-33 90.5zM125 279 q84 27 166 73q115 66 115 123q0 33 -37 33q-61 0 -142 -86q-59 -66 -102 -143zM313 727q0 31 21.5 63.5t52.5 32.5q33 0 33 -45q0 -33 -20.5 -62.5t-51.5 -29.5q-35 0 -35 41zM500 729q0 31 22.5 62.5t50.5 31.5q33 0 33 -43q0 -33 -20 -63.5t-51 -30.5q-35 0 -35 43z" />
<glyph unicode="&#xec;" horiz-adv-x="370" d="M-20 37q0 37 65 149q88 147 178 295q-2 4 -6 7.5t-6 5.5q-23 0 -67 -29t-66 -49l-12 24q63 49 98 72q72 45 110 45q45 0 45 -43q0 -37 -119.5 -225.5t-119.5 -210.5q0 -14 16 -15q25 0 70 33q20 14 61 49l13 -24q-51 -47 -99 -80q-69 -49 -112 -49q-49 0 -49 45zM297 803 q0 10 9 25.5t28 15.5q18 0 41 -25q14 -20 28 -41l64 -92l-18 -18l-95 67q-16 10 -36.5 30.5t-20.5 37.5z" />
<glyph unicode="&#xed;" horiz-adv-x="372" d="M-20 37q0 37 65 149q88 147 178 295q-2 4 -6 7.5t-6 5.5q-23 0 -67 -29t-66 -49l-12 24q63 49 98 72q72 45 110 45q45 0 45 -43q0 -37 -119.5 -225.5t-119.5 -210.5q0 -14 16 -15q25 0 70 33q20 14 61 49l13 -24q-51 -47 -99 -80q-69 -49 -112 -49q-49 0 -49 45zM311 684 q61 55 125 113q58 47 78 47q27 0 27 -39q0 -29 -27 -47q-2 -2 -55 -27l-133 -63z" />
<glyph unicode="&#xee;" horiz-adv-x="370" d="M-20 37q0 37 65 149q88 147 178 295q-2 4 -6 7.5t-6 5.5q-23 0 -67 -29t-66 -49l-12 24q63 49 98 72q72 45 110 45q45 0 45 -43q0 -37 -119.5 -225.5t-119.5 -210.5q0 -14 16 -15q25 0 70 33q20 14 61 49l13 -24q-51 -47 -99 -80q-69 -49 -112 -49q-49 0 -49 45zM139 696 l8 25q53 18 114 45.5t116 58.5q68 -74 143 -120l-6 -19q-47 10 -86 27.5t-88 46.5q-70 -27 -98 -37q-57 -20 -103 -27z" />
<glyph unicode="&#xef;" horiz-adv-x="370" d="M-20 37q0 37 65 149q88 147 178 295q-2 4 -6 7.5t-6 5.5q-23 0 -67 -29t-66 -49l-12 24q63 49 98 72q72 45 110 45q45 0 45 -43q0 -37 -119.5 -225.5t-119.5 -210.5q0 -14 16 -15q25 0 70 33q20 14 61 49l13 -24q-51 -47 -99 -80q-69 -49 -112 -49q-49 0 -49 45zM209 727 q0 31 21.5 63.5t52.5 32.5q33 0 32 -45q0 -33 -20 -62.5t-51 -29.5q-35 0 -35 41zM395 729q0 31 22.5 62.5t51.5 31.5q33 0 33 -43q0 -33 -20.5 -63.5t-51.5 -30.5q-35 0 -35 43z" />
<glyph unicode="&#xf0;" horiz-adv-x="798" d="M121 156q0 94 90 168q90 71 205 71q27 0 48 -6t38 -14q-6 41 -22.5 88t-39.5 106q-53 -23 -106 -45t-101 -45l-26 45l209 92q-68 123 -123 193l37 33q29 -35 61.5 -84t73.5 -113q16 6 33.5 14.5t33.5 16.5q4 2 7.5 3t7.5 3q16 10 46 24.5t46 22.5l25 -45l-172 -86 q51 -90 74.5 -165t23.5 -146q0 -59 -21.5 -110.5t-58.5 -92.5q-90 -84 -205 -84q-86 0 -135 42t-49 114zM205 139q0 -94 100 -94q74 0 139 66q68 67 68 151q0 41 -25.5 64.5t-70.5 23.5q-84 0 -152 -63q-31 -33 -45 -70t-14 -78z" />
<glyph unicode="&#xf1;" horiz-adv-x="684" d="M-59 0q78 115 157 242q117 188 129 235l-12 12q-18 0 -46 -17t-81 -62l-14 22q43 41 96 76q72 47 111 47q43 0 43 -39q0 -31 -17 -63q-4 -8 -35 -58q78 74 140 113q88 55 168 55q43 0 72.5 -25.5t29.5 -68.5q0 -74 -161 -208t-161 -193q0 -29 27 -29q20 0 61 12t62 12 q10 0 31 -8l10 -24l-12 -29q-14 -10 -31 -10q-57 0 -144.5 3t-95.5 7l-8 25q0 57 159 197.5t159 211.5q0 27 -19.5 44.5t-48.5 17.5q-150 0 -334 -277q-20 -31 -133 -221h-102zM354 721q27 39 47 57q33 29 68 29q29 0 82 -26.5t80 -26.5q20 0 35.5 15t27.5 38l19 -8 q-20 -43 -43 -66q-31 -31 -72 -31q-27 0 -80 27t-76 27q-18 0 -35.5 -12.5t-33.5 -32.5z" />
<glyph unicode="&#xf2;" horiz-adv-x="544" d="M-6 133q0 150 162.5 292t316.5 142q31 0 55.5 -11t24.5 -36q0 -35 -43 -35q-20 0 -61 12.5t-64 12.5q-109 0 -202 -124t-93 -239q0 -49 18.5 -76.5t65.5 -27.5q90 0 168 92t78 184q0 18 -10.5 49t-10.5 48q0 14 11.5 25.5t25.5 11.5q29 0 40 -30t11 -63 q0 -117 -119.5 -246.5t-236.5 -129.5q-70 0 -103.5 39.5t-33.5 109.5zM352 803q0 41 37 41q18 0 41 -25q14 -20 29 -41l63 -92l-18 -18l-96 67q-20 12 -38 30.5t-18 37.5z" />
<glyph unicode="&#xf3;" horiz-adv-x="544" d="M-6 133q0 150 162.5 292t316.5 142q31 0 55.5 -11t24.5 -36q0 -35 -43 -35q-20 0 -61 12.5t-64 12.5q-109 0 -202 -124t-93 -239q0 -49 18.5 -76.5t65.5 -27.5q90 0 168 92t78 184q0 18 -10.5 49t-10.5 48q0 14 11.5 25.5t25.5 11.5q29 0 40 -30t11 -63 q0 -117 -119.5 -246.5t-236.5 -129.5q-70 0 -103.5 39.5t-33.5 109.5zM395 684q51 47 94 84q89 76 109 76q29 0 29 -39q0 -20 -17 -37q-8 -8 -65 -37l-133 -63z" />
<glyph unicode="&#xf4;" horiz-adv-x="544" d="M-6 133q0 150 162.5 292t316.5 142q31 0 55.5 -11t24.5 -36q0 -35 -43 -35q-20 0 -61 12.5t-64 12.5q-109 0 -202 -124t-93 -239q0 -49 18.5 -76.5t65.5 -27.5q90 0 168 92t78 184q0 18 -10.5 49t-10.5 48q0 14 11.5 25.5t25.5 11.5q29 0 40 -30t11 -63 q0 -117 -119.5 -246.5t-236.5 -129.5q-70 0 -103.5 39.5t-33.5 109.5zM287 696l8 25q53 18 113.5 45.5t115.5 58.5q68 -74 144 -120l-6 -19q-47 10 -86 27.5t-89 46.5q-70 -27 -98 -37q-57 -20 -102 -27z" />
<glyph unicode="&#xf5;" horiz-adv-x="544" d="M-6 133q0 150 162.5 292t316.5 142q31 0 55.5 -11t24.5 -36q0 -35 -43 -35q-20 0 -61 12.5t-64 12.5q-109 0 -202 -124t-93 -239q0 -49 18.5 -76.5t65.5 -27.5q90 0 168 92t78 184q0 18 -10.5 49t-10.5 48q0 14 11.5 25.5t25.5 11.5q29 0 40 -30t11 -63 q0 -117 -119.5 -246.5t-236.5 -129.5q-70 0 -103.5 39.5t-33.5 109.5zM313 721q27 39 47 57q33 29 68 29q29 0 82 -26.5t80 -26.5q20 0 35.5 15t27.5 38l19 -8q-20 -43 -43 -66q-31 -31 -72 -31q-27 0 -80 27t-76 27q-18 0 -35.5 -12.5t-33.5 -32.5z" />
<glyph unicode="&#xf6;" horiz-adv-x="544" d="M-6 133q0 150 162.5 292t316.5 142q31 0 55.5 -11t24.5 -36q0 -35 -43 -35q-20 0 -61 12.5t-64 12.5q-109 0 -202 -124t-93 -239q0 -49 18.5 -76.5t65.5 -27.5q90 0 168 92t78 184q0 18 -10.5 49t-10.5 48q0 14 11.5 25.5t25.5 11.5q29 0 40 -30t11 -63 q0 -117 -119.5 -246.5t-236.5 -129.5q-70 0 -103.5 39.5t-33.5 109.5zM313 727q0 31 21.5 63.5t52.5 32.5q33 0 33 -45q0 -33 -20.5 -62.5t-51.5 -29.5q-35 0 -35 41zM500 729q0 31 22.5 62.5t50.5 31.5q33 0 33 -43q0 -33 -20 -63.5t-51 -30.5q-35 0 -35 43z" />
<glyph unicode="&#xf7;" horiz-adv-x="999" d="M86 406q0 25 33 24h782q33 0 33 -29q0 -25 -33 -24h-782q-33 0 -33 29zM449 106v50q0 43 11 65.5t48 22.5q35 0 51 -41q10 -27 10 -72v-33q0 -47 -34 -67q-20 -10 -27 -11q-29 0 -44 27.5t-15 58.5zM449 651v43q0 43 11 67.5t48 24.5q31 0 46 -26.5t15 -91.5 q0 -20 -1 -47t-33 -46q-20 -10 -27 -10q-29 0 -44 28t-15 58z" />
<glyph unicode="&#xf8;" horiz-adv-x="544" d="M-57 -61l84 96q-27 41 -27 94q0 109 94 227q86 109 195 162q8 4 143 41q47 12 80 33q10 6 23.5 19.5t27.5 29.5l25 -18l-482 -541q34 -41 89 -41q113 0 178 125q53 102 53 223l10 27l27 12q39 -8 39 -57q0 -121 -121 -254t-238 -133q-59 0 -96 30l-84 -96zM88 147l4 -36 l354 401q-8 2 -20.5 3t-26.5 1q-117 0 -214 -125t-97 -244z" />
<glyph unicode="&#xf9;" horiz-adv-x="604" d="M-14 66q0 43 61 147q78 133 158 268l-15 15q-23 0 -61 -25q-23 -14 -57 -41l-11 23q39 35 91 67q66 41 102 41q47 0 47 -39t-114.5 -217t-114.5 -217l10 -22l24 -11q86 0 234 174q135 160 160 252l-13 17q-14 0 -57 -29q-35 -23 -55 -39l-15 23q45 43 89 69q63 39 104 39 q45 0 45 -39q0 -35 -119 -225.5t-119 -212.5q0 -20 19 -21q20 0 67 35q49 41 62 52l14 -25q-43 -45 -100 -84q-72 -49 -117 -49q-43 0 -43 39q0 29 23 73q4 10 22 43q-63 -63 -112 -98q-78 -55 -138 -55q-72 0 -71 72zM287 803q0 41 37 41q18 0 41 -25q14 -20 28 -41l64 -92 l-21 -18l-94 67q-18 10 -36.5 30.5t-18.5 37.5z" />
<glyph unicode="&#xfa;" horiz-adv-x="604" d="M-14 66q0 43 61 147q78 133 158 268l-15 15q-23 0 -61 -25q-23 -14 -57 -41l-11 23q39 35 91 67q66 41 102 41q47 0 47 -39t-114.5 -217t-114.5 -217l10 -22l24 -11q86 0 234 174q135 160 160 252l-13 17q-14 0 -57 -29q-35 -23 -55 -39l-15 23q45 43 89 69q63 39 104 39 q45 0 45 -39q0 -35 -119 -225.5t-119 -212.5q0 -20 19 -21q20 0 67 35q49 41 62 52l14 -25q-43 -45 -100 -84q-72 -49 -117 -49q-43 0 -43 39q0 29 23 73q4 10 22 43q-63 -63 -112 -98q-78 -55 -138 -55q-72 0 -71 72zM408 684q61 55 124 113q58 47 76 47q29 0 29 -39 q0 -20 -16 -37q-8 -8 -66 -37l-133 -63z" />
<glyph unicode="&#xfb;" horiz-adv-x="604" d="M-14 66q0 43 61 147q78 133 158 268l-15 15q-23 0 -61 -25q-23 -14 -57 -41l-11 23q39 35 91 67q66 41 102 41q47 0 47 -39t-114.5 -217t-114.5 -217l10 -22l24 -11q86 0 234 174q135 160 160 252l-13 17q-14 0 -57 -29q-35 -23 -55 -39l-15 23q45 43 89 69q63 39 104 39 q45 0 45 -39q0 -35 -119 -225.5t-119 -212.5q0 -20 19 -21q20 0 67 35q49 41 62 52l14 -25q-43 -45 -100 -84q-72 -49 -117 -49q-43 0 -43 39q0 29 23 73q4 10 22 43q-63 -63 -112 -98q-78 -55 -138 -55q-72 0 -71 72zM260 696l8 25q53 18 114 45.5t116 58.5 q68 -74 143 -120l-6 -19q-88 20 -174 74q-49 -18 -102.5 -38t-98.5 -26z" />
<glyph unicode="&#xfc;" horiz-adv-x="604" d="M-14 66q0 43 61 147q78 133 158 268l-15 15q-23 0 -61 -25q-23 -14 -57 -41l-11 23q39 35 91 67q66 41 102 41q47 0 47 -39t-114.5 -217t-114.5 -217l10 -22l24 -11q86 0 234 174q135 160 160 252l-13 17q-14 0 -57 -29q-35 -23 -55 -39l-15 23q45 43 89 69q63 39 104 39 q45 0 45 -39q0 -35 -119 -225.5t-119 -212.5q0 -20 19 -21q20 0 67 35q49 41 62 52l14 -25q-43 -45 -100 -84q-72 -49 -117 -49q-43 0 -43 39q0 29 23 73q4 10 22 43q-63 -63 -112 -98q-78 -55 -138 -55q-72 0 -71 72zM336 727q0 31 21.5 63.5t52.5 32.5q14 0 23 -9t9 -36 q0 -29 -21 -60.5t-50 -31.5q-35 0 -35 41zM520 729q0 31 22.5 62.5t53.5 31.5q33 0 33 -43q0 -29 -21.5 -61.5t-50.5 -32.5q-37 0 -37 43z" />
<glyph unicode="&#xfd;" horiz-adv-x="675" d="M-467 -596l12 29l29 12q33 -6 83 -32.5t101 -26.5q162 0 303 243q82 156 111 211q43 84 74 140q45 84 82 135l4 6q-53 -45 -86 -66q-102 -68 -168 -67q-78 0 -78 69q0 45 96 197q109 170 125 217l-12 12q-35 -8 -72 -30q-27 -16 -65 -47l-13 18q51 47 101 82 q71 49 114 49t43 -39t-63 -145q-162 -272 -170 -299q12 -27 35 -27q104 0 225 135q96 125 193 250q106 137 168 137q23 -6 30 -8l13 -27l-7 -24q-20 -16 -96 -39q-53 -16 -104 -88q-61 -84 -217 -414q-145 -305 -256 -434q-174 -203 -396 -203q-53 0 -89 14.5t-50 59.5z M287 684q61 55 125 113q57 47 77 47q27 0 27 -39q0 -20 -16 -37q-8 -8 -66 -37l-133 -63z" />
<glyph unicode="&#xfe;" horiz-adv-x="641" d="M-559 -623q0 6 5 14.5t9 16.5l33 12l68 -18q88 53 215 255t321 632q76 147 244 446q4 4 6 10q10 20 14 29q2 8 1 13.5t-5 5.5q-10 6 -45 -9l-14 25q53 35 96 22q23 -6 30 -25.5t1 -49.5q-4 -8 -8 -16.5t-6 -14.5l-84 -160q37 4 72.5 -1t62.5 -13q96 -29 141 -113t14 -178 q-39 -133 -161.5 -211t-235.5 -41q-39 12 -63.5 48t-16.5 67q6 18 20.5 26.5t30.5 6.5q8 -4 12.5 -7.5t6.5 -15.5q-6 -6 -11.5 -14t-7.5 -15q-4 -18 8.5 -37.5t43.5 -27.5q84 -29 171 41t123 196q27 84 -1.5 154t-96.5 92q-27 8 -59.5 10.5t-69.5 -2.5q-160 -307 -346 -661 q-43 -80 -80 -150q-139 -244 -264 -342q23 -6 59 -6q45 0 92.5 13.5t90.5 37.5l14 -20q-55 -41 -131 -63.5t-150 -22.5q-61 0 -88 6q-61 14 -61 55z" />
<glyph unicode="&#xff;" horiz-adv-x="624" d="M-467 -596l12 29l29 12q33 -6 83 -32.5t101 -26.5q162 0 303 243q82 156 111 211q43 84 74 140q45 84 82 135l4 6q-53 -45 -86 -66q-102 -68 -168 -67q-78 0 -78 69q0 47 133 258q74 117 88 158l-12 10q-35 -8 -72 -30q-27 -16 -65 -47l-13 18q47 45 101 82q73 51 114 51 q43 0 43 -41q0 -39 -63 -145q-162 -272 -170 -299q12 -27 35 -27q104 0 225 135q96 125 193 252q104 137 168 137q23 -8 30 -10l13 -27l-7 -24q-27 -23 -73 -33q-74 -18 -127 -94q-61 -84 -217 -414q-145 -305 -256 -434q-174 -203 -396 -203q-53 0 -89 14.5t-50 59.5z M367 727q0 31 22.5 63.5t50.5 32.5q35 0 35 -45q0 -29 -21.5 -60.5t-50.5 -31.5q-37 0 -36 41zM553 729q0 31 22.5 62.5t51.5 31.5q33 0 32 -43q0 -33 -20 -63.5t-51 -30.5q-35 0 -35 43z" />
<glyph unicode="&#x152;" horiz-adv-x="2097" d="M-14 911q0 150 112 240q98 78 226 78q18 0 41.5 -1t60.5 -16l-10 -26q-29 6 -41.5 7t-32.5 1q-115 0 -199 -78q-92 -86 -92 -227q0 -86 42 -147.5t112 -88.5q123 256 356 463q254 225 473 225q84 0 142 -45q66 -53 65 -155q0 -68 -24.5 -127.5t-71.5 -104.5 q0 -127 -39 -247l2 2q68 86 165 148t195 83l-2 51q0 168 152 291q139 109 283 109q82 0 143 -39q76 -49 76 -144q0 -98 -60 -155q-53 -51 -135 -52q-31 1 -84 21q-53 39 -53 106l10 37l29 15q23 0 37 -17.5t14 -68.5q0 -33 -4 -56q16 -6 24.5 -8t22.5 -2q51 0 90 44t39 106 q0 82 -56.5 126t-125.5 44q-123 0 -230 -97q-117 -104 -116 -254l6 -53q33 0 63.5 -15.5t30.5 -52.5l-14 -30q-20 -12 -35 -13q-31 0 -55.5 20.5t-36.5 53.5q-94 -10 -170 -71q-51 -41 -156 -179q-84 -127 -84 -286q0 -131 63.5 -208t172.5 -77q113 0 227 92 q131 104 131 236q0 47 -27.5 79.5t-66.5 32.5q-31 0 -67 -20.5t-79 -79.5l-14 20q37 66 86 103q57 43 115 43q47 0 78.5 -36t31.5 -95q0 -176 -176 -314q-156 -123 -311 -122q-111 0 -189.5 77.5t-78.5 214.5q0 57 12 115q-37 -55 -82 -108q-246 -297 -516 -297 q-121 0 -195.5 84t-74.5 233q0 86 22 168q14 53 55 156q-86 35 -139 104q-63 80 -63 184zM217 315q0 -129 63.5 -198.5t168.5 -69.5q236 0 436 262t200 553q-43 -33 -85 -48t-89 -15q-86 0 -153 51q-59 -129 -176 -195q-104 -59 -236 -59h-41q-18 4 -24 4 q-25 -41 -44.5 -136t-19.5 -149zM295 633l51 -2q129 0 225 53q109 59 166 186q-37 35 -37 95l11 39l26 16q20 -6 30.5 -26.5t10.5 -49.5q0 -27 -4 -40t-6 -19q29 -27 65.5 -39t75.5 -12q98 0 176 67q-10 76 -41 123q-35 55 -92 55q-23 0 -49 -12t-49 -29l-16 6q16 53 57 86 t88 33q63 0 107 -59q39 -53 49 -137q47 49 47 133q0 96 -55.5 146t-137.5 50q-195 0 -407 -225q-182 -190 -291 -438z" />
<glyph unicode="&#x153;" horiz-adv-x="839" d="M-6 129q0 152 151.5 295t305.5 143q31 0 50 -10t27 -37l-12 -24l-31 -11q-20 0 -61 12.5t-62 12.5q-102 0 -192 -133q-82 -121 -82 -232q0 -43 20.5 -73.5t61.5 -30.5q82 0 148.5 77t66.5 161q0 29 -12 67q-18 61 -21 68l10 22l25 13q27 0 36 -25t9 -68q0 -29 -4 -49 q61 98 147 168q104 84 203 84q33 0 54.5 -14.5t21.5 -44.5q0 -94 -227 -197q-31 -14 -168 -67q-15 -37 -15 -82q0 -39 19.5 -62.5t56.5 -23.5q49 0 108.5 33.5t106.5 76.5l6 -33q-53 -57 -129 -102q-90 -53 -155 -53q-53 0 -80 32.5t-27 86.5q-41 -51 -101.5 -88t-119.5 -37 q-68 0 -101.5 37.5t-33.5 107.5zM475 279q88 27 168 73q113 66 113 123q0 33 -37 33q-47 0 -107 -51q-80 -70 -137 -178z" />
<glyph unicode="&#x178;" horiz-adv-x="1851" d="M-205 -322q0 12 11.5 47t13.5 46l65 65q45 12 90 25q14 0 33 -6.5t37 -12.5l27 -49l-15 -33l-30 -12l-86 21l-72 -31q-4 -10 -16.5 -40t-12.5 -34q0 -119 127 -178q100 -47 232 -47q254 0 467 121q182 102 348 303q125 152 274 401l166 283q4 6 12.5 28.5t20.5 22.5 l-12 -2l-80 -4l-76 6q0 -221 -119 -381q-133 -178 -346 -178q-123 0 -205 65q-88 72 -88 193q0 201 184 350q172 119 347 238q186 147 186 340q0 10 13.5 20t23.5 10l26 -10q12 -10 18.5 -30.5t6.5 -38.5q0 -119 -178 -258q-166 -127 -332 -252q-180 -166 -180 -344 q0 -90 63.5 -162t155.5 -72q170 0 285 160q104 145 104 321v31q-29 10 -51.5 34.5t-36.5 59.5q0 12 12.5 26.5t26.5 14.5l49 -26l35 -78l65 -6q31 0 63 2t62 8q109 178 197 299q143 201 272 311q169 146 308 146q12 0 28.5 -6.5t30.5 -10.5l22 -39l-14 -32q-18 -12 -45 -13 q-20 0 -59 8.5t-54 8.5q-154 0 -340 -258q-92 -129 -235 -400l70 6q16 0 43.5 -8t52.5 -14l35 -68l-13 -30l-26 -13l-37 29l-4 16l-80 49l-62 -4q-223 -401 -335 -561q-213 -303 -443 -459q-279 -188 -626 -188q-150 0 -261 59q-139 76 -139 215zM436 889q0 225 277 373 q233 125 477 124q90 0 178 -18q135 -29 135 -84q0 -35 -35 -35q-102 33 -190 58.5t-156 25.5q-209 0 -389 -96q-217 -117 -217 -309q0 -51 32 -87t81 -36t94 33q35 25 70 75l20 -20q-37 -63 -98.5 -106.5t-130.5 -43.5q-66 0 -107 41t-41 105zM1366 1499q0 33 22.5 65 t53.5 32q23 0 28 -16.5t5 -30.5q0 -29 -21.5 -60t-50.5 -31q-37 0 -37 41zM1553 1499q0 31 22.5 64t50.5 33q33 0 33 -43q0 -33 -20.5 -64t-51.5 -31q-35 0 -34 41z" />
<glyph unicode="&#x2c6;" d="M131 1223l10 39q20 6 43 14t49.5 20.5t60.5 28.5t79 41l147 -123l-4 -37q-45 16 -93 33.5t-91 40.5q-4 -2 -11.5 -5t-3.5 1q-41 -16 -87 -30.5t-99 -22.5z" />
<glyph unicode="&#x2dc;" horiz-adv-x="538" d="M78 1300q14 23 26.5 37.5t24.5 26.5v-2q37 31 70 31q25 0 63 -17q82 -37 98 -37t32 16.5t30 39.5l22 -13q-14 -41 -43 -69q-33 -33 -73 -33q-25 0 -64 16q-84 37 -94 37q-20 0 -37 -14v2q-4 -4 -11 -14.5t-18 -20.5z" />
<glyph unicode="&#x2000;" horiz-adv-x="836" />
<glyph unicode="&#x2001;" horiz-adv-x="1673" />
<glyph unicode="&#x2002;" horiz-adv-x="836" />
<glyph unicode="&#x2003;" horiz-adv-x="1673" />
<glyph unicode="&#x2004;" horiz-adv-x="557" />
<glyph unicode="&#x2005;" horiz-adv-x="418" />
<glyph unicode="&#x2006;" horiz-adv-x="278" />
<glyph unicode="&#x2007;" horiz-adv-x="278" />
<glyph unicode="&#x2008;" horiz-adv-x="209" />
<glyph unicode="&#x2009;" horiz-adv-x="334" />
<glyph unicode="&#x200a;" horiz-adv-x="92" />
<glyph unicode="&#x2010;" horiz-adv-x="522" d="M98 254v74h340v-74h-340z" />
<glyph unicode="&#x2011;" horiz-adv-x="522" d="M98 254v74h340v-74h-340z" />
<glyph unicode="&#x2012;" horiz-adv-x="522" d="M98 254v74h340v-74h-340z" />
<glyph unicode="&#x2013;" horiz-adv-x="665" d="M96 254v74h479v-74h-479z" />
<glyph unicode="&#x2014;" horiz-adv-x="2199" d="M70 254v74h2044v-74h-2044z" />
<glyph unicode="&#x2018;" horiz-adv-x="425" d="M176 1055q0 47 53 104q39 41 97 80l12 -16q-35 -27 -57 -47q-37 -35 -43 -60q43 0 43 -37q0 -27 -17.5 -49t-44.5 -22q-18 0 -30.5 14t-12.5 33z" />
<glyph unicode="&#x2019;" horiz-adv-x="342" d="M90 1008q37 27 57 45q37 35 43 59l-6 -2q-37 0 -37 41q0 25 18.5 47.5t43.5 22.5q41 0 41 -47q0 -49 -51 -107q-39 -43 -97 -78z" />
<glyph unicode="&#x201a;" horiz-adv-x="342" d="M23 -115q31 23 63 54q43 39 49 63h-8q-39 0 -39 43q0 29 18.5 53.5t49.5 24.5q47 0 47 -51q0 -49 -55.5 -112.5t-106.5 -90.5z" />
<glyph unicode="&#x201c;" horiz-adv-x="475" d="M98 1055q0 47 54 104q39 41 96 80l12 -16q-35 -27 -57 -47q-37 -35 -43 -60q43 0 43 -37q0 -27 -17.5 -49t-44.5 -22q-18 0 -30.5 14t-12.5 33zM227 1055q0 51 52 106q41 43 98 78l10 -16q-33 -27 -55 -47q-39 -37 -43 -60q41 0 41 -39q0 -25 -17.5 -46t-44.5 -21 q-41 0 -41 45z" />
<glyph unicode="&#x201d;" horiz-adv-x="475" d="M96 1008q39 27 58 45q35 33 43 59l-9 -2q-35 0 -34 41q0 27 17 48.5t44 21.5q41 0 41 -47q0 -51 -51 -107q-41 -43 -99 -78zM223 1008q39 29 58 45q39 35 43 59l-7 -2q-35 0 -34 41q0 25 17 47.5t42 22.5q43 0 43 -47q0 -49 -53 -107q-41 -43 -96 -78z" />
<glyph unicode="&#x201e;" horiz-adv-x="475" d="M76 -90q33 23 57 47q39 35 43 57q-41 0 -41 39q0 27 17.5 48.5t42.5 21.5q43 0 43 -45q0 -49 -54 -109q-39 -43 -94 -78zM205 -90q35 25 57 47q37 35 43 57q-43 0 -43 39q0 27 17.5 48.5t44.5 21.5q41 0 41 -45q0 -49 -52 -107q-41 -47 -96 -80z" />
<glyph unicode="&#x2022;" horiz-adv-x="481" d="M117 682q0 55 39 94t92 39q55 0 93 -38t38 -95q0 -55 -38 -93t-93 -38q-53 0 -92 39t-39 92z" />
<glyph unicode="&#x2026;" horiz-adv-x="1540" d="M86 35q0 29 23.5 58.5t54.5 29.5q43 0 43 -45q0 -33 -21.5 -60.5t-56.5 -27.5q-43 0 -43 45zM709 35q0 31 22 59.5t55 28.5q41 0 41 -45q0 -31 -22.5 -59.5t-52.5 -28.5q-43 0 -43 45zM1329 35q0 31 22.5 59.5t55.5 28.5q41 0 41 -45q0 -33 -21.5 -60.5t-54.5 -27.5 q-43 0 -43 45z" />
<glyph unicode="&#x202f;" horiz-adv-x="334" />
<glyph unicode="&#x2039;" horiz-adv-x="401" d="M47 0q2 4 4 10t4 10q8 29 14.5 64t6.5 76q0 20 -1 34.5l-2 29t-5.5 31.5t-10.5 46q33 14 70 35.5t72 44.5q25 16 57.5 40.5t73.5 55.5h39q-41 -59 -95.5 -106t-117.5 -80v-29q0 -61 -18.5 -133t-51.5 -129h-39z" />
<glyph unicode="&#x203a;" horiz-adv-x="348" d="M-102 0q37 68 129 166q43 41 78.5 73.5t70.5 59.5q-14 35 -14 76q0 61 20 102h31l-2 -33q0 -41 16.5 -76.5t48.5 -76.5q-57 -35 -104 -68t-82 -61q-88 -74 -156 -162h-36z" />
<glyph unicode="&#x205f;" horiz-adv-x="418" />
<glyph unicode="&#x20ac;" horiz-adv-x="1445" d="M39 594q0 31 33 31h202q33 55 80 116q-113 20 -192 88q-94 80 -94 187q0 117 102 207q92 80 217 104l6 -24q-96 -43 -155 -117q-68 -84 -68 -180q0 -94 59 -154q51 -53 150 -80q188 225 420 381q285 193 522 193q96 0 160 -37q82 -47 82 -138q0 -111 -96.5 -188.5 t-211.5 -77.5q-41 0 -78.5 11.5t-66.5 33.5q-102 -129 -295 -184q-147 -43 -354 -43q-33 -47 -60 -98h304q32 0 32 -35q0 -31 -32 -31h-336l-17 -39q-23 -57 -37 -110h279q33 0 33 -35q0 -33 -33 -33h-289q-2 -25 -2 -47q0 -111 76 -172.5t188 -61.5q145 0 287 101 q158 113 158 252q0 47 -31 79.5t-78 32.5q-57 0 -106 -39q-37 -29 -76 -86l-25 13q33 82 101 137q76 61 159 61q59 0 95 -37.5t36 -99.5q0 -174 -208 -336q-199 -154 -383 -153q-139 0 -232 75q-98 82 -98 220q0 31 4 61h-96q-33 0 -33 35q0 33 33 33h108q14 57 39 114 l17 35h-166q-33 0 -33 35zM485 756l68 -2q158 0 297 53t235 166q-33 43 -32 88q0 29 14 50.5t41 21.5q25 0 37 -19.5t12 -48.5q0 -47 -29 -86q23 -20 53.5 -29.5t63.5 -9.5q90 0 163 59.5t73 147.5q0 76 -61.5 116t-141.5 40q-203 0 -449 -185q-219 -164 -344 -362z" />
<glyph unicode="&#x2122;" horiz-adv-x="1656" d="M-37 866q0 41 26.5 63.5t61.5 22.5h8q16 -8 29 -8l18 -29l-12 -22l-22 -12l-43 10q-4 -2 -9.5 -4t-9.5 -4l-10 -21q0 -37 20 -47q29 -16 53.5 -21.5t51.5 -5.5q66 0 128 35t112 97q37 57 78.5 122.5t78.5 124.5q45 63 93.5 100.5t101.5 41.5h-2q-72 10 -116 15t-60 5 q-74 0 -162 -43v2q-98 -47 -98 -117q0 -16 10 -26t24 -10q23 0 49 22q10 8 20.5 20.5t23.5 34.5l28 -18q-18 -39 -45 -66q-55 -47 -92 -47q-31 0 -51.5 18.5t-20.5 49.5q0 96 127 164q53 29 104.5 40t104.5 11q16 0 50 -3t77 -7q4 0 10.5 -1t10.5 -1q16 -2 28.5 -2h22.5 q25 0 65 10q27 4 41 6q16 2 25 6l22 -4q0 -2 1 -7t1 -7q0 2 3 0q0 -35 -41 -47h2q-23 -8 -60 -9h-26.5t-30.5 2l16 -24l-12 -23l-18 -4q-8 2 -16.5 3t-12.5 3h-4q-2 0 -2 2q-8 2 -19 3q-59 0 -127 -125q-55 -98 -92 -160t-59 -86q-119 -137 -283 -137q-61 0 -110 22 q-59 29 -60 92zM477 840l4 20l25 12q12 -4 53 -49q27 -31 82 -30q53 0 111 26q16 10 35.5 25.5t41.5 38.5q-35 25 -56 65.5t-21 87.5q0 150 143 248q63 45 133 65.5t150 20.5h41t26 -2q23 -4 39 -13t27 -26q0 -18 -25 -24q-8 2 -13 3t-11 3l16 -25l-18 -18q-10 2 -16.5 3 t-8.5 1q-4 2 -6 4t-4 2h-2q-23 0 -40.5 -33t-31.5 -90q-10 -68 -14 -109.5t-4 -52.5l-9 -61v-2q-2 -6 -1 -6t1 2q2 4 4 6t5 6q10 12 18 26.5t16 26.5q23 33 42.5 67t41.5 66q37 53 78 99.5t76 76.5q100 78 203 78h34q14 -8 19.5 -9t9.5 -1l31 -29l-23 -32l-24 8 q-6 2 -11.5 4t-13.5 6l12 -18l-4 -19l-18 -4q-6 0 -14 4v-2q-20 8 -27 8q-39 0 -111 -90q-61 -84 -110 -194q-51 -111 -51 -158q0 -31 28 -31q20 0 43 17q18 12 45 45l27 -19q-27 -43 -64 -69q-41 -27 -81 -27q-63 0 -64 66q0 33 15.5 82t43.5 108q29 57 63 110.5t73 94.5 q94 104 161 104h5q-6 0 -10.5 1t-8.5 1q-119 0 -233 -143q-25 -35 -49.5 -68.5t-47.5 -68.5q-25 -35 -47 -70t-45 -67q-51 -74 -97 -114t-85 -40q-25 0 -39 24l10 21q10 4 13.5 5t7.5 1h11t17 -2q6 -2 9 -2q2 0 14 4q4 0 5 1t5 1q20 23 33 119q8 78 15 126t12 68q8 31 18 61 t25 50q-10 -10 -21.5 -22.5t-21.5 -26.5q-16 -27 -44 -68t-63 -98q-31 -49 -49 -78.5t-33 -48.5q4 0 8 -2t9 -2q33 0 81 33l21 -25q-29 -25 -53.5 -33t-48.5 -8h-17.5t-30.5 4q-41 -47 -105.5 -77.5t-125.5 -30.5q-59 0 -96 14q-59 27 -68 68zM811 1024q0 -39 9 -66.5 t38 -44.5q2 4 5 9.5t5 9.5q12 16 33 50t49 81q35 55 66.5 98t58.5 72q37 41 76 64.5t72 25.5q-2 0 -3 1t-3 1q-41 12 -72 12q-59 0 -118.5 -26.5t-108.5 -67.5q-106 -96 -107 -219zM1235 1272h2h-2z" />
<glyph unicode="&#x25fc;" horiz-adv-x="563" d="M0 0v563h563v-563h-563z" />
</font>
</defs>
</svg>
